M48
; DRILL file {KiCad 9.0.4} date 2026-01-11T11:57:00-0800
; FORMAT={-:-/ absolute / metric / decimal}
; #@! TF.CreationDate,2026-01-11T11:57:00-08:00
; #@! TF.GenerationSoftware,Kicad,Pcbnew,9.0.4
; #@! TF.FileFunction,Plated,1,4,PTH
FMAT,2
METRIC
; #@! TA.AperFunction,Plated,PTH,ViaDrill
T1C0.300
; #@! TA.AperFunction,Plated,PTH,ComponentDrill
T2C0.300
; #@! TA.AperFunction,Plated,PTH,ComponentDrill
T3C0.800
; #@! TA.AperFunction,Plated,PTH,ComponentDrill
T4C0.850
; #@! TA.AperFunction,Plated,PTH,ComponentDrill
T5C0.900
; #@! TA.AperFunction,Plated,PTH,ComponentDrill
T6C1.000
; #@! TA.AperFunction,Plated,PTH,ComponentDrill
T7C1.020
; #@! TA.AperFunction,Plated,PTH,ComponentDrill
T8C1.070
; #@! TA.AperFunction,Plated,PTH,ComponentDrill
T9C4.550
%
G90
G05
T1
X70.0Y-40.0
X70.0Y-60.0
X70.0Y-70.0
X70.0Y-80.0
X70.0Y-90.0
X70.0Y-100.0
X70.0Y-110.0
X70.0Y-120.0
X71.75Y-78.25
X73.8Y-78.4
X75.0Y-55.0
X75.0Y-59.25
X76.25Y-81.0
X78.5Y-37.0
X78.5Y-43.0
X80.0Y-33.0
X80.0Y-45.0
X80.0Y-55.0
X80.0Y-59.5
X80.0Y-100.0
X80.0Y-110.0
X80.0Y-120.0
X81.25Y-85.75
X81.5Y-65.0
X81.5Y-67.0
X83.0Y-86.5
X83.5Y-86.0
X84.4Y-78.4
X84.5Y-90.8
X84.6Y-92.5
X85.0Y-45.0
X85.0Y-50.0
X85.0Y-55.0
X85.0Y-59.5
X85.5Y-85.75
X86.0Y-43.5
X86.0Y-89.4
X86.5Y-87.0
X87.0Y-89.4
X87.5Y-45.0
X87.5Y-86.75
X89.0Y-43.5
X90.0Y-33.0
X90.0Y-45.0
X90.0Y-50.0
X90.0Y-55.0
X90.0Y-59.5
X90.0Y-70.0
X90.0Y-100.0
X90.0Y-110.0
X90.0Y-120.0
X92.0Y-75.25
X92.0Y-77.25
X92.0Y-79.25
X92.25Y-48.0
X92.25Y-49.0
X92.25Y-50.0
X92.25Y-51.0
X92.25Y-52.0
X93.0Y-53.5
X93.25Y-46.5
X93.5Y-83.75
X93.5Y-88.25
X94.0Y-53.5
X94.2Y-66.887
X94.25Y-46.5
X94.75Y-85.75
X95.0Y-46.5
X95.0Y-53.5
X95.0Y-55.0
X95.0Y-59.5
X95.5Y-63.5
X96.5Y-61.0
X97.0Y-52.75
X97.75Y-37.5
X98.5Y-49.25
X98.75Y-42.75
X98.875Y-65.125
X100.0Y-33.0
X100.0Y-52.75
X100.0Y-80.0
X100.0Y-90.0
X100.0Y-100.0
X100.0Y-110.0
X100.0Y-120.0
X100.5Y-61.0
X101.0Y-66.0
X101.5Y-46.67
X101.5Y-53.5
X102.5Y-46.75
X102.5Y-59.5
X102.75Y-53.5
X103.5Y-46.75
X103.75Y-53.5
X104.75Y-47.75
X104.75Y-48.75
X104.75Y-50.0
X104.75Y-51.0
X104.75Y-52.0
X104.75Y-53.0
X105.0Y-45.0
X105.0Y-55.0
X105.0Y-86.5
X106.0Y-43.5
X106.4Y-66.5
X107.5Y-45.0
X109.0Y-43.5
X109.4Y-65.0
X110.0Y-33.0
X110.0Y-45.0
X110.0Y-50.0
X110.0Y-55.0
X110.0Y-59.5
X110.0Y-80.0
X110.0Y-90.0
X110.0Y-100.0
X110.0Y-110.0
X110.0Y-120.0
X111.5Y-62.8
X112.5Y-65.75
X112.75Y-74.25
X115.0Y-45.0
X115.0Y-50.0
X115.0Y-55.0
X115.0Y-59.5
X116.6Y-66.7
X118.0Y-81.595
X118.5Y-37.5
X118.5Y-43.5
X119.25Y-78.25
X120.0Y-33.0
X120.0Y-55.0
X120.0Y-59.5
X120.0Y-89.0
X120.0Y-100.0
X120.0Y-110.0
X120.0Y-120.0
X122.862Y-70.662
X124.0Y-74.25
X126.25Y-69.25
X129.75Y-84.25
X130.0Y-33.0
X130.0Y-40.0
X130.0Y-76.5
X130.0Y-89.0
X130.0Y-100.0
X130.0Y-110.0
X130.0Y-120.0
X131.25Y-79.5
X131.5Y-61.5
X132.5Y-60.5
X132.5Y-63.0
X132.7Y-82.865
X133.6Y-73.5
X134.5Y-60.5
X135.0Y-63.0
X135.0Y-80.5
X135.0Y-82.25
X135.5Y-61.5
X140.0Y-33.0
X140.0Y-40.0
X140.0Y-89.0
X140.0Y-100.0
X140.0Y-110.0
X140.0Y-120.0
X142.0Y-48.5
X142.0Y-49.5
X142.0Y-64.0
X142.0Y-65.0
X147.5Y-76.5
X147.5Y-77.75
X150.0Y-33.0
X150.0Y-100.0
X150.0Y-110.0
X150.0Y-120.0
X160.0Y-33.0
X160.0Y-40.0
X160.0Y-50.0
X160.0Y-60.0
X160.0Y-70.0
X160.0Y-80.0
X160.0Y-90.0
X160.0Y-100.0
X160.0Y-110.0
X160.0Y-120.0
X170.0Y-33.0
X170.0Y-40.0
X170.0Y-50.0
X170.0Y-60.0
X170.0Y-70.0
X170.0Y-80.0
X170.0Y-90.0
X170.0Y-100.0
X170.0Y-110.0
X170.0Y-120.0
X180.0Y-33.0
X180.0Y-40.0
X180.0Y-50.0
X180.0Y-60.0
X180.0Y-70.0
X180.0Y-80.0
X180.0Y-90.0
X180.0Y-100.0
X180.0Y-110.0
X180.0Y-120.0
X190.0Y-33.0
X190.0Y-40.0
X190.0Y-50.0
X190.0Y-60.0
X190.0Y-70.0
X190.0Y-80.0
X190.0Y-90.0
X190.0Y-100.0
X190.0Y-110.0
X190.0Y-120.0
X200.0Y-33.0
X200.0Y-80.0
X200.0Y-100.0
X200.0Y-110.0
X200.0Y-120.0
X202.75Y-79.75
X203.0Y-61.0
X203.0Y-62.5
X203.0Y-64.25
X203.0Y-65.5
X203.0Y-79.0
X203.0Y-80.5
X208.5Y-63.75
X208.5Y-65.25
X210.0Y-33.0
X210.0Y-40.0
X210.0Y-50.0
X210.0Y-60.0
X210.0Y-70.0
X210.0Y-90.0
X210.0Y-100.0
X210.0Y-110.0
X210.0Y-120.0
X211.7Y-81.4
X211.7Y-82.9
X213.6Y-81.4
X213.6Y-82.9
T2
X75.915Y-71.8
X75.915Y-73.1
X77.215Y-71.8
X77.215Y-73.1
X78.515Y-71.8
X78.515Y-73.1
X79.815Y-71.8
X79.815Y-73.1
T3
X105.0Y-103.75
X105.0Y-106.25
X105.0Y-108.75
X106.4Y-83.9
X106.4Y-86.4
X106.4Y-88.9
T4
X137.0Y-78.5
X137.0Y-80.5
X137.0Y-82.5
X137.0Y-84.5
T5
X81.364Y-87.294
X81.364Y-89.834
T6
X87.5Y-38.483
X87.5Y-43.5
X107.5Y-38.483
X107.5Y-43.5
T7
X143.48Y-41.54
X143.48Y-44.08
X143.48Y-46.62
X143.48Y-49.16
X143.48Y-51.7
X143.48Y-54.24
X143.48Y-56.78
X143.48Y-59.32
X143.48Y-61.86
X143.48Y-64.4
X143.48Y-66.94
X143.48Y-69.48
X143.48Y-72.02
X143.48Y-74.56
X143.48Y-77.1
X143.48Y-79.64
X143.48Y-82.18
X143.48Y-84.72
X143.48Y-87.26
X146.02Y-41.54
X146.02Y-44.08
X146.02Y-46.62
X146.02Y-49.16
X146.02Y-51.7
X146.02Y-54.24
X146.02Y-56.78
X146.02Y-59.32
X146.02Y-61.86
X146.02Y-64.4
X146.02Y-66.94
X146.02Y-69.48
X146.02Y-72.02
X146.02Y-74.56
X146.02Y-77.1
X146.02Y-79.64
X146.02Y-82.18
X146.02Y-84.72
X146.02Y-87.26
X204.44Y-41.54
X204.44Y-44.08
X204.44Y-46.62
X204.44Y-49.16
X204.44Y-51.7
X204.44Y-54.24
X204.44Y-56.78
X204.44Y-59.32
X204.44Y-61.86
X204.44Y-64.4
X204.44Y-66.94
X204.44Y-69.48
X204.44Y-72.02
X204.44Y-74.56
X204.44Y-77.1
X204.44Y-79.64
X204.44Y-82.18
X204.44Y-84.72
X204.44Y-87.26
X206.98Y-41.54
X206.98Y-44.08
X206.98Y-46.62
X206.98Y-49.16
X206.98Y-51.7
X206.98Y-54.24
X206.98Y-56.78
X206.98Y-59.32
X206.98Y-61.86
X206.98Y-64.4
X206.98Y-66.94
X206.98Y-69.48
X206.98Y-72.02
X206.98Y-74.56
X206.98Y-77.1
X206.98Y-79.64
X206.98Y-82.18
X206.98Y-84.72
X206.98Y-87.26
T8
X151.1Y-41.54
X151.1Y-44.08
X151.1Y-46.62
X151.1Y-49.16
X151.1Y-51.7
X151.1Y-54.24
X151.1Y-56.78
X151.1Y-59.32
X151.1Y-63.38
X151.1Y-65.92
X151.1Y-68.46
X151.1Y-71.0
X151.1Y-73.54
X151.1Y-76.08
X151.1Y-78.62
X151.1Y-81.16
X151.1Y-83.7
X151.1Y-86.24
X199.36Y-41.54
X199.36Y-44.08
X199.36Y-46.62
X199.36Y-49.16
X199.36Y-51.7
X199.36Y-54.24
X199.36Y-59.32
X199.36Y-61.86
X199.36Y-64.4
X199.36Y-66.94
X199.36Y-69.48
X199.36Y-72.02
X199.36Y-74.56
X199.36Y-77.1
T9
X70.0Y-50.0
X77.2Y-50.0
X121.0Y-50.0
X128.2Y-50.0
M30
