%TF.GenerationSoftware,KiCad,Pcbnew,9.0.4*%
%TF.CreationDate,2026-01-11T11:57:00-08:00*%
%TF.ProjectId,Joule Meter,4a6f756c-6520-44d6-9574-65722e6b6963,12/15/2025*%
%TF.SameCoordinates,Original*%
%TF.FileFunction,Drillmap*%
%TF.FilePolarity,Positive*%
%FSLAX45Y45*%
G04 Gerber Fmt 4.5, Leading zero omitted, Abs format (unit mm)*
G04 Created by KiCad (PCBNEW 9.0.4) date 2026-01-11 11:57:00*
%MOMM*%
%LPD*%
G01*
G04 APERTURE LIST*
%ADD10C,0.050000*%
%ADD11C,0.200000*%
%ADD12C,0.300000*%
G04 APERTURE END LIST*
D10*
X6300000Y-3100000D02*
X21685000Y-3100000D01*
X21685000Y-12600000D01*
X6300000Y-12600000D01*
X6300000Y-3100000D01*
D11*
X6600000Y-3400000D02*
X6800000Y-3600000D01*
X6800000Y-3400000D02*
X6600000Y-3600000D01*
X6600000Y-12100000D02*
X6800000Y-12300000D01*
X6800000Y-12100000D02*
X6600000Y-12300000D01*
X21200000Y-3400000D02*
X21400000Y-3600000D01*
X21400000Y-3400000D02*
X21200000Y-3600000D01*
X21200000Y-12100000D02*
X21400000Y-12300000D01*
X21400000Y-12100000D02*
X21200000Y-12300000D01*
D12*
X15260000Y-8980000D02*
G75*
G02*
X14960000Y-8980000I-150000J0D01*
G01*
X14960000Y-8980000D02*
G75*
G02*
X15260000Y-8980000I150000J0D01*
G01*
X16784000Y-3900000D02*
G75*
G02*
X16484000Y-3900000I-150000J0D01*
G01*
X16484000Y-3900000D02*
G75*
G02*
X16784000Y-3900000I150000J0D01*
G01*
X20086000Y-9107000D02*
G75*
G02*
X19786000Y-9107000I-150000J0D01*
G01*
X19786000Y-9107000D02*
G75*
G02*
X20086000Y-9107000I150000J0D01*
G01*
D11*
X6558277Y-12913984D02*
X6558277Y-12713984D01*
X6558277Y-12713984D02*
X6605896Y-12713984D01*
X6605896Y-12713984D02*
X6634467Y-12723508D01*
X6634467Y-12723508D02*
X6653515Y-12742555D01*
X6653515Y-12742555D02*
X6663039Y-12761603D01*
X6663039Y-12761603D02*
X6672562Y-12799698D01*
X6672562Y-12799698D02*
X6672562Y-12828269D01*
X6672562Y-12828269D02*
X6663039Y-12866365D01*
X6663039Y-12866365D02*
X6653515Y-12885412D01*
X6653515Y-12885412D02*
X6634467Y-12904460D01*
X6634467Y-12904460D02*
X6605896Y-12913984D01*
X6605896Y-12913984D02*
X6558277Y-12913984D01*
X6758277Y-12913984D02*
X6758277Y-12780650D01*
X6758277Y-12818746D02*
X6767801Y-12799698D01*
X6767801Y-12799698D02*
X6777324Y-12790174D01*
X6777324Y-12790174D02*
X6796372Y-12780650D01*
X6796372Y-12780650D02*
X6815420Y-12780650D01*
X6882086Y-12913984D02*
X6882086Y-12780650D01*
X6882086Y-12713984D02*
X6872562Y-12723508D01*
X6872562Y-12723508D02*
X6882086Y-12733031D01*
X6882086Y-12733031D02*
X6891610Y-12723508D01*
X6891610Y-12723508D02*
X6882086Y-12713984D01*
X6882086Y-12713984D02*
X6882086Y-12733031D01*
X7005896Y-12913984D02*
X6986848Y-12904460D01*
X6986848Y-12904460D02*
X6977324Y-12885412D01*
X6977324Y-12885412D02*
X6977324Y-12713984D01*
X7110658Y-12913984D02*
X7091610Y-12904460D01*
X7091610Y-12904460D02*
X7082086Y-12885412D01*
X7082086Y-12885412D02*
X7082086Y-12713984D01*
X7339229Y-12913984D02*
X7339229Y-12713984D01*
X7339229Y-12713984D02*
X7405896Y-12856841D01*
X7405896Y-12856841D02*
X7472562Y-12713984D01*
X7472562Y-12713984D02*
X7472562Y-12913984D01*
X7653515Y-12913984D02*
X7653515Y-12809222D01*
X7653515Y-12809222D02*
X7643991Y-12790174D01*
X7643991Y-12790174D02*
X7624943Y-12780650D01*
X7624943Y-12780650D02*
X7586848Y-12780650D01*
X7586848Y-12780650D02*
X7567801Y-12790174D01*
X7653515Y-12904460D02*
X7634467Y-12913984D01*
X7634467Y-12913984D02*
X7586848Y-12913984D01*
X7586848Y-12913984D02*
X7567801Y-12904460D01*
X7567801Y-12904460D02*
X7558277Y-12885412D01*
X7558277Y-12885412D02*
X7558277Y-12866365D01*
X7558277Y-12866365D02*
X7567801Y-12847317D01*
X7567801Y-12847317D02*
X7586848Y-12837793D01*
X7586848Y-12837793D02*
X7634467Y-12837793D01*
X7634467Y-12837793D02*
X7653515Y-12828269D01*
X7748753Y-12780650D02*
X7748753Y-12980650D01*
X7748753Y-12790174D02*
X7767801Y-12780650D01*
X7767801Y-12780650D02*
X7805896Y-12780650D01*
X7805896Y-12780650D02*
X7824943Y-12790174D01*
X7824943Y-12790174D02*
X7834467Y-12799698D01*
X7834467Y-12799698D02*
X7843991Y-12818746D01*
X7843991Y-12818746D02*
X7843991Y-12875888D01*
X7843991Y-12875888D02*
X7834467Y-12894936D01*
X7834467Y-12894936D02*
X7824943Y-12904460D01*
X7824943Y-12904460D02*
X7805896Y-12913984D01*
X7805896Y-12913984D02*
X7767801Y-12913984D01*
X7767801Y-12913984D02*
X7748753Y-12904460D01*
X7929705Y-12894936D02*
X7939229Y-12904460D01*
X7939229Y-12904460D02*
X7929705Y-12913984D01*
X7929705Y-12913984D02*
X7920182Y-12904460D01*
X7920182Y-12904460D02*
X7929705Y-12894936D01*
X7929705Y-12894936D02*
X7929705Y-12913984D01*
X7929705Y-12790174D02*
X7939229Y-12799698D01*
X7939229Y-12799698D02*
X7929705Y-12809222D01*
X7929705Y-12809222D02*
X7920182Y-12799698D01*
X7920182Y-12799698D02*
X7929705Y-12790174D01*
X7929705Y-12790174D02*
X7929705Y-12809222D01*
X6097500Y-13142500D02*
X6297500Y-13342500D01*
X6297500Y-13142500D02*
X6097500Y-13342500D01*
X6548753Y-13153031D02*
X6558277Y-13143508D01*
X6558277Y-13143508D02*
X6577324Y-13133984D01*
X6577324Y-13133984D02*
X6624943Y-13133984D01*
X6624943Y-13133984D02*
X6643991Y-13143508D01*
X6643991Y-13143508D02*
X6653515Y-13153031D01*
X6653515Y-13153031D02*
X6663039Y-13172079D01*
X6663039Y-13172079D02*
X6663039Y-13191127D01*
X6663039Y-13191127D02*
X6653515Y-13219698D01*
X6653515Y-13219698D02*
X6539229Y-13333984D01*
X6539229Y-13333984D02*
X6663039Y-13333984D01*
X6748753Y-13314936D02*
X6758277Y-13324460D01*
X6758277Y-13324460D02*
X6748753Y-13333984D01*
X6748753Y-13333984D02*
X6739229Y-13324460D01*
X6739229Y-13324460D02*
X6748753Y-13314936D01*
X6748753Y-13314936D02*
X6748753Y-13333984D01*
X6882086Y-13133984D02*
X6901134Y-13133984D01*
X6901134Y-13133984D02*
X6920182Y-13143508D01*
X6920182Y-13143508D02*
X6929705Y-13153031D01*
X6929705Y-13153031D02*
X6939229Y-13172079D01*
X6939229Y-13172079D02*
X6948753Y-13210174D01*
X6948753Y-13210174D02*
X6948753Y-13257793D01*
X6948753Y-13257793D02*
X6939229Y-13295888D01*
X6939229Y-13295888D02*
X6929705Y-13314936D01*
X6929705Y-13314936D02*
X6920182Y-13324460D01*
X6920182Y-13324460D02*
X6901134Y-13333984D01*
X6901134Y-13333984D02*
X6882086Y-13333984D01*
X6882086Y-13333984D02*
X6863039Y-13324460D01*
X6863039Y-13324460D02*
X6853515Y-13314936D01*
X6853515Y-13314936D02*
X6843991Y-13295888D01*
X6843991Y-13295888D02*
X6834467Y-13257793D01*
X6834467Y-13257793D02*
X6834467Y-13210174D01*
X6834467Y-13210174D02*
X6843991Y-13172079D01*
X6843991Y-13172079D02*
X6853515Y-13153031D01*
X6853515Y-13153031D02*
X6863039Y-13143508D01*
X6863039Y-13143508D02*
X6882086Y-13133984D01*
X7072562Y-13133984D02*
X7091610Y-13133984D01*
X7091610Y-13133984D02*
X7110658Y-13143508D01*
X7110658Y-13143508D02*
X7120182Y-13153031D01*
X7120182Y-13153031D02*
X7129705Y-13172079D01*
X7129705Y-13172079D02*
X7139229Y-13210174D01*
X7139229Y-13210174D02*
X7139229Y-13257793D01*
X7139229Y-13257793D02*
X7129705Y-13295888D01*
X7129705Y-13295888D02*
X7120182Y-13314936D01*
X7120182Y-13314936D02*
X7110658Y-13324460D01*
X7110658Y-13324460D02*
X7091610Y-13333984D01*
X7091610Y-13333984D02*
X7072562Y-13333984D01*
X7072562Y-13333984D02*
X7053515Y-13324460D01*
X7053515Y-13324460D02*
X7043991Y-13314936D01*
X7043991Y-13314936D02*
X7034467Y-13295888D01*
X7034467Y-13295888D02*
X7024943Y-13257793D01*
X7024943Y-13257793D02*
X7024943Y-13210174D01*
X7024943Y-13210174D02*
X7034467Y-13172079D01*
X7034467Y-13172079D02*
X7043991Y-13153031D01*
X7043991Y-13153031D02*
X7053515Y-13143508D01*
X7053515Y-13143508D02*
X7072562Y-13133984D01*
X7263039Y-13133984D02*
X7282086Y-13133984D01*
X7282086Y-13133984D02*
X7301134Y-13143508D01*
X7301134Y-13143508D02*
X7310658Y-13153031D01*
X7310658Y-13153031D02*
X7320182Y-13172079D01*
X7320182Y-13172079D02*
X7329705Y-13210174D01*
X7329705Y-13210174D02*
X7329705Y-13257793D01*
X7329705Y-13257793D02*
X7320182Y-13295888D01*
X7320182Y-13295888D02*
X7310658Y-13314936D01*
X7310658Y-13314936D02*
X7301134Y-13324460D01*
X7301134Y-13324460D02*
X7282086Y-13333984D01*
X7282086Y-13333984D02*
X7263039Y-13333984D01*
X7263039Y-13333984D02*
X7243991Y-13324460D01*
X7243991Y-13324460D02*
X7234467Y-13314936D01*
X7234467Y-13314936D02*
X7224943Y-13295888D01*
X7224943Y-13295888D02*
X7215420Y-13257793D01*
X7215420Y-13257793D02*
X7215420Y-13210174D01*
X7215420Y-13210174D02*
X7224943Y-13172079D01*
X7224943Y-13172079D02*
X7234467Y-13153031D01*
X7234467Y-13153031D02*
X7243991Y-13143508D01*
X7243991Y-13143508D02*
X7263039Y-13133984D01*
X7415420Y-13333984D02*
X7415420Y-13200650D01*
X7415420Y-13219698D02*
X7424943Y-13210174D01*
X7424943Y-13210174D02*
X7443991Y-13200650D01*
X7443991Y-13200650D02*
X7472563Y-13200650D01*
X7472563Y-13200650D02*
X7491610Y-13210174D01*
X7491610Y-13210174D02*
X7501134Y-13229222D01*
X7501134Y-13229222D02*
X7501134Y-13333984D01*
X7501134Y-13229222D02*
X7510658Y-13210174D01*
X7510658Y-13210174D02*
X7529705Y-13200650D01*
X7529705Y-13200650D02*
X7558277Y-13200650D01*
X7558277Y-13200650D02*
X7577324Y-13210174D01*
X7577324Y-13210174D02*
X7586848Y-13229222D01*
X7586848Y-13229222D02*
X7586848Y-13333984D01*
X7682086Y-13333984D02*
X7682086Y-13200650D01*
X7682086Y-13219698D02*
X7691610Y-13210174D01*
X7691610Y-13210174D02*
X7710658Y-13200650D01*
X7710658Y-13200650D02*
X7739229Y-13200650D01*
X7739229Y-13200650D02*
X7758277Y-13210174D01*
X7758277Y-13210174D02*
X7767801Y-13229222D01*
X7767801Y-13229222D02*
X7767801Y-13333984D01*
X7767801Y-13229222D02*
X7777324Y-13210174D01*
X7777324Y-13210174D02*
X7796372Y-13200650D01*
X7796372Y-13200650D02*
X7824943Y-13200650D01*
X7824943Y-13200650D02*
X7843991Y-13210174D01*
X7843991Y-13210174D02*
X7853515Y-13229222D01*
X7853515Y-13229222D02*
X7853515Y-13333984D01*
X8243991Y-13124460D02*
X8072563Y-13381603D01*
X8501134Y-13133984D02*
X8520182Y-13133984D01*
X8520182Y-13133984D02*
X8539229Y-13143508D01*
X8539229Y-13143508D02*
X8548753Y-13153031D01*
X8548753Y-13153031D02*
X8558277Y-13172079D01*
X8558277Y-13172079D02*
X8567801Y-13210174D01*
X8567801Y-13210174D02*
X8567801Y-13257793D01*
X8567801Y-13257793D02*
X8558277Y-13295888D01*
X8558277Y-13295888D02*
X8548753Y-13314936D01*
X8548753Y-13314936D02*
X8539229Y-13324460D01*
X8539229Y-13324460D02*
X8520182Y-13333984D01*
X8520182Y-13333984D02*
X8501134Y-13333984D01*
X8501134Y-13333984D02*
X8482087Y-13324460D01*
X8482087Y-13324460D02*
X8472563Y-13314936D01*
X8472563Y-13314936D02*
X8463039Y-13295888D01*
X8463039Y-13295888D02*
X8453515Y-13257793D01*
X8453515Y-13257793D02*
X8453515Y-13210174D01*
X8453515Y-13210174D02*
X8463039Y-13172079D01*
X8463039Y-13172079D02*
X8472563Y-13153031D01*
X8472563Y-13153031D02*
X8482087Y-13143508D01*
X8482087Y-13143508D02*
X8501134Y-13133984D01*
X8653515Y-13314936D02*
X8663039Y-13324460D01*
X8663039Y-13324460D02*
X8653515Y-13333984D01*
X8653515Y-13333984D02*
X8643991Y-13324460D01*
X8643991Y-13324460D02*
X8653515Y-13314936D01*
X8653515Y-13314936D02*
X8653515Y-13333984D01*
X8786848Y-13133984D02*
X8805896Y-13133984D01*
X8805896Y-13133984D02*
X8824944Y-13143508D01*
X8824944Y-13143508D02*
X8834468Y-13153031D01*
X8834468Y-13153031D02*
X8843991Y-13172079D01*
X8843991Y-13172079D02*
X8853515Y-13210174D01*
X8853515Y-13210174D02*
X8853515Y-13257793D01*
X8853515Y-13257793D02*
X8843991Y-13295888D01*
X8843991Y-13295888D02*
X8834468Y-13314936D01*
X8834468Y-13314936D02*
X8824944Y-13324460D01*
X8824944Y-13324460D02*
X8805896Y-13333984D01*
X8805896Y-13333984D02*
X8786848Y-13333984D01*
X8786848Y-13333984D02*
X8767801Y-13324460D01*
X8767801Y-13324460D02*
X8758277Y-13314936D01*
X8758277Y-13314936D02*
X8748753Y-13295888D01*
X8748753Y-13295888D02*
X8739229Y-13257793D01*
X8739229Y-13257793D02*
X8739229Y-13210174D01*
X8739229Y-13210174D02*
X8748753Y-13172079D01*
X8748753Y-13172079D02*
X8758277Y-13153031D01*
X8758277Y-13153031D02*
X8767801Y-13143508D01*
X8767801Y-13143508D02*
X8786848Y-13133984D01*
X8920182Y-13133984D02*
X9053515Y-13133984D01*
X9053515Y-13133984D02*
X8967801Y-13333984D01*
X9158277Y-13219698D02*
X9139229Y-13210174D01*
X9139229Y-13210174D02*
X9129706Y-13200650D01*
X9129706Y-13200650D02*
X9120182Y-13181603D01*
X9120182Y-13181603D02*
X9120182Y-13172079D01*
X9120182Y-13172079D02*
X9129706Y-13153031D01*
X9129706Y-13153031D02*
X9139229Y-13143508D01*
X9139229Y-13143508D02*
X9158277Y-13133984D01*
X9158277Y-13133984D02*
X9196372Y-13133984D01*
X9196372Y-13133984D02*
X9215420Y-13143508D01*
X9215420Y-13143508D02*
X9224944Y-13153031D01*
X9224944Y-13153031D02*
X9234468Y-13172079D01*
X9234468Y-13172079D02*
X9234468Y-13181603D01*
X9234468Y-13181603D02*
X9224944Y-13200650D01*
X9224944Y-13200650D02*
X9215420Y-13210174D01*
X9215420Y-13210174D02*
X9196372Y-13219698D01*
X9196372Y-13219698D02*
X9158277Y-13219698D01*
X9158277Y-13219698D02*
X9139229Y-13229222D01*
X9139229Y-13229222D02*
X9129706Y-13238746D01*
X9129706Y-13238746D02*
X9120182Y-13257793D01*
X9120182Y-13257793D02*
X9120182Y-13295888D01*
X9120182Y-13295888D02*
X9129706Y-13314936D01*
X9129706Y-13314936D02*
X9139229Y-13324460D01*
X9139229Y-13324460D02*
X9158277Y-13333984D01*
X9158277Y-13333984D02*
X9196372Y-13333984D01*
X9196372Y-13333984D02*
X9215420Y-13324460D01*
X9215420Y-13324460D02*
X9224944Y-13314936D01*
X9224944Y-13314936D02*
X9234468Y-13295888D01*
X9234468Y-13295888D02*
X9234468Y-13257793D01*
X9234468Y-13257793D02*
X9224944Y-13238746D01*
X9224944Y-13238746D02*
X9215420Y-13229222D01*
X9215420Y-13229222D02*
X9196372Y-13219698D01*
X9301134Y-13133984D02*
X9434468Y-13133984D01*
X9434468Y-13133984D02*
X9348753Y-13333984D01*
X9501134Y-13133984D02*
X9501134Y-13172079D01*
X9577325Y-13133984D02*
X9577325Y-13172079D01*
X9872563Y-13410174D02*
X9863039Y-13400650D01*
X9863039Y-13400650D02*
X9843991Y-13372079D01*
X9843991Y-13372079D02*
X9834468Y-13353031D01*
X9834468Y-13353031D02*
X9824944Y-13324460D01*
X9824944Y-13324460D02*
X9815420Y-13276841D01*
X9815420Y-13276841D02*
X9815420Y-13238746D01*
X9815420Y-13238746D02*
X9824944Y-13191127D01*
X9824944Y-13191127D02*
X9834468Y-13162555D01*
X9834468Y-13162555D02*
X9843991Y-13143508D01*
X9843991Y-13143508D02*
X9863039Y-13114936D01*
X9863039Y-13114936D02*
X9872563Y-13105412D01*
X10034468Y-13200650D02*
X10034468Y-13333984D01*
X9986849Y-13124460D02*
X9939230Y-13267317D01*
X9939230Y-13267317D02*
X10063039Y-13267317D01*
X10291611Y-13333984D02*
X10291611Y-13133984D01*
X10377325Y-13333984D02*
X10377325Y-13229222D01*
X10377325Y-13229222D02*
X10367801Y-13210174D01*
X10367801Y-13210174D02*
X10348753Y-13200650D01*
X10348753Y-13200650D02*
X10320182Y-13200650D01*
X10320182Y-13200650D02*
X10301134Y-13210174D01*
X10301134Y-13210174D02*
X10291611Y-13219698D01*
X10501134Y-13333984D02*
X10482087Y-13324460D01*
X10482087Y-13324460D02*
X10472563Y-13314936D01*
X10472563Y-13314936D02*
X10463039Y-13295888D01*
X10463039Y-13295888D02*
X10463039Y-13238746D01*
X10463039Y-13238746D02*
X10472563Y-13219698D01*
X10472563Y-13219698D02*
X10482087Y-13210174D01*
X10482087Y-13210174D02*
X10501134Y-13200650D01*
X10501134Y-13200650D02*
X10529706Y-13200650D01*
X10529706Y-13200650D02*
X10548753Y-13210174D01*
X10548753Y-13210174D02*
X10558277Y-13219698D01*
X10558277Y-13219698D02*
X10567801Y-13238746D01*
X10567801Y-13238746D02*
X10567801Y-13295888D01*
X10567801Y-13295888D02*
X10558277Y-13314936D01*
X10558277Y-13314936D02*
X10548753Y-13324460D01*
X10548753Y-13324460D02*
X10529706Y-13333984D01*
X10529706Y-13333984D02*
X10501134Y-13333984D01*
X10682087Y-13333984D02*
X10663039Y-13324460D01*
X10663039Y-13324460D02*
X10653515Y-13305412D01*
X10653515Y-13305412D02*
X10653515Y-13133984D01*
X10834468Y-13324460D02*
X10815420Y-13333984D01*
X10815420Y-13333984D02*
X10777325Y-13333984D01*
X10777325Y-13333984D02*
X10758277Y-13324460D01*
X10758277Y-13324460D02*
X10748753Y-13305412D01*
X10748753Y-13305412D02*
X10748753Y-13229222D01*
X10748753Y-13229222D02*
X10758277Y-13210174D01*
X10758277Y-13210174D02*
X10777325Y-13200650D01*
X10777325Y-13200650D02*
X10815420Y-13200650D01*
X10815420Y-13200650D02*
X10834468Y-13210174D01*
X10834468Y-13210174D02*
X10843992Y-13229222D01*
X10843992Y-13229222D02*
X10843992Y-13248269D01*
X10843992Y-13248269D02*
X10748753Y-13267317D01*
X10920182Y-13324460D02*
X10939230Y-13333984D01*
X10939230Y-13333984D02*
X10977325Y-13333984D01*
X10977325Y-13333984D02*
X10996373Y-13324460D01*
X10996373Y-13324460D02*
X11005896Y-13305412D01*
X11005896Y-13305412D02*
X11005896Y-13295888D01*
X11005896Y-13295888D02*
X10996373Y-13276841D01*
X10996373Y-13276841D02*
X10977325Y-13267317D01*
X10977325Y-13267317D02*
X10948753Y-13267317D01*
X10948753Y-13267317D02*
X10929706Y-13257793D01*
X10929706Y-13257793D02*
X10920182Y-13238746D01*
X10920182Y-13238746D02*
X10920182Y-13229222D01*
X10920182Y-13229222D02*
X10929706Y-13210174D01*
X10929706Y-13210174D02*
X10948753Y-13200650D01*
X10948753Y-13200650D02*
X10977325Y-13200650D01*
X10977325Y-13200650D02*
X10996373Y-13210174D01*
X11072563Y-13410174D02*
X11082087Y-13400650D01*
X11082087Y-13400650D02*
X11101134Y-13372079D01*
X11101134Y-13372079D02*
X11110658Y-13353031D01*
X11110658Y-13353031D02*
X11120182Y-13324460D01*
X11120182Y-13324460D02*
X11129706Y-13276841D01*
X11129706Y-13276841D02*
X11129706Y-13238746D01*
X11129706Y-13238746D02*
X11120182Y-13191127D01*
X11120182Y-13191127D02*
X11110658Y-13162555D01*
X11110658Y-13162555D02*
X11101134Y-13143508D01*
X11101134Y-13143508D02*
X11082087Y-13114936D01*
X11082087Y-13114936D02*
X11072563Y-13105412D01*
X11434468Y-13410174D02*
X11424944Y-13400650D01*
X11424944Y-13400650D02*
X11405896Y-13372079D01*
X11405896Y-13372079D02*
X11396372Y-13353031D01*
X11396372Y-13353031D02*
X11386849Y-13324460D01*
X11386849Y-13324460D02*
X11377325Y-13276841D01*
X11377325Y-13276841D02*
X11377325Y-13238746D01*
X11377325Y-13238746D02*
X11386849Y-13191127D01*
X11386849Y-13191127D02*
X11396372Y-13162555D01*
X11396372Y-13162555D02*
X11405896Y-13143508D01*
X11405896Y-13143508D02*
X11424944Y-13114936D01*
X11424944Y-13114936D02*
X11434468Y-13105412D01*
X11510658Y-13200650D02*
X11510658Y-13333984D01*
X11510658Y-13219698D02*
X11520182Y-13210174D01*
X11520182Y-13210174D02*
X11539230Y-13200650D01*
X11539230Y-13200650D02*
X11567801Y-13200650D01*
X11567801Y-13200650D02*
X11586849Y-13210174D01*
X11586849Y-13210174D02*
X11596372Y-13229222D01*
X11596372Y-13229222D02*
X11596372Y-13333984D01*
X11720182Y-13333984D02*
X11701134Y-13324460D01*
X11701134Y-13324460D02*
X11691611Y-13314936D01*
X11691611Y-13314936D02*
X11682087Y-13295888D01*
X11682087Y-13295888D02*
X11682087Y-13238746D01*
X11682087Y-13238746D02*
X11691611Y-13219698D01*
X11691611Y-13219698D02*
X11701134Y-13210174D01*
X11701134Y-13210174D02*
X11720182Y-13200650D01*
X11720182Y-13200650D02*
X11748753Y-13200650D01*
X11748753Y-13200650D02*
X11767801Y-13210174D01*
X11767801Y-13210174D02*
X11777325Y-13219698D01*
X11777325Y-13219698D02*
X11786849Y-13238746D01*
X11786849Y-13238746D02*
X11786849Y-13295888D01*
X11786849Y-13295888D02*
X11777325Y-13314936D01*
X11777325Y-13314936D02*
X11767801Y-13324460D01*
X11767801Y-13324460D02*
X11748753Y-13333984D01*
X11748753Y-13333984D02*
X11720182Y-13333984D01*
X11843992Y-13200650D02*
X11920182Y-13200650D01*
X11872563Y-13133984D02*
X11872563Y-13305412D01*
X11872563Y-13305412D02*
X11882087Y-13324460D01*
X11882087Y-13324460D02*
X11901134Y-13333984D01*
X11901134Y-13333984D02*
X11920182Y-13333984D01*
X12139230Y-13200650D02*
X12139230Y-13400650D01*
X12139230Y-13210174D02*
X12158277Y-13200650D01*
X12158277Y-13200650D02*
X12196373Y-13200650D01*
X12196373Y-13200650D02*
X12215420Y-13210174D01*
X12215420Y-13210174D02*
X12224944Y-13219698D01*
X12224944Y-13219698D02*
X12234468Y-13238746D01*
X12234468Y-13238746D02*
X12234468Y-13295888D01*
X12234468Y-13295888D02*
X12224944Y-13314936D01*
X12224944Y-13314936D02*
X12215420Y-13324460D01*
X12215420Y-13324460D02*
X12196373Y-13333984D01*
X12196373Y-13333984D02*
X12158277Y-13333984D01*
X12158277Y-13333984D02*
X12139230Y-13324460D01*
X12348753Y-13333984D02*
X12329706Y-13324460D01*
X12329706Y-13324460D02*
X12320182Y-13305412D01*
X12320182Y-13305412D02*
X12320182Y-13133984D01*
X12510658Y-13333984D02*
X12510658Y-13229222D01*
X12510658Y-13229222D02*
X12501134Y-13210174D01*
X12501134Y-13210174D02*
X12482087Y-13200650D01*
X12482087Y-13200650D02*
X12443992Y-13200650D01*
X12443992Y-13200650D02*
X12424944Y-13210174D01*
X12510658Y-13324460D02*
X12491611Y-13333984D01*
X12491611Y-13333984D02*
X12443992Y-13333984D01*
X12443992Y-13333984D02*
X12424944Y-13324460D01*
X12424944Y-13324460D02*
X12415420Y-13305412D01*
X12415420Y-13305412D02*
X12415420Y-13286365D01*
X12415420Y-13286365D02*
X12424944Y-13267317D01*
X12424944Y-13267317D02*
X12443992Y-13257793D01*
X12443992Y-13257793D02*
X12491611Y-13257793D01*
X12491611Y-13257793D02*
X12510658Y-13248269D01*
X12577325Y-13200650D02*
X12653515Y-13200650D01*
X12605896Y-13133984D02*
X12605896Y-13305412D01*
X12605896Y-13305412D02*
X12615420Y-13324460D01*
X12615420Y-13324460D02*
X12634468Y-13333984D01*
X12634468Y-13333984D02*
X12653515Y-13333984D01*
X12796373Y-13324460D02*
X12777325Y-13333984D01*
X12777325Y-13333984D02*
X12739230Y-13333984D01*
X12739230Y-13333984D02*
X12720182Y-13324460D01*
X12720182Y-13324460D02*
X12710658Y-13305412D01*
X12710658Y-13305412D02*
X12710658Y-13229222D01*
X12710658Y-13229222D02*
X12720182Y-13210174D01*
X12720182Y-13210174D02*
X12739230Y-13200650D01*
X12739230Y-13200650D02*
X12777325Y-13200650D01*
X12777325Y-13200650D02*
X12796373Y-13210174D01*
X12796373Y-13210174D02*
X12805896Y-13229222D01*
X12805896Y-13229222D02*
X12805896Y-13248269D01*
X12805896Y-13248269D02*
X12710658Y-13267317D01*
X12977325Y-13333984D02*
X12977325Y-13133984D01*
X12977325Y-13324460D02*
X12958277Y-13333984D01*
X12958277Y-13333984D02*
X12920182Y-13333984D01*
X12920182Y-13333984D02*
X12901134Y-13324460D01*
X12901134Y-13324460D02*
X12891611Y-13314936D01*
X12891611Y-13314936D02*
X12882087Y-13295888D01*
X12882087Y-13295888D02*
X12882087Y-13238746D01*
X12882087Y-13238746D02*
X12891611Y-13219698D01*
X12891611Y-13219698D02*
X12901134Y-13210174D01*
X12901134Y-13210174D02*
X12920182Y-13200650D01*
X12920182Y-13200650D02*
X12958277Y-13200650D01*
X12958277Y-13200650D02*
X12977325Y-13210174D01*
X13053515Y-13410174D02*
X13063039Y-13400650D01*
X13063039Y-13400650D02*
X13082087Y-13372079D01*
X13082087Y-13372079D02*
X13091611Y-13353031D01*
X13091611Y-13353031D02*
X13101134Y-13324460D01*
X13101134Y-13324460D02*
X13110658Y-13276841D01*
X13110658Y-13276841D02*
X13110658Y-13238746D01*
X13110658Y-13238746D02*
X13101134Y-13191127D01*
X13101134Y-13191127D02*
X13091611Y-13162555D01*
X13091611Y-13162555D02*
X13082087Y-13143508D01*
X13082087Y-13143508D02*
X13063039Y-13114936D01*
X13063039Y-13114936D02*
X13053515Y-13105412D01*
X6297500Y-13562500D02*
G75*
G02*
X6097500Y-13562500I-100000J0D01*
G01*
X6097500Y-13562500D02*
G75*
G02*
X6297500Y-13562500I100000J0D01*
G01*
X6539229Y-13453984D02*
X6663039Y-13453984D01*
X6663039Y-13453984D02*
X6596372Y-13530174D01*
X6596372Y-13530174D02*
X6624943Y-13530174D01*
X6624943Y-13530174D02*
X6643991Y-13539698D01*
X6643991Y-13539698D02*
X6653515Y-13549222D01*
X6653515Y-13549222D02*
X6663039Y-13568269D01*
X6663039Y-13568269D02*
X6663039Y-13615888D01*
X6663039Y-13615888D02*
X6653515Y-13634936D01*
X6653515Y-13634936D02*
X6643991Y-13644460D01*
X6643991Y-13644460D02*
X6624943Y-13653984D01*
X6624943Y-13653984D02*
X6567801Y-13653984D01*
X6567801Y-13653984D02*
X6548753Y-13644460D01*
X6548753Y-13644460D02*
X6539229Y-13634936D01*
X6748753Y-13634936D02*
X6758277Y-13644460D01*
X6758277Y-13644460D02*
X6748753Y-13653984D01*
X6748753Y-13653984D02*
X6739229Y-13644460D01*
X6739229Y-13644460D02*
X6748753Y-13634936D01*
X6748753Y-13634936D02*
X6748753Y-13653984D01*
X6882086Y-13453984D02*
X6901134Y-13453984D01*
X6901134Y-13453984D02*
X6920182Y-13463508D01*
X6920182Y-13463508D02*
X6929705Y-13473031D01*
X6929705Y-13473031D02*
X6939229Y-13492079D01*
X6939229Y-13492079D02*
X6948753Y-13530174D01*
X6948753Y-13530174D02*
X6948753Y-13577793D01*
X6948753Y-13577793D02*
X6939229Y-13615888D01*
X6939229Y-13615888D02*
X6929705Y-13634936D01*
X6929705Y-13634936D02*
X6920182Y-13644460D01*
X6920182Y-13644460D02*
X6901134Y-13653984D01*
X6901134Y-13653984D02*
X6882086Y-13653984D01*
X6882086Y-13653984D02*
X6863039Y-13644460D01*
X6863039Y-13644460D02*
X6853515Y-13634936D01*
X6853515Y-13634936D02*
X6843991Y-13615888D01*
X6843991Y-13615888D02*
X6834467Y-13577793D01*
X6834467Y-13577793D02*
X6834467Y-13530174D01*
X6834467Y-13530174D02*
X6843991Y-13492079D01*
X6843991Y-13492079D02*
X6853515Y-13473031D01*
X6853515Y-13473031D02*
X6863039Y-13463508D01*
X6863039Y-13463508D02*
X6882086Y-13453984D01*
X7072562Y-13453984D02*
X7091610Y-13453984D01*
X7091610Y-13453984D02*
X7110658Y-13463508D01*
X7110658Y-13463508D02*
X7120182Y-13473031D01*
X7120182Y-13473031D02*
X7129705Y-13492079D01*
X7129705Y-13492079D02*
X7139229Y-13530174D01*
X7139229Y-13530174D02*
X7139229Y-13577793D01*
X7139229Y-13577793D02*
X7129705Y-13615888D01*
X7129705Y-13615888D02*
X7120182Y-13634936D01*
X7120182Y-13634936D02*
X7110658Y-13644460D01*
X7110658Y-13644460D02*
X7091610Y-13653984D01*
X7091610Y-13653984D02*
X7072562Y-13653984D01*
X7072562Y-13653984D02*
X7053515Y-13644460D01*
X7053515Y-13644460D02*
X7043991Y-13634936D01*
X7043991Y-13634936D02*
X7034467Y-13615888D01*
X7034467Y-13615888D02*
X7024943Y-13577793D01*
X7024943Y-13577793D02*
X7024943Y-13530174D01*
X7024943Y-13530174D02*
X7034467Y-13492079D01*
X7034467Y-13492079D02*
X7043991Y-13473031D01*
X7043991Y-13473031D02*
X7053515Y-13463508D01*
X7053515Y-13463508D02*
X7072562Y-13453984D01*
X7263039Y-13453984D02*
X7282086Y-13453984D01*
X7282086Y-13453984D02*
X7301134Y-13463508D01*
X7301134Y-13463508D02*
X7310658Y-13473031D01*
X7310658Y-13473031D02*
X7320182Y-13492079D01*
X7320182Y-13492079D02*
X7329705Y-13530174D01*
X7329705Y-13530174D02*
X7329705Y-13577793D01*
X7329705Y-13577793D02*
X7320182Y-13615888D01*
X7320182Y-13615888D02*
X7310658Y-13634936D01*
X7310658Y-13634936D02*
X7301134Y-13644460D01*
X7301134Y-13644460D02*
X7282086Y-13653984D01*
X7282086Y-13653984D02*
X7263039Y-13653984D01*
X7263039Y-13653984D02*
X7243991Y-13644460D01*
X7243991Y-13644460D02*
X7234467Y-13634936D01*
X7234467Y-13634936D02*
X7224943Y-13615888D01*
X7224943Y-13615888D02*
X7215420Y-13577793D01*
X7215420Y-13577793D02*
X7215420Y-13530174D01*
X7215420Y-13530174D02*
X7224943Y-13492079D01*
X7224943Y-13492079D02*
X7234467Y-13473031D01*
X7234467Y-13473031D02*
X7243991Y-13463508D01*
X7243991Y-13463508D02*
X7263039Y-13453984D01*
X7415420Y-13653984D02*
X7415420Y-13520650D01*
X7415420Y-13539698D02*
X7424943Y-13530174D01*
X7424943Y-13530174D02*
X7443991Y-13520650D01*
X7443991Y-13520650D02*
X7472563Y-13520650D01*
X7472563Y-13520650D02*
X7491610Y-13530174D01*
X7491610Y-13530174D02*
X7501134Y-13549222D01*
X7501134Y-13549222D02*
X7501134Y-13653984D01*
X7501134Y-13549222D02*
X7510658Y-13530174D01*
X7510658Y-13530174D02*
X7529705Y-13520650D01*
X7529705Y-13520650D02*
X7558277Y-13520650D01*
X7558277Y-13520650D02*
X7577324Y-13530174D01*
X7577324Y-13530174D02*
X7586848Y-13549222D01*
X7586848Y-13549222D02*
X7586848Y-13653984D01*
X7682086Y-13653984D02*
X7682086Y-13520650D01*
X7682086Y-13539698D02*
X7691610Y-13530174D01*
X7691610Y-13530174D02*
X7710658Y-13520650D01*
X7710658Y-13520650D02*
X7739229Y-13520650D01*
X7739229Y-13520650D02*
X7758277Y-13530174D01*
X7758277Y-13530174D02*
X7767801Y-13549222D01*
X7767801Y-13549222D02*
X7767801Y-13653984D01*
X7767801Y-13549222D02*
X7777324Y-13530174D01*
X7777324Y-13530174D02*
X7796372Y-13520650D01*
X7796372Y-13520650D02*
X7824943Y-13520650D01*
X7824943Y-13520650D02*
X7843991Y-13530174D01*
X7843991Y-13530174D02*
X7853515Y-13549222D01*
X7853515Y-13549222D02*
X7853515Y-13653984D01*
X8243991Y-13444460D02*
X8072563Y-13701603D01*
X8501134Y-13453984D02*
X8520182Y-13453984D01*
X8520182Y-13453984D02*
X8539229Y-13463508D01*
X8539229Y-13463508D02*
X8548753Y-13473031D01*
X8548753Y-13473031D02*
X8558277Y-13492079D01*
X8558277Y-13492079D02*
X8567801Y-13530174D01*
X8567801Y-13530174D02*
X8567801Y-13577793D01*
X8567801Y-13577793D02*
X8558277Y-13615888D01*
X8558277Y-13615888D02*
X8548753Y-13634936D01*
X8548753Y-13634936D02*
X8539229Y-13644460D01*
X8539229Y-13644460D02*
X8520182Y-13653984D01*
X8520182Y-13653984D02*
X8501134Y-13653984D01*
X8501134Y-13653984D02*
X8482087Y-13644460D01*
X8482087Y-13644460D02*
X8472563Y-13634936D01*
X8472563Y-13634936D02*
X8463039Y-13615888D01*
X8463039Y-13615888D02*
X8453515Y-13577793D01*
X8453515Y-13577793D02*
X8453515Y-13530174D01*
X8453515Y-13530174D02*
X8463039Y-13492079D01*
X8463039Y-13492079D02*
X8472563Y-13473031D01*
X8472563Y-13473031D02*
X8482087Y-13463508D01*
X8482087Y-13463508D02*
X8501134Y-13453984D01*
X8653515Y-13634936D02*
X8663039Y-13644460D01*
X8663039Y-13644460D02*
X8653515Y-13653984D01*
X8653515Y-13653984D02*
X8643991Y-13644460D01*
X8643991Y-13644460D02*
X8653515Y-13634936D01*
X8653515Y-13634936D02*
X8653515Y-13653984D01*
X8853515Y-13653984D02*
X8739229Y-13653984D01*
X8796372Y-13653984D02*
X8796372Y-13453984D01*
X8796372Y-13453984D02*
X8777325Y-13482555D01*
X8777325Y-13482555D02*
X8758277Y-13501603D01*
X8758277Y-13501603D02*
X8739229Y-13511127D01*
X9043991Y-13653984D02*
X8929706Y-13653984D01*
X8986848Y-13653984D02*
X8986848Y-13453984D01*
X8986848Y-13453984D02*
X8967801Y-13482555D01*
X8967801Y-13482555D02*
X8948753Y-13501603D01*
X8948753Y-13501603D02*
X8929706Y-13511127D01*
X9158277Y-13539698D02*
X9139229Y-13530174D01*
X9139229Y-13530174D02*
X9129706Y-13520650D01*
X9129706Y-13520650D02*
X9120182Y-13501603D01*
X9120182Y-13501603D02*
X9120182Y-13492079D01*
X9120182Y-13492079D02*
X9129706Y-13473031D01*
X9129706Y-13473031D02*
X9139229Y-13463508D01*
X9139229Y-13463508D02*
X9158277Y-13453984D01*
X9158277Y-13453984D02*
X9196372Y-13453984D01*
X9196372Y-13453984D02*
X9215420Y-13463508D01*
X9215420Y-13463508D02*
X9224944Y-13473031D01*
X9224944Y-13473031D02*
X9234468Y-13492079D01*
X9234468Y-13492079D02*
X9234468Y-13501603D01*
X9234468Y-13501603D02*
X9224944Y-13520650D01*
X9224944Y-13520650D02*
X9215420Y-13530174D01*
X9215420Y-13530174D02*
X9196372Y-13539698D01*
X9196372Y-13539698D02*
X9158277Y-13539698D01*
X9158277Y-13539698D02*
X9139229Y-13549222D01*
X9139229Y-13549222D02*
X9129706Y-13558746D01*
X9129706Y-13558746D02*
X9120182Y-13577793D01*
X9120182Y-13577793D02*
X9120182Y-13615888D01*
X9120182Y-13615888D02*
X9129706Y-13634936D01*
X9129706Y-13634936D02*
X9139229Y-13644460D01*
X9139229Y-13644460D02*
X9158277Y-13653984D01*
X9158277Y-13653984D02*
X9196372Y-13653984D01*
X9196372Y-13653984D02*
X9215420Y-13644460D01*
X9215420Y-13644460D02*
X9224944Y-13634936D01*
X9224944Y-13634936D02*
X9234468Y-13615888D01*
X9234468Y-13615888D02*
X9234468Y-13577793D01*
X9234468Y-13577793D02*
X9224944Y-13558746D01*
X9224944Y-13558746D02*
X9215420Y-13549222D01*
X9215420Y-13549222D02*
X9196372Y-13539698D01*
X9424944Y-13653984D02*
X9310658Y-13653984D01*
X9367801Y-13653984D02*
X9367801Y-13453984D01*
X9367801Y-13453984D02*
X9348753Y-13482555D01*
X9348753Y-13482555D02*
X9329706Y-13501603D01*
X9329706Y-13501603D02*
X9310658Y-13511127D01*
X9501134Y-13453984D02*
X9501134Y-13492079D01*
X9577325Y-13453984D02*
X9577325Y-13492079D01*
X9872563Y-13730174D02*
X9863039Y-13720650D01*
X9863039Y-13720650D02*
X9843991Y-13692079D01*
X9843991Y-13692079D02*
X9834468Y-13673031D01*
X9834468Y-13673031D02*
X9824944Y-13644460D01*
X9824944Y-13644460D02*
X9815420Y-13596841D01*
X9815420Y-13596841D02*
X9815420Y-13558746D01*
X9815420Y-13558746D02*
X9824944Y-13511127D01*
X9824944Y-13511127D02*
X9834468Y-13482555D01*
X9834468Y-13482555D02*
X9843991Y-13463508D01*
X9843991Y-13463508D02*
X9863039Y-13434936D01*
X9863039Y-13434936D02*
X9872563Y-13425412D01*
X9929706Y-13453984D02*
X10053515Y-13453984D01*
X10053515Y-13453984D02*
X9986849Y-13530174D01*
X9986849Y-13530174D02*
X10015420Y-13530174D01*
X10015420Y-13530174D02*
X10034468Y-13539698D01*
X10034468Y-13539698D02*
X10043991Y-13549222D01*
X10043991Y-13549222D02*
X10053515Y-13568269D01*
X10053515Y-13568269D02*
X10053515Y-13615888D01*
X10053515Y-13615888D02*
X10043991Y-13634936D01*
X10043991Y-13634936D02*
X10034468Y-13644460D01*
X10034468Y-13644460D02*
X10015420Y-13653984D01*
X10015420Y-13653984D02*
X9958277Y-13653984D01*
X9958277Y-13653984D02*
X9939230Y-13644460D01*
X9939230Y-13644460D02*
X9929706Y-13634936D01*
X10291611Y-13653984D02*
X10291611Y-13453984D01*
X10377325Y-13653984D02*
X10377325Y-13549222D01*
X10377325Y-13549222D02*
X10367801Y-13530174D01*
X10367801Y-13530174D02*
X10348753Y-13520650D01*
X10348753Y-13520650D02*
X10320182Y-13520650D01*
X10320182Y-13520650D02*
X10301134Y-13530174D01*
X10301134Y-13530174D02*
X10291611Y-13539698D01*
X10501134Y-13653984D02*
X10482087Y-13644460D01*
X10482087Y-13644460D02*
X10472563Y-13634936D01*
X10472563Y-13634936D02*
X10463039Y-13615888D01*
X10463039Y-13615888D02*
X10463039Y-13558746D01*
X10463039Y-13558746D02*
X10472563Y-13539698D01*
X10472563Y-13539698D02*
X10482087Y-13530174D01*
X10482087Y-13530174D02*
X10501134Y-13520650D01*
X10501134Y-13520650D02*
X10529706Y-13520650D01*
X10529706Y-13520650D02*
X10548753Y-13530174D01*
X10548753Y-13530174D02*
X10558277Y-13539698D01*
X10558277Y-13539698D02*
X10567801Y-13558746D01*
X10567801Y-13558746D02*
X10567801Y-13615888D01*
X10567801Y-13615888D02*
X10558277Y-13634936D01*
X10558277Y-13634936D02*
X10548753Y-13644460D01*
X10548753Y-13644460D02*
X10529706Y-13653984D01*
X10529706Y-13653984D02*
X10501134Y-13653984D01*
X10682087Y-13653984D02*
X10663039Y-13644460D01*
X10663039Y-13644460D02*
X10653515Y-13625412D01*
X10653515Y-13625412D02*
X10653515Y-13453984D01*
X10834468Y-13644460D02*
X10815420Y-13653984D01*
X10815420Y-13653984D02*
X10777325Y-13653984D01*
X10777325Y-13653984D02*
X10758277Y-13644460D01*
X10758277Y-13644460D02*
X10748753Y-13625412D01*
X10748753Y-13625412D02*
X10748753Y-13549222D01*
X10748753Y-13549222D02*
X10758277Y-13530174D01*
X10758277Y-13530174D02*
X10777325Y-13520650D01*
X10777325Y-13520650D02*
X10815420Y-13520650D01*
X10815420Y-13520650D02*
X10834468Y-13530174D01*
X10834468Y-13530174D02*
X10843992Y-13549222D01*
X10843992Y-13549222D02*
X10843992Y-13568269D01*
X10843992Y-13568269D02*
X10748753Y-13587317D01*
X10920182Y-13644460D02*
X10939230Y-13653984D01*
X10939230Y-13653984D02*
X10977325Y-13653984D01*
X10977325Y-13653984D02*
X10996373Y-13644460D01*
X10996373Y-13644460D02*
X11005896Y-13625412D01*
X11005896Y-13625412D02*
X11005896Y-13615888D01*
X11005896Y-13615888D02*
X10996373Y-13596841D01*
X10996373Y-13596841D02*
X10977325Y-13587317D01*
X10977325Y-13587317D02*
X10948753Y-13587317D01*
X10948753Y-13587317D02*
X10929706Y-13577793D01*
X10929706Y-13577793D02*
X10920182Y-13558746D01*
X10920182Y-13558746D02*
X10920182Y-13549222D01*
X10920182Y-13549222D02*
X10929706Y-13530174D01*
X10929706Y-13530174D02*
X10948753Y-13520650D01*
X10948753Y-13520650D02*
X10977325Y-13520650D01*
X10977325Y-13520650D02*
X10996373Y-13530174D01*
X11072563Y-13730174D02*
X11082087Y-13720650D01*
X11082087Y-13720650D02*
X11101134Y-13692079D01*
X11101134Y-13692079D02*
X11110658Y-13673031D01*
X11110658Y-13673031D02*
X11120182Y-13644460D01*
X11120182Y-13644460D02*
X11129706Y-13596841D01*
X11129706Y-13596841D02*
X11129706Y-13558746D01*
X11129706Y-13558746D02*
X11120182Y-13511127D01*
X11120182Y-13511127D02*
X11110658Y-13482555D01*
X11110658Y-13482555D02*
X11101134Y-13463508D01*
X11101134Y-13463508D02*
X11082087Y-13434936D01*
X11082087Y-13434936D02*
X11072563Y-13425412D01*
X11434468Y-13730174D02*
X11424944Y-13720650D01*
X11424944Y-13720650D02*
X11405896Y-13692079D01*
X11405896Y-13692079D02*
X11396372Y-13673031D01*
X11396372Y-13673031D02*
X11386849Y-13644460D01*
X11386849Y-13644460D02*
X11377325Y-13596841D01*
X11377325Y-13596841D02*
X11377325Y-13558746D01*
X11377325Y-13558746D02*
X11386849Y-13511127D01*
X11386849Y-13511127D02*
X11396372Y-13482555D01*
X11396372Y-13482555D02*
X11405896Y-13463508D01*
X11405896Y-13463508D02*
X11424944Y-13434936D01*
X11424944Y-13434936D02*
X11434468Y-13425412D01*
X11510658Y-13520650D02*
X11510658Y-13653984D01*
X11510658Y-13539698D02*
X11520182Y-13530174D01*
X11520182Y-13530174D02*
X11539230Y-13520650D01*
X11539230Y-13520650D02*
X11567801Y-13520650D01*
X11567801Y-13520650D02*
X11586849Y-13530174D01*
X11586849Y-13530174D02*
X11596372Y-13549222D01*
X11596372Y-13549222D02*
X11596372Y-13653984D01*
X11720182Y-13653984D02*
X11701134Y-13644460D01*
X11701134Y-13644460D02*
X11691611Y-13634936D01*
X11691611Y-13634936D02*
X11682087Y-13615888D01*
X11682087Y-13615888D02*
X11682087Y-13558746D01*
X11682087Y-13558746D02*
X11691611Y-13539698D01*
X11691611Y-13539698D02*
X11701134Y-13530174D01*
X11701134Y-13530174D02*
X11720182Y-13520650D01*
X11720182Y-13520650D02*
X11748753Y-13520650D01*
X11748753Y-13520650D02*
X11767801Y-13530174D01*
X11767801Y-13530174D02*
X11777325Y-13539698D01*
X11777325Y-13539698D02*
X11786849Y-13558746D01*
X11786849Y-13558746D02*
X11786849Y-13615888D01*
X11786849Y-13615888D02*
X11777325Y-13634936D01*
X11777325Y-13634936D02*
X11767801Y-13644460D01*
X11767801Y-13644460D02*
X11748753Y-13653984D01*
X11748753Y-13653984D02*
X11720182Y-13653984D01*
X11843992Y-13520650D02*
X11920182Y-13520650D01*
X11872563Y-13453984D02*
X11872563Y-13625412D01*
X11872563Y-13625412D02*
X11882087Y-13644460D01*
X11882087Y-13644460D02*
X11901134Y-13653984D01*
X11901134Y-13653984D02*
X11920182Y-13653984D01*
X12139230Y-13520650D02*
X12139230Y-13720650D01*
X12139230Y-13530174D02*
X12158277Y-13520650D01*
X12158277Y-13520650D02*
X12196373Y-13520650D01*
X12196373Y-13520650D02*
X12215420Y-13530174D01*
X12215420Y-13530174D02*
X12224944Y-13539698D01*
X12224944Y-13539698D02*
X12234468Y-13558746D01*
X12234468Y-13558746D02*
X12234468Y-13615888D01*
X12234468Y-13615888D02*
X12224944Y-13634936D01*
X12224944Y-13634936D02*
X12215420Y-13644460D01*
X12215420Y-13644460D02*
X12196373Y-13653984D01*
X12196373Y-13653984D02*
X12158277Y-13653984D01*
X12158277Y-13653984D02*
X12139230Y-13644460D01*
X12348753Y-13653984D02*
X12329706Y-13644460D01*
X12329706Y-13644460D02*
X12320182Y-13625412D01*
X12320182Y-13625412D02*
X12320182Y-13453984D01*
X12510658Y-13653984D02*
X12510658Y-13549222D01*
X12510658Y-13549222D02*
X12501134Y-13530174D01*
X12501134Y-13530174D02*
X12482087Y-13520650D01*
X12482087Y-13520650D02*
X12443992Y-13520650D01*
X12443992Y-13520650D02*
X12424944Y-13530174D01*
X12510658Y-13644460D02*
X12491611Y-13653984D01*
X12491611Y-13653984D02*
X12443992Y-13653984D01*
X12443992Y-13653984D02*
X12424944Y-13644460D01*
X12424944Y-13644460D02*
X12415420Y-13625412D01*
X12415420Y-13625412D02*
X12415420Y-13606365D01*
X12415420Y-13606365D02*
X12424944Y-13587317D01*
X12424944Y-13587317D02*
X12443992Y-13577793D01*
X12443992Y-13577793D02*
X12491611Y-13577793D01*
X12491611Y-13577793D02*
X12510658Y-13568269D01*
X12577325Y-13520650D02*
X12653515Y-13520650D01*
X12605896Y-13453984D02*
X12605896Y-13625412D01*
X12605896Y-13625412D02*
X12615420Y-13644460D01*
X12615420Y-13644460D02*
X12634468Y-13653984D01*
X12634468Y-13653984D02*
X12653515Y-13653984D01*
X12796373Y-13644460D02*
X12777325Y-13653984D01*
X12777325Y-13653984D02*
X12739230Y-13653984D01*
X12739230Y-13653984D02*
X12720182Y-13644460D01*
X12720182Y-13644460D02*
X12710658Y-13625412D01*
X12710658Y-13625412D02*
X12710658Y-13549222D01*
X12710658Y-13549222D02*
X12720182Y-13530174D01*
X12720182Y-13530174D02*
X12739230Y-13520650D01*
X12739230Y-13520650D02*
X12777325Y-13520650D01*
X12777325Y-13520650D02*
X12796373Y-13530174D01*
X12796373Y-13530174D02*
X12805896Y-13549222D01*
X12805896Y-13549222D02*
X12805896Y-13568269D01*
X12805896Y-13568269D02*
X12710658Y-13587317D01*
X12977325Y-13653984D02*
X12977325Y-13453984D01*
X12977325Y-13644460D02*
X12958277Y-13653984D01*
X12958277Y-13653984D02*
X12920182Y-13653984D01*
X12920182Y-13653984D02*
X12901134Y-13644460D01*
X12901134Y-13644460D02*
X12891611Y-13634936D01*
X12891611Y-13634936D02*
X12882087Y-13615888D01*
X12882087Y-13615888D02*
X12882087Y-13558746D01*
X12882087Y-13558746D02*
X12891611Y-13539698D01*
X12891611Y-13539698D02*
X12901134Y-13530174D01*
X12901134Y-13530174D02*
X12920182Y-13520650D01*
X12920182Y-13520650D02*
X12958277Y-13520650D01*
X12958277Y-13520650D02*
X12977325Y-13530174D01*
X13053515Y-13730174D02*
X13063039Y-13720650D01*
X13063039Y-13720650D02*
X13082087Y-13692079D01*
X13082087Y-13692079D02*
X13091611Y-13673031D01*
X13091611Y-13673031D02*
X13101134Y-13644460D01*
X13101134Y-13644460D02*
X13110658Y-13596841D01*
X13110658Y-13596841D02*
X13110658Y-13558746D01*
X13110658Y-13558746D02*
X13101134Y-13511127D01*
X13101134Y-13511127D02*
X13091611Y-13482555D01*
X13091611Y-13482555D02*
X13082087Y-13463508D01*
X13082087Y-13463508D02*
X13063039Y-13434936D01*
X13063039Y-13434936D02*
X13053515Y-13425412D01*
M02*
