G04 #@! TF.GenerationSoftware,KiCad,Pcbnew,9.0.4*
G04 #@! TF.CreationDate,2026-01-11T11:57:00-08:00*
G04 #@! TF.ProjectId,Joule Meter,4a6f756c-6520-44d6-9574-65722e6b6963,12/15/2025*
G04 #@! TF.SameCoordinates,Original*
G04 #@! TF.FileFunction,Soldermask,Top*
G04 #@! TF.FilePolarity,Negative*
%FSLAX46Y46*%
G04 Gerber Fmt 4.6, Leading zero omitted, Abs format (unit mm)*
G04 Created by KiCad (PCBNEW 9.0.4) date 2026-01-11 11:57:00*
%MOMM*%
%LPD*%
G01*
G04 APERTURE LIST*
G04 Aperture macros list*
%AMRoundRect*
0 Rectangle with rounded corners*
0 $1 Rounding radius*
0 $2 $3 $4 $5 $6 $7 $8 $9 X,Y pos of 4 corners*
0 Add a 4 corners polygon primitive as box body*
4,1,4,$2,$3,$4,$5,$6,$7,$8,$9,$2,$3,0*
0 Add four circle primitives for the rounded corners*
1,1,$1+$1,$2,$3*
1,1,$1+$1,$4,$5*
1,1,$1+$1,$6,$7*
1,1,$1+$1,$8,$9*
0 Add four rect primitives between the rounded corners*
20,1,$1+$1,$2,$3,$4,$5,0*
20,1,$1+$1,$4,$5,$6,$7,0*
20,1,$1+$1,$6,$7,$8,$9,0*
20,1,$1+$1,$8,$9,$2,$3,0*%
G04 Aperture macros list end*
%ADD10C,0.000000*%
%ADD11RoundRect,0.250000X-0.337500X-0.475000X0.337500X-0.475000X0.337500X0.475000X-0.337500X0.475000X0*%
%ADD12C,2.000000*%
%ADD13R,1.150000X1.150000*%
%ADD14C,1.150000*%
%ADD15RoundRect,0.250000X-0.350000X-0.450000X0.350000X-0.450000X0.350000X0.450000X-0.350000X0.450000X0*%
%ADD16RoundRect,0.250000X-0.450000X0.350000X-0.450000X-0.350000X0.450000X-0.350000X0.450000X0.350000X0*%
%ADD17R,1.000000X1.000000*%
%ADD18RoundRect,0.250000X0.350000X0.450000X-0.350000X0.450000X-0.350000X-0.450000X0.350000X-0.450000X0*%
%ADD19RoundRect,0.250000X0.337500X0.475000X-0.337500X0.475000X-0.337500X-0.475000X0.337500X-0.475000X0*%
%ADD20C,3.000000*%
%ADD21RoundRect,0.102000X0.765000X0.765000X-0.765000X0.765000X-0.765000X-0.765000X0.765000X-0.765000X0*%
%ADD22C,1.734000*%
%ADD23RoundRect,0.102000X0.802500X0.802500X-0.802500X0.802500X-0.802500X-0.802500X0.802500X-0.802500X0*%
%ADD24C,1.809000*%
%ADD25R,2.286000X0.558800*%
%ADD26RoundRect,0.250000X-0.475000X0.337500X-0.475000X-0.337500X0.475000X-0.337500X0.475000X0.337500X0*%
%ADD27RoundRect,0.250000X0.475000X-0.337500X0.475000X0.337500X-0.475000X0.337500X-0.475000X-0.337500X0*%
%ADD28O,1.549999X0.299999*%
%ADD29RoundRect,0.250000X-0.362500X-0.700000X0.362500X-0.700000X0.362500X0.700000X-0.362500X0.700000X0*%
%ADD30RoundRect,0.250000X0.650000X-0.412500X0.650000X0.412500X-0.650000X0.412500X-0.650000X-0.412500X0*%
%ADD31RoundRect,0.102000X0.500000X0.485000X-0.500000X0.485000X-0.500000X-0.485000X0.500000X-0.485000X0*%
%ADD32C,6.204000*%
%ADD33RoundRect,0.102000X-3.000000X-3.000000X3.000000X-3.000000X3.000000X3.000000X-3.000000X3.000000X0*%
%ADD34RoundRect,0.102000X-0.679000X0.679000X-0.679000X-0.679000X0.679000X-0.679000X0.679000X0.679000X0*%
%ADD35C,1.562000*%
%ADD36R,1.800000X1.800000*%
%ADD37C,1.800000*%
%ADD38RoundRect,0.150000X0.512500X0.150000X-0.512500X0.150000X-0.512500X-0.150000X0.512500X-0.150000X0*%
%ADD39RoundRect,0.102000X3.000000X3.000000X-3.000000X3.000000X-3.000000X-3.000000X3.000000X-3.000000X0*%
%ADD40R,1.473200X0.889000*%
%ADD41R,1.473200X3.149600*%
%ADD42RoundRect,0.102000X1.480000X2.755000X-1.480000X2.755000X-1.480000X-2.755000X1.480000X-2.755000X0*%
%ADD43RoundRect,0.250000X-0.262500X-0.450000X0.262500X-0.450000X0.262500X0.450000X-0.262500X0.450000X0*%
%ADD44RoundRect,0.250000X-0.250000X-0.475000X0.250000X-0.475000X0.250000X0.475000X-0.250000X0.475000X0*%
%ADD45R,0.599999X1.549999*%
%ADD46C,0.500000*%
%ADD47RoundRect,0.100000X-0.100000X0.637500X-0.100000X-0.637500X0.100000X-0.637500X0.100000X0.637500X0*%
%ADD48C,1.700000*%
%ADD49RoundRect,0.250000X-0.450000X0.262500X-0.450000X-0.262500X0.450000X-0.262500X0.450000X0.262500X0*%
G04 APERTURE END LIST*
D10*
G04 #@! TO.C,U1*
G36*
X79414999Y-73750000D02*
G01*
X76315001Y-73750000D01*
X76315001Y-71150000D01*
X79414999Y-71150000D01*
X79414999Y-73750000D01*
G37*
G04 #@! TD*
D11*
G04 #@! TO.C,C8*
X78500000Y-77700000D03*
X80575000Y-77700000D03*
G04 #@! TD*
D12*
G04 #@! TO.C,REF\u002A\u002A*
X213000000Y-122000000D03*
G04 #@! TD*
D13*
G04 #@! TO.C,J3*
X106400000Y-88900000D03*
D14*
X106400000Y-86400000D03*
X106400000Y-83900000D03*
G04 #@! TD*
D15*
G04 #@! TO.C,R8*
X120862500Y-74300000D03*
X122862500Y-74300000D03*
G04 #@! TD*
D16*
G04 #@! TO.C,R2*
X71800000Y-75200000D03*
X71800000Y-77200000D03*
G04 #@! TD*
D17*
G04 #@! TO.C,TP17*
X130000000Y-61650000D03*
G04 #@! TD*
D16*
G04 #@! TO.C,R1*
X73800000Y-75200000D03*
X73800000Y-77200000D03*
G04 #@! TD*
D17*
G04 #@! TO.C,TP18*
X191500000Y-34300000D03*
G04 #@! TD*
D18*
G04 #@! TO.C,R12*
X132000000Y-57500000D03*
X130000000Y-57500000D03*
G04 #@! TD*
D17*
G04 #@! TO.C,TP4*
X74000000Y-80000000D03*
G04 #@! TD*
D19*
G04 #@! TO.C,C6*
X80002499Y-65100001D03*
X77927499Y-65100001D03*
G04 #@! TD*
D17*
G04 #@! TO.C,TP5*
X75464999Y-67100001D03*
G04 #@! TD*
D12*
G04 #@! TO.C,REF\u002A\u002A*
X67000000Y-122000000D03*
G04 #@! TD*
D17*
G04 #@! TO.C,TP13*
X106700000Y-62800000D03*
G04 #@! TD*
D19*
G04 #@! TO.C,C5*
X80002499Y-67100001D03*
X77927499Y-67100001D03*
G04 #@! TD*
D17*
G04 #@! TO.C,TP23*
X134700000Y-68100000D03*
G04 #@! TD*
D20*
G04 #@! TO.C,Nucleo_F44RE2*
X199360000Y-91070000D03*
X166340000Y-39000000D03*
X151100000Y-89800000D03*
D21*
X206980000Y-87260000D03*
D22*
X204440000Y-87260000D03*
X206980000Y-84720000D03*
X204440000Y-84720000D03*
X206980000Y-82180000D03*
X204440000Y-82180000D03*
X206980000Y-79640000D03*
X204440000Y-79640000D03*
X206980000Y-77100000D03*
X204440000Y-77100000D03*
X206980000Y-74560000D03*
X204440000Y-74560000D03*
X206980000Y-72020000D03*
X204440000Y-72020000D03*
X206980000Y-69480000D03*
X204440000Y-69480000D03*
X206980000Y-66940000D03*
X204440000Y-66940000D03*
X206980000Y-64400000D03*
X204440000Y-64400000D03*
X206980000Y-61860000D03*
X204440000Y-61860000D03*
X206980000Y-59320000D03*
X204440000Y-59320000D03*
X206980000Y-56780000D03*
X204440000Y-56780000D03*
X206980000Y-54240000D03*
X204440000Y-54240000D03*
X206980000Y-51700000D03*
X204440000Y-51700000D03*
X206980000Y-49160000D03*
X204440000Y-49160000D03*
X206980000Y-46620000D03*
X204440000Y-46620000D03*
X206980000Y-44080000D03*
X204440000Y-44080000D03*
X206980000Y-41540000D03*
X204440000Y-41540000D03*
D21*
X146020000Y-87260000D03*
D22*
X143480000Y-87260000D03*
X146020000Y-84720000D03*
X143480000Y-84720000D03*
X146020000Y-82180000D03*
X143480000Y-82180000D03*
X146020000Y-79640000D03*
X143480000Y-79640000D03*
X146020000Y-77100000D03*
X143480000Y-77100000D03*
X146020000Y-74560000D03*
X143480000Y-74560000D03*
X146020000Y-72020000D03*
X143480000Y-72020000D03*
X146020000Y-69480000D03*
X143480000Y-69480000D03*
X146020000Y-66940000D03*
X143480000Y-66940000D03*
X146020000Y-64400000D03*
X143480000Y-64400000D03*
X146020000Y-61860000D03*
X143480000Y-61860000D03*
X146020000Y-59320000D03*
X143480000Y-59320000D03*
X146020000Y-56780000D03*
X143480000Y-56780000D03*
X146020000Y-54240000D03*
X143480000Y-54240000D03*
X146020000Y-51700000D03*
X143480000Y-51700000D03*
X146020000Y-49160000D03*
X143480000Y-49160000D03*
X146020000Y-46620000D03*
X143480000Y-46620000D03*
X146020000Y-44080000D03*
X143480000Y-44080000D03*
X146020000Y-41540000D03*
X143480000Y-41540000D03*
D23*
X151100000Y-63380000D03*
D24*
X151100000Y-65920000D03*
X151100000Y-68460000D03*
X151100000Y-71000000D03*
X151100000Y-73540000D03*
X151100000Y-76080000D03*
X151100000Y-78620000D03*
X151100000Y-81160000D03*
X151100000Y-83700000D03*
X151100000Y-86240000D03*
D23*
X199360000Y-77100000D03*
D24*
X199360000Y-74560000D03*
X199360000Y-72020000D03*
X199360000Y-69480000D03*
X199360000Y-66940000D03*
X199360000Y-64400000D03*
X199360000Y-61860000D03*
X199360000Y-59320000D03*
D23*
X199360000Y-54240000D03*
D24*
X199360000Y-51700000D03*
X199360000Y-49160000D03*
X199360000Y-46620000D03*
X199360000Y-44080000D03*
X199360000Y-41540000D03*
D23*
X151100000Y-41540000D03*
D24*
X151100000Y-44080000D03*
X151100000Y-46620000D03*
X151100000Y-49160000D03*
X151100000Y-51700000D03*
X151100000Y-54240000D03*
X151100000Y-56780000D03*
X151100000Y-59320000D03*
G04 #@! TD*
D16*
G04 #@! TO.C,R13*
X211500000Y-46700000D03*
X211500000Y-48700000D03*
G04 #@! TD*
D25*
G04 #@! TO.C,U6*
X127413000Y-85405000D03*
X127413000Y-84135000D03*
X127413000Y-82865000D03*
X127413000Y-81595000D03*
X122587000Y-81595000D03*
X122587000Y-82865000D03*
X122587000Y-84135000D03*
X122587000Y-85405000D03*
G04 #@! TD*
D17*
G04 #@! TO.C,TP12*
X120862500Y-76400000D03*
G04 #@! TD*
D12*
G04 #@! TO.C,REF\u002A\u002A*
X213000000Y-35000000D03*
G04 #@! TD*
D26*
G04 #@! TO.C,C22*
X211600000Y-84125000D03*
X211600000Y-86200000D03*
G04 #@! TD*
D27*
G04 #@! TO.C,C7*
X76200000Y-79875000D03*
X76200000Y-77800000D03*
G04 #@! TD*
D17*
G04 #@! TO.C,TP16*
X119000000Y-83942500D03*
G04 #@! TD*
G04 #@! TO.C,TP15*
X119000000Y-86482500D03*
G04 #@! TD*
D26*
G04 #@! TO.C,C20*
X213600000Y-84125000D03*
X213600000Y-86200000D03*
G04 #@! TD*
D17*
G04 #@! TO.C,TP11*
X110525000Y-69050000D03*
G04 #@! TD*
D19*
G04 #@! TO.C,C19*
X124937500Y-69100000D03*
X122862500Y-69100000D03*
G04 #@! TD*
D28*
G04 #@! TO.C,U4*
X115875001Y-68099999D03*
X115875001Y-68599998D03*
X115875001Y-69100000D03*
X115875001Y-69599999D03*
X115875001Y-70100001D03*
X120525002Y-70100001D03*
X120525002Y-69599999D03*
X120525002Y-69100000D03*
X120525002Y-68599998D03*
X120525002Y-68099999D03*
G04 #@! TD*
D29*
G04 #@! TO.C,L1*
X81952500Y-75200000D03*
X85277500Y-75200000D03*
G04 #@! TD*
D30*
G04 #@! TO.C,C2*
X118500000Y-42000000D03*
X118500000Y-38875000D03*
G04 #@! TD*
D17*
G04 #@! TO.C,TP10*
X102600000Y-71049999D03*
G04 #@! TD*
G04 #@! TO.C,TP25*
X136950000Y-61650000D03*
G04 #@! TD*
G04 #@! TO.C,TP1*
X87500000Y-66000000D03*
G04 #@! TD*
D26*
G04 #@! TO.C,C17*
X112625000Y-71012500D03*
X112625000Y-73087500D03*
G04 #@! TD*
D17*
G04 #@! TO.C,TP22*
X134850000Y-70700000D03*
G04 #@! TD*
D18*
G04 #@! TO.C,R14*
X196200000Y-34300000D03*
X194200000Y-34300000D03*
G04 #@! TD*
D27*
G04 #@! TO.C,C21*
X119400000Y-81595000D03*
X119400000Y-79520000D03*
G04 #@! TD*
D31*
G04 #@! TO.C,FERITE_BEAD1*
X134150000Y-61650000D03*
X132680000Y-61650000D03*
G04 #@! TD*
D17*
G04 #@! TO.C,TP14*
X104600000Y-68000000D03*
G04 #@! TD*
G04 #@! TO.C,TP7*
X78600000Y-79850001D03*
G04 #@! TD*
D18*
G04 #@! TO.C,R9*
X138800000Y-73500000D03*
X136800000Y-73500000D03*
G04 #@! TD*
D17*
G04 #@! TO.C,TP21*
X134950000Y-73500000D03*
G04 #@! TD*
D32*
G04 #@! TO.C,J1*
X128200000Y-50000000D03*
D33*
X121000000Y-50000000D03*
G04 #@! TD*
D27*
G04 #@! TO.C,C12*
X84600000Y-88875000D03*
X84600000Y-86800000D03*
G04 #@! TD*
D26*
G04 #@! TO.C,C18*
X112625000Y-67125000D03*
X112625000Y-69200000D03*
G04 #@! TD*
D17*
G04 #@! TO.C,TP6*
X71800000Y-73000000D03*
G04 #@! TD*
D11*
G04 #@! TO.C,C9*
X88639999Y-75100001D03*
X90714999Y-75100001D03*
G04 #@! TD*
D18*
G04 #@! TO.C,R10*
X138800000Y-70700000D03*
X136800000Y-70700000D03*
G04 #@! TD*
D27*
G04 #@! TO.C,C15*
X95549999Y-66887499D03*
X95549999Y-64812499D03*
G04 #@! TD*
D18*
G04 #@! TO.C,R11*
X138750000Y-68100000D03*
X136750000Y-68100000D03*
G04 #@! TD*
D34*
G04 #@! TO.C,J5*
X137000000Y-84500000D03*
D35*
X137000000Y-82500000D03*
X137000000Y-80500000D03*
X137000000Y-78500000D03*
G04 #@! TD*
D26*
G04 #@! TO.C,C13*
X84600000Y-82875000D03*
X84600000Y-84950000D03*
G04 #@! TD*
G04 #@! TO.C,C14*
X82600000Y-82962500D03*
X82600000Y-85037500D03*
G04 #@! TD*
D36*
G04 #@! TO.C,D1*
X81363900Y-87293600D03*
D37*
X81363900Y-89833600D03*
G04 #@! TD*
D38*
G04 #@! TO.C,U5*
X104600000Y-65950000D03*
X104600000Y-65000000D03*
X104600000Y-64050000D03*
X102325000Y-64050000D03*
X102325000Y-65950000D03*
G04 #@! TD*
D32*
G04 #@! TO.C,J2*
X70000000Y-50000000D03*
D39*
X77200000Y-50000000D03*
G04 #@! TD*
D11*
G04 #@! TO.C,C11*
X88677499Y-79100001D03*
X90752499Y-79100001D03*
G04 #@! TD*
D40*
G04 #@! TO.C,U2*
X86836100Y-83601100D03*
X86836100Y-85912500D03*
X86836100Y-88223900D03*
D41*
X93363900Y-85912500D03*
G04 #@! TD*
D42*
G04 #@! TO.C,R0*
X102546300Y-50000000D03*
X94492300Y-50000000D03*
G04 #@! TD*
D15*
G04 #@! TO.C,R6*
X106600001Y-69049999D03*
X108600001Y-69049999D03*
G04 #@! TD*
D11*
G04 #@! TO.C,C10*
X88677499Y-77100001D03*
X90752499Y-77100001D03*
G04 #@! TD*
D17*
G04 #@! TO.C,TP8*
X86214999Y-79100001D03*
G04 #@! TD*
G04 #@! TO.C,TP3*
X87500000Y-49900000D03*
G04 #@! TD*
D27*
G04 #@! TO.C,C23*
X130750000Y-82787500D03*
X130750000Y-80712500D03*
G04 #@! TD*
D17*
G04 #@! TO.C,TP1*
X90200000Y-66000000D03*
G04 #@! TD*
D43*
G04 #@! TO.C,R4*
X108587500Y-62800000D03*
X110412500Y-62800000D03*
G04 #@! TD*
D44*
G04 #@! TO.C,C16*
X106400000Y-65000000D03*
X108300000Y-65000000D03*
G04 #@! TD*
D30*
G04 #@! TO.C,C4*
X78500000Y-41625000D03*
X78500000Y-38500000D03*
G04 #@! TD*
D45*
G04 #@! TO.C,U1*
X79770000Y-69750000D03*
X78500000Y-69750000D03*
X77230000Y-69750000D03*
X75960000Y-69750000D03*
X75960000Y-75150000D03*
X77230000Y-75150000D03*
X78500000Y-75150000D03*
X79770000Y-75150000D03*
D46*
X78515001Y-71799999D03*
X78515001Y-73100001D03*
X77214999Y-71799999D03*
X77214999Y-73100001D03*
X75914999Y-71799999D03*
X75914999Y-73100001D03*
X79815001Y-71799999D03*
X79815001Y-73100001D03*
G04 #@! TD*
D47*
G04 #@! TO.C,U3*
X99524999Y-61162499D03*
X98874999Y-61162499D03*
X98224999Y-61162499D03*
X97574999Y-61162499D03*
X97574999Y-66887499D03*
X98224999Y-66887499D03*
X98874999Y-66887499D03*
X99524999Y-66887499D03*
G04 #@! TD*
D18*
G04 #@! TO.C,R7*
X122862500Y-72300000D03*
X120862500Y-72300000D03*
G04 #@! TD*
D17*
G04 #@! TO.C,TP9*
X86200000Y-91400000D03*
G04 #@! TD*
G04 #@! TO.C,TP24*
X110525000Y-71150000D03*
G04 #@! TD*
G04 #@! TO.C,TP2*
X112300000Y-50000000D03*
G04 #@! TD*
D48*
G04 #@! TO.C,C3*
X87500000Y-43500000D03*
X87500000Y-38483500D03*
G04 #@! TD*
D13*
G04 #@! TO.C,J4*
X105000000Y-103750000D03*
D14*
X105000000Y-106250000D03*
X105000000Y-108750000D03*
G04 #@! TD*
D18*
G04 #@! TO.C,R15*
X83350000Y-92200000D03*
X81350000Y-92200000D03*
G04 #@! TD*
D49*
G04 #@! TO.C,R3*
X106700000Y-59075000D03*
X106700000Y-60900000D03*
G04 #@! TD*
D48*
G04 #@! TO.C,C1*
X107500000Y-38483500D03*
X107500000Y-43500000D03*
G04 #@! TD*
D12*
G04 #@! TO.C,REF\u002A\u002A*
X67000000Y-35000000D03*
G04 #@! TD*
D15*
G04 #@! TO.C,R5*
X106600001Y-71049999D03*
X108600001Y-71049999D03*
G04 #@! TD*
M02*
