%TF.GenerationSoftware,KiCad,Pcbnew,9.0.4*%
%TF.CreationDate,2026-01-11T11:57:00-08:00*%
%TF.ProjectId,Joule Meter,4a6f756c-6520-44d6-9574-65722e6b6963,12/15/2025*%
%TF.SameCoordinates,Original*%
%TF.FileFunction,Drillmap*%
%TF.FilePolarity,Positive*%
%FSLAX45Y45*%
G04 Gerber Fmt 4.5, Leading zero omitted, Abs format (unit mm)*
G04 Created by KiCad (PCBNEW 9.0.4) date 2026-01-11 11:57:00*
%MOMM*%
%LPD*%
G01*
G04 APERTURE LIST*
%ADD10C,0.050000*%
%ADD11C,0.200000*%
%ADD12C,0.100000*%
%ADD13C,0.102000*%
%ADD14C,0.107000*%
%ADD15C,0.455000*%
G04 APERTURE END LIST*
D10*
X6300000Y-3100000D02*
X21685000Y-3100000D01*
X21685000Y-12600000D01*
X6300000Y-12600000D01*
X6300000Y-3100000D01*
D11*
D12*
X6985000Y-3985000D02*
X7015000Y-4015000D01*
X7015000Y-3985000D02*
X6985000Y-4015000D01*
X6985000Y-5985000D02*
X7015000Y-6015000D01*
X7015000Y-5985000D02*
X6985000Y-6015000D01*
X6985000Y-6985000D02*
X7015000Y-7015000D01*
X7015000Y-6985000D02*
X6985000Y-7015000D01*
X6985000Y-7985000D02*
X7015000Y-8015000D01*
X7015000Y-7985000D02*
X6985000Y-8015000D01*
X6985000Y-8985000D02*
X7015000Y-9015000D01*
X7015000Y-8985000D02*
X6985000Y-9015000D01*
X6985000Y-9985000D02*
X7015000Y-10015000D01*
X7015000Y-9985000D02*
X6985000Y-10015000D01*
X6985000Y-10985000D02*
X7015000Y-11015000D01*
X7015000Y-10985000D02*
X6985000Y-11015000D01*
X6985000Y-11985000D02*
X7015000Y-12015000D01*
X7015000Y-11985000D02*
X6985000Y-12015000D01*
X7160000Y-7810000D02*
X7190000Y-7840000D01*
X7190000Y-7810000D02*
X7160000Y-7840000D01*
X7365000Y-7825000D02*
X7395000Y-7855000D01*
X7395000Y-7825000D02*
X7365000Y-7855000D01*
X7485000Y-5485000D02*
X7515000Y-5515000D01*
X7515000Y-5485000D02*
X7485000Y-5515000D01*
X7485000Y-5910000D02*
X7515000Y-5940000D01*
X7515000Y-5910000D02*
X7485000Y-5940000D01*
X7610000Y-8085000D02*
X7640000Y-8115000D01*
X7640000Y-8085000D02*
X7610000Y-8115000D01*
X7835000Y-3685000D02*
X7865000Y-3715000D01*
X7865000Y-3685000D02*
X7835000Y-3715000D01*
X7835000Y-4285000D02*
X7865000Y-4315000D01*
X7865000Y-4285000D02*
X7835000Y-4315000D01*
X7985000Y-3285000D02*
X8015000Y-3315000D01*
X8015000Y-3285000D02*
X7985000Y-3315000D01*
X7985000Y-4485000D02*
X8015000Y-4515000D01*
X8015000Y-4485000D02*
X7985000Y-4515000D01*
X7985000Y-5485000D02*
X8015000Y-5515000D01*
X8015000Y-5485000D02*
X7985000Y-5515000D01*
X7985000Y-5935000D02*
X8015000Y-5965000D01*
X8015000Y-5935000D02*
X7985000Y-5965000D01*
X7985000Y-9985000D02*
X8015000Y-10015000D01*
X8015000Y-9985000D02*
X7985000Y-10015000D01*
X7985000Y-10985000D02*
X8015000Y-11015000D01*
X8015000Y-10985000D02*
X7985000Y-11015000D01*
X7985000Y-11985000D02*
X8015000Y-12015000D01*
X8015000Y-11985000D02*
X7985000Y-12015000D01*
X8110000Y-8560000D02*
X8140000Y-8590000D01*
X8140000Y-8560000D02*
X8110000Y-8590000D01*
X8135000Y-6485000D02*
X8165000Y-6515000D01*
X8165000Y-6485000D02*
X8135000Y-6515000D01*
X8135000Y-6685000D02*
X8165000Y-6715000D01*
X8165000Y-6685000D02*
X8135000Y-6715000D01*
X8285000Y-8635000D02*
X8315000Y-8665000D01*
X8315000Y-8635000D02*
X8285000Y-8665000D01*
X8335000Y-8585000D02*
X8365000Y-8615000D01*
X8365000Y-8585000D02*
X8335000Y-8615000D01*
X8425000Y-7825000D02*
X8455000Y-7855000D01*
X8455000Y-7825000D02*
X8425000Y-7855000D01*
X8435000Y-9065000D02*
X8465000Y-9095000D01*
X8465000Y-9065000D02*
X8435000Y-9095000D01*
X8445000Y-9235000D02*
X8475000Y-9265000D01*
X8475000Y-9235000D02*
X8445000Y-9265000D01*
X8485000Y-4485000D02*
X8515000Y-4515000D01*
X8515000Y-4485000D02*
X8485000Y-4515000D01*
X8485000Y-4985000D02*
X8515000Y-5015000D01*
X8515000Y-4985000D02*
X8485000Y-5015000D01*
X8485000Y-5485000D02*
X8515000Y-5515000D01*
X8515000Y-5485000D02*
X8485000Y-5515000D01*
X8485000Y-5935000D02*
X8515000Y-5965000D01*
X8515000Y-5935000D02*
X8485000Y-5965000D01*
X8535000Y-8560000D02*
X8565000Y-8590000D01*
X8565000Y-8560000D02*
X8535000Y-8590000D01*
X8585000Y-4335000D02*
X8615000Y-4365000D01*
X8615000Y-4335000D02*
X8585000Y-4365000D01*
X8585000Y-8925000D02*
X8615000Y-8955000D01*
X8615000Y-8925000D02*
X8585000Y-8955000D01*
X8635000Y-8685000D02*
X8665000Y-8715000D01*
X8665000Y-8685000D02*
X8635000Y-8715000D01*
X8685000Y-8925000D02*
X8715000Y-8955000D01*
X8715000Y-8925000D02*
X8685000Y-8955000D01*
X8735000Y-4485000D02*
X8765000Y-4515000D01*
X8765000Y-4485000D02*
X8735000Y-4515000D01*
X8735000Y-8660000D02*
X8765000Y-8690000D01*
X8765000Y-8660000D02*
X8735000Y-8690000D01*
X8885000Y-4335000D02*
X8915000Y-4365000D01*
X8915000Y-4335000D02*
X8885000Y-4365000D01*
X8985000Y-3285000D02*
X9015000Y-3315000D01*
X9015000Y-3285000D02*
X8985000Y-3315000D01*
X8985000Y-4485000D02*
X9015000Y-4515000D01*
X9015000Y-4485000D02*
X8985000Y-4515000D01*
X8985000Y-4985000D02*
X9015000Y-5015000D01*
X9015000Y-4985000D02*
X8985000Y-5015000D01*
X8985000Y-5485000D02*
X9015000Y-5515000D01*
X9015000Y-5485000D02*
X8985000Y-5515000D01*
X8985000Y-5935000D02*
X9015000Y-5965000D01*
X9015000Y-5935000D02*
X8985000Y-5965000D01*
X8985000Y-6985000D02*
X9015000Y-7015000D01*
X9015000Y-6985000D02*
X8985000Y-7015000D01*
X8985000Y-9985000D02*
X9015000Y-10015000D01*
X9015000Y-9985000D02*
X8985000Y-10015000D01*
X8985000Y-10985000D02*
X9015000Y-11015000D01*
X9015000Y-10985000D02*
X8985000Y-11015000D01*
X8985000Y-11985000D02*
X9015000Y-12015000D01*
X9015000Y-11985000D02*
X8985000Y-12015000D01*
X9185000Y-7510000D02*
X9215000Y-7540000D01*
X9215000Y-7510000D02*
X9185000Y-7540000D01*
X9185000Y-7710000D02*
X9215000Y-7740000D01*
X9215000Y-7710000D02*
X9185000Y-7740000D01*
X9185000Y-7910000D02*
X9215000Y-7940000D01*
X9215000Y-7910000D02*
X9185000Y-7940000D01*
X9210000Y-4785000D02*
X9240000Y-4815000D01*
X9240000Y-4785000D02*
X9210000Y-4815000D01*
X9210000Y-4885000D02*
X9240000Y-4915000D01*
X9240000Y-4885000D02*
X9210000Y-4915000D01*
X9210000Y-4985000D02*
X9240000Y-5015000D01*
X9240000Y-4985000D02*
X9210000Y-5015000D01*
X9210000Y-5085000D02*
X9240000Y-5115000D01*
X9240000Y-5085000D02*
X9210000Y-5115000D01*
X9210000Y-5185000D02*
X9240000Y-5215000D01*
X9240000Y-5185000D02*
X9210000Y-5215000D01*
X9285000Y-5335000D02*
X9315000Y-5365000D01*
X9315000Y-5335000D02*
X9285000Y-5365000D01*
X9310000Y-4635000D02*
X9340000Y-4665000D01*
X9340000Y-4635000D02*
X9310000Y-4665000D01*
X9335000Y-8360000D02*
X9365000Y-8390000D01*
X9365000Y-8360000D02*
X9335000Y-8390000D01*
X9335000Y-8810000D02*
X9365000Y-8840000D01*
X9365000Y-8810000D02*
X9335000Y-8840000D01*
X9385000Y-5335000D02*
X9415000Y-5365000D01*
X9415000Y-5335000D02*
X9385000Y-5365000D01*
X9405000Y-6673750D02*
X9435000Y-6703750D01*
X9435000Y-6673750D02*
X9405000Y-6703750D01*
X9410000Y-4635000D02*
X9440000Y-4665000D01*
X9440000Y-4635000D02*
X9410000Y-4665000D01*
X9460000Y-8560000D02*
X9490000Y-8590000D01*
X9490000Y-8560000D02*
X9460000Y-8590000D01*
X9485000Y-4635000D02*
X9515000Y-4665000D01*
X9515000Y-4635000D02*
X9485000Y-4665000D01*
X9485000Y-5335000D02*
X9515000Y-5365000D01*
X9515000Y-5335000D02*
X9485000Y-5365000D01*
X9485000Y-5485000D02*
X9515000Y-5515000D01*
X9515000Y-5485000D02*
X9485000Y-5515000D01*
X9485000Y-5935000D02*
X9515000Y-5965000D01*
X9515000Y-5935000D02*
X9485000Y-5965000D01*
X9535000Y-6335000D02*
X9565000Y-6365000D01*
X9565000Y-6335000D02*
X9535000Y-6365000D01*
X9635000Y-6085000D02*
X9665000Y-6115000D01*
X9665000Y-6085000D02*
X9635000Y-6115000D01*
X9685000Y-5260000D02*
X9715000Y-5290000D01*
X9715000Y-5260000D02*
X9685000Y-5290000D01*
X9760000Y-3735000D02*
X9790000Y-3765000D01*
X9790000Y-3735000D02*
X9760000Y-3765000D01*
X9835000Y-4910000D02*
X9865000Y-4940000D01*
X9865000Y-4910000D02*
X9835000Y-4940000D01*
X9860000Y-4260000D02*
X9890000Y-4290000D01*
X9890000Y-4260000D02*
X9860000Y-4290000D01*
X9872500Y-6497500D02*
X9902500Y-6527500D01*
X9902500Y-6497500D02*
X9872500Y-6527500D01*
X9985000Y-3285000D02*
X10015000Y-3315000D01*
X10015000Y-3285000D02*
X9985000Y-3315000D01*
X9985000Y-5260000D02*
X10015000Y-5290000D01*
X10015000Y-5260000D02*
X9985000Y-5290000D01*
X9985000Y-7985000D02*
X10015000Y-8015000D01*
X10015000Y-7985000D02*
X9985000Y-8015000D01*
X9985000Y-8985000D02*
X10015000Y-9015000D01*
X10015000Y-8985000D02*
X9985000Y-9015000D01*
X9985000Y-9985000D02*
X10015000Y-10015000D01*
X10015000Y-9985000D02*
X9985000Y-10015000D01*
X9985000Y-10985000D02*
X10015000Y-11015000D01*
X10015000Y-10985000D02*
X9985000Y-11015000D01*
X9985000Y-11985000D02*
X10015000Y-12015000D01*
X10015000Y-11985000D02*
X9985000Y-12015000D01*
X10035000Y-6085000D02*
X10065000Y-6115000D01*
X10065000Y-6085000D02*
X10035000Y-6115000D01*
X10085000Y-6585000D02*
X10115000Y-6615000D01*
X10115000Y-6585000D02*
X10085000Y-6615000D01*
X10135000Y-4652000D02*
X10165000Y-4682000D01*
X10165000Y-4652000D02*
X10135000Y-4682000D01*
X10135000Y-5335000D02*
X10165000Y-5365000D01*
X10165000Y-5335000D02*
X10135000Y-5365000D01*
X10235000Y-4660000D02*
X10265000Y-4690000D01*
X10265000Y-4660000D02*
X10235000Y-4690000D01*
X10235000Y-5935000D02*
X10265000Y-5965000D01*
X10265000Y-5935000D02*
X10235000Y-5965000D01*
X10260000Y-5335000D02*
X10290000Y-5365000D01*
X10290000Y-5335000D02*
X10260000Y-5365000D01*
X10335000Y-4660000D02*
X10365000Y-4690000D01*
X10365000Y-4660000D02*
X10335000Y-4690000D01*
X10360000Y-5335000D02*
X10390000Y-5365000D01*
X10390000Y-5335000D02*
X10360000Y-5365000D01*
X10460000Y-4760000D02*
X10490000Y-4790000D01*
X10490000Y-4760000D02*
X10460000Y-4790000D01*
X10460000Y-4860000D02*
X10490000Y-4890000D01*
X10490000Y-4860000D02*
X10460000Y-4890000D01*
X10460000Y-4985000D02*
X10490000Y-5015000D01*
X10490000Y-4985000D02*
X10460000Y-5015000D01*
X10460000Y-5085000D02*
X10490000Y-5115000D01*
X10490000Y-5085000D02*
X10460000Y-5115000D01*
X10460000Y-5185000D02*
X10490000Y-5215000D01*
X10490000Y-5185000D02*
X10460000Y-5215000D01*
X10460000Y-5285000D02*
X10490000Y-5315000D01*
X10490000Y-5285000D02*
X10460000Y-5315000D01*
X10485000Y-4485000D02*
X10515000Y-4515000D01*
X10515000Y-4485000D02*
X10485000Y-4515000D01*
X10485000Y-5485000D02*
X10515000Y-5515000D01*
X10515000Y-5485000D02*
X10485000Y-5515000D01*
X10485000Y-8635000D02*
X10515000Y-8665000D01*
X10515000Y-8635000D02*
X10485000Y-8665000D01*
X10585000Y-4335000D02*
X10615000Y-4365000D01*
X10615000Y-4335000D02*
X10585000Y-4365000D01*
X10625000Y-6635000D02*
X10655000Y-6665000D01*
X10655000Y-6635000D02*
X10625000Y-6665000D01*
X10735000Y-4485000D02*
X10765000Y-4515000D01*
X10765000Y-4485000D02*
X10735000Y-4515000D01*
X10885000Y-4335000D02*
X10915000Y-4365000D01*
X10915000Y-4335000D02*
X10885000Y-4365000D01*
X10925000Y-6485000D02*
X10955000Y-6515000D01*
X10955000Y-6485000D02*
X10925000Y-6515000D01*
X10985000Y-3285000D02*
X11015000Y-3315000D01*
X11015000Y-3285000D02*
X10985000Y-3315000D01*
X10985000Y-4485000D02*
X11015000Y-4515000D01*
X11015000Y-4485000D02*
X10985000Y-4515000D01*
X10985000Y-4985000D02*
X11015000Y-5015000D01*
X11015000Y-4985000D02*
X10985000Y-5015000D01*
X10985000Y-5485000D02*
X11015000Y-5515000D01*
X11015000Y-5485000D02*
X10985000Y-5515000D01*
X10985000Y-5935000D02*
X11015000Y-5965000D01*
X11015000Y-5935000D02*
X10985000Y-5965000D01*
X10985000Y-7985000D02*
X11015000Y-8015000D01*
X11015000Y-7985000D02*
X10985000Y-8015000D01*
X10985000Y-8985000D02*
X11015000Y-9015000D01*
X11015000Y-8985000D02*
X10985000Y-9015000D01*
X10985000Y-9985000D02*
X11015000Y-10015000D01*
X11015000Y-9985000D02*
X10985000Y-10015000D01*
X10985000Y-10985000D02*
X11015000Y-11015000D01*
X11015000Y-10985000D02*
X10985000Y-11015000D01*
X10985000Y-11985000D02*
X11015000Y-12015000D01*
X11015000Y-11985000D02*
X10985000Y-12015000D01*
X11135000Y-6265000D02*
X11165000Y-6295000D01*
X11165000Y-6265000D02*
X11135000Y-6295000D01*
X11235000Y-6560000D02*
X11265000Y-6590000D01*
X11265000Y-6560000D02*
X11235000Y-6590000D01*
X11260000Y-7410000D02*
X11290000Y-7440000D01*
X11290000Y-7410000D02*
X11260000Y-7440000D01*
X11485000Y-4485000D02*
X11515000Y-4515000D01*
X11515000Y-4485000D02*
X11485000Y-4515000D01*
X11485000Y-4985000D02*
X11515000Y-5015000D01*
X11515000Y-4985000D02*
X11485000Y-5015000D01*
X11485000Y-5485000D02*
X11515000Y-5515000D01*
X11515000Y-5485000D02*
X11485000Y-5515000D01*
X11485000Y-5935000D02*
X11515000Y-5965000D01*
X11515000Y-5935000D02*
X11485000Y-5965000D01*
X11645000Y-6655000D02*
X11675000Y-6685000D01*
X11675000Y-6655000D02*
X11645000Y-6685000D01*
X11785000Y-8144500D02*
X11815000Y-8174500D01*
X11815000Y-8144500D02*
X11785000Y-8174500D01*
X11835000Y-3735000D02*
X11865000Y-3765000D01*
X11865000Y-3735000D02*
X11835000Y-3765000D01*
X11835000Y-4335000D02*
X11865000Y-4365000D01*
X11865000Y-4335000D02*
X11835000Y-4365000D01*
X11910000Y-7810000D02*
X11940000Y-7840000D01*
X11940000Y-7810000D02*
X11910000Y-7840000D01*
X11985000Y-3285000D02*
X12015000Y-3315000D01*
X12015000Y-3285000D02*
X11985000Y-3315000D01*
X11985000Y-5485000D02*
X12015000Y-5515000D01*
X12015000Y-5485000D02*
X11985000Y-5515000D01*
X11985000Y-5935000D02*
X12015000Y-5965000D01*
X12015000Y-5935000D02*
X11985000Y-5965000D01*
X11985000Y-8885000D02*
X12015000Y-8915000D01*
X12015000Y-8885000D02*
X11985000Y-8915000D01*
X11985000Y-9985000D02*
X12015000Y-10015000D01*
X12015000Y-9985000D02*
X11985000Y-10015000D01*
X11985000Y-10985000D02*
X12015000Y-11015000D01*
X12015000Y-10985000D02*
X11985000Y-11015000D01*
X11985000Y-11985000D02*
X12015000Y-12015000D01*
X12015000Y-11985000D02*
X11985000Y-12015000D01*
X12271250Y-7051250D02*
X12301250Y-7081250D01*
X12301250Y-7051250D02*
X12271250Y-7081250D01*
X12385000Y-7410000D02*
X12415000Y-7440000D01*
X12415000Y-7410000D02*
X12385000Y-7440000D01*
X12610000Y-6910000D02*
X12640000Y-6940000D01*
X12640000Y-6910000D02*
X12610000Y-6940000D01*
X12960000Y-8410000D02*
X12990000Y-8440000D01*
X12990000Y-8410000D02*
X12960000Y-8440000D01*
X12985000Y-3285000D02*
X13015000Y-3315000D01*
X13015000Y-3285000D02*
X12985000Y-3315000D01*
X12985000Y-3985000D02*
X13015000Y-4015000D01*
X13015000Y-3985000D02*
X12985000Y-4015000D01*
X12985000Y-7635000D02*
X13015000Y-7665000D01*
X13015000Y-7635000D02*
X12985000Y-7665000D01*
X12985000Y-8885000D02*
X13015000Y-8915000D01*
X13015000Y-8885000D02*
X12985000Y-8915000D01*
X12985000Y-9985000D02*
X13015000Y-10015000D01*
X13015000Y-9985000D02*
X12985000Y-10015000D01*
X12985000Y-10985000D02*
X13015000Y-11015000D01*
X13015000Y-10985000D02*
X12985000Y-11015000D01*
X12985000Y-11985000D02*
X13015000Y-12015000D01*
X13015000Y-11985000D02*
X12985000Y-12015000D01*
X13110000Y-7935000D02*
X13140000Y-7965000D01*
X13140000Y-7935000D02*
X13110000Y-7965000D01*
X13135000Y-6135000D02*
X13165000Y-6165000D01*
X13165000Y-6135000D02*
X13135000Y-6165000D01*
X13235000Y-6035000D02*
X13265000Y-6065000D01*
X13265000Y-6035000D02*
X13235000Y-6065000D01*
X13235000Y-6285000D02*
X13265000Y-6315000D01*
X13265000Y-6285000D02*
X13235000Y-6315000D01*
X13255000Y-8271500D02*
X13285000Y-8301500D01*
X13285000Y-8271500D02*
X13255000Y-8301500D01*
X13345000Y-7335000D02*
X13375000Y-7365000D01*
X13375000Y-7335000D02*
X13345000Y-7365000D01*
X13435000Y-6035000D02*
X13465000Y-6065000D01*
X13465000Y-6035000D02*
X13435000Y-6065000D01*
X13485000Y-6285000D02*
X13515000Y-6315000D01*
X13515000Y-6285000D02*
X13485000Y-6315000D01*
X13485000Y-8035000D02*
X13515000Y-8065000D01*
X13515000Y-8035000D02*
X13485000Y-8065000D01*
X13485000Y-8210000D02*
X13515000Y-8240000D01*
X13515000Y-8210000D02*
X13485000Y-8240000D01*
X13535000Y-6135000D02*
X13565000Y-6165000D01*
X13565000Y-6135000D02*
X13535000Y-6165000D01*
X13985000Y-3285000D02*
X14015000Y-3315000D01*
X14015000Y-3285000D02*
X13985000Y-3315000D01*
X13985000Y-3985000D02*
X14015000Y-4015000D01*
X14015000Y-3985000D02*
X13985000Y-4015000D01*
X13985000Y-8885000D02*
X14015000Y-8915000D01*
X14015000Y-8885000D02*
X13985000Y-8915000D01*
X13985000Y-9985000D02*
X14015000Y-10015000D01*
X14015000Y-9985000D02*
X13985000Y-10015000D01*
X13985000Y-10985000D02*
X14015000Y-11015000D01*
X14015000Y-10985000D02*
X13985000Y-11015000D01*
X13985000Y-11985000D02*
X14015000Y-12015000D01*
X14015000Y-11985000D02*
X13985000Y-12015000D01*
X14185000Y-4835000D02*
X14215000Y-4865000D01*
X14215000Y-4835000D02*
X14185000Y-4865000D01*
X14185000Y-4935000D02*
X14215000Y-4965000D01*
X14215000Y-4935000D02*
X14185000Y-4965000D01*
X14185000Y-6385000D02*
X14215000Y-6415000D01*
X14215000Y-6385000D02*
X14185000Y-6415000D01*
X14185000Y-6485000D02*
X14215000Y-6515000D01*
X14215000Y-6485000D02*
X14185000Y-6515000D01*
X14735000Y-7635000D02*
X14765000Y-7665000D01*
X14765000Y-7635000D02*
X14735000Y-7665000D01*
X14735000Y-7760000D02*
X14765000Y-7790000D01*
X14765000Y-7760000D02*
X14735000Y-7790000D01*
X14985000Y-3285000D02*
X15015000Y-3315000D01*
X15015000Y-3285000D02*
X14985000Y-3315000D01*
X14985000Y-9985000D02*
X15015000Y-10015000D01*
X15015000Y-9985000D02*
X14985000Y-10015000D01*
X14985000Y-10985000D02*
X15015000Y-11015000D01*
X15015000Y-10985000D02*
X14985000Y-11015000D01*
X14985000Y-11985000D02*
X15015000Y-12015000D01*
X15015000Y-11985000D02*
X14985000Y-12015000D01*
X15985000Y-3285000D02*
X16015000Y-3315000D01*
X16015000Y-3285000D02*
X15985000Y-3315000D01*
X15985000Y-3985000D02*
X16015000Y-4015000D01*
X16015000Y-3985000D02*
X15985000Y-4015000D01*
X15985000Y-4985000D02*
X16015000Y-5015000D01*
X16015000Y-4985000D02*
X15985000Y-5015000D01*
X15985000Y-5985000D02*
X16015000Y-6015000D01*
X16015000Y-5985000D02*
X15985000Y-6015000D01*
X15985000Y-6985000D02*
X16015000Y-7015000D01*
X16015000Y-6985000D02*
X15985000Y-7015000D01*
X15985000Y-7985000D02*
X16015000Y-8015000D01*
X16015000Y-7985000D02*
X15985000Y-8015000D01*
X15985000Y-8985000D02*
X16015000Y-9015000D01*
X16015000Y-8985000D02*
X15985000Y-9015000D01*
X15985000Y-9985000D02*
X16015000Y-10015000D01*
X16015000Y-9985000D02*
X15985000Y-10015000D01*
X15985000Y-10985000D02*
X16015000Y-11015000D01*
X16015000Y-10985000D02*
X15985000Y-11015000D01*
X15985000Y-11985000D02*
X16015000Y-12015000D01*
X16015000Y-11985000D02*
X15985000Y-12015000D01*
X16985000Y-3285000D02*
X17015000Y-3315000D01*
X17015000Y-3285000D02*
X16985000Y-3315000D01*
X16985000Y-3985000D02*
X17015000Y-4015000D01*
X17015000Y-3985000D02*
X16985000Y-4015000D01*
X16985000Y-4985000D02*
X17015000Y-5015000D01*
X17015000Y-4985000D02*
X16985000Y-5015000D01*
X16985000Y-5985000D02*
X17015000Y-6015000D01*
X17015000Y-5985000D02*
X16985000Y-6015000D01*
X16985000Y-6985000D02*
X17015000Y-7015000D01*
X17015000Y-6985000D02*
X16985000Y-7015000D01*
X16985000Y-7985000D02*
X17015000Y-8015000D01*
X17015000Y-7985000D02*
X16985000Y-8015000D01*
X16985000Y-8985000D02*
X17015000Y-9015000D01*
X17015000Y-8985000D02*
X16985000Y-9015000D01*
X16985000Y-9985000D02*
X17015000Y-10015000D01*
X17015000Y-9985000D02*
X16985000Y-10015000D01*
X16985000Y-10985000D02*
X17015000Y-11015000D01*
X17015000Y-10985000D02*
X16985000Y-11015000D01*
X16985000Y-11985000D02*
X17015000Y-12015000D01*
X17015000Y-11985000D02*
X16985000Y-12015000D01*
X17985000Y-3285000D02*
X18015000Y-3315000D01*
X18015000Y-3285000D02*
X17985000Y-3315000D01*
X17985000Y-3985000D02*
X18015000Y-4015000D01*
X18015000Y-3985000D02*
X17985000Y-4015000D01*
X17985000Y-4985000D02*
X18015000Y-5015000D01*
X18015000Y-4985000D02*
X17985000Y-5015000D01*
X17985000Y-5985000D02*
X18015000Y-6015000D01*
X18015000Y-5985000D02*
X17985000Y-6015000D01*
X17985000Y-6985000D02*
X18015000Y-7015000D01*
X18015000Y-6985000D02*
X17985000Y-7015000D01*
X17985000Y-7985000D02*
X18015000Y-8015000D01*
X18015000Y-7985000D02*
X17985000Y-8015000D01*
X17985000Y-8985000D02*
X18015000Y-9015000D01*
X18015000Y-8985000D02*
X17985000Y-9015000D01*
X17985000Y-9985000D02*
X18015000Y-10015000D01*
X18015000Y-9985000D02*
X17985000Y-10015000D01*
X17985000Y-10985000D02*
X18015000Y-11015000D01*
X18015000Y-10985000D02*
X17985000Y-11015000D01*
X17985000Y-11985000D02*
X18015000Y-12015000D01*
X18015000Y-11985000D02*
X17985000Y-12015000D01*
X18985000Y-3285000D02*
X19015000Y-3315000D01*
X19015000Y-3285000D02*
X18985000Y-3315000D01*
X18985000Y-3985000D02*
X19015000Y-4015000D01*
X19015000Y-3985000D02*
X18985000Y-4015000D01*
X18985000Y-4985000D02*
X19015000Y-5015000D01*
X19015000Y-4985000D02*
X18985000Y-5015000D01*
X18985000Y-5985000D02*
X19015000Y-6015000D01*
X19015000Y-5985000D02*
X18985000Y-6015000D01*
X18985000Y-6985000D02*
X19015000Y-7015000D01*
X19015000Y-6985000D02*
X18985000Y-7015000D01*
X18985000Y-7985000D02*
X19015000Y-8015000D01*
X19015000Y-7985000D02*
X18985000Y-8015000D01*
X18985000Y-8985000D02*
X19015000Y-9015000D01*
X19015000Y-8985000D02*
X18985000Y-9015000D01*
X18985000Y-9985000D02*
X19015000Y-10015000D01*
X19015000Y-9985000D02*
X18985000Y-10015000D01*
X18985000Y-10985000D02*
X19015000Y-11015000D01*
X19015000Y-10985000D02*
X18985000Y-11015000D01*
X18985000Y-11985000D02*
X19015000Y-12015000D01*
X19015000Y-11985000D02*
X18985000Y-12015000D01*
X19985000Y-3285000D02*
X20015000Y-3315000D01*
X20015000Y-3285000D02*
X19985000Y-3315000D01*
X19985000Y-7985000D02*
X20015000Y-8015000D01*
X20015000Y-7985000D02*
X19985000Y-8015000D01*
X19985000Y-9985000D02*
X20015000Y-10015000D01*
X20015000Y-9985000D02*
X19985000Y-10015000D01*
X19985000Y-10985000D02*
X20015000Y-11015000D01*
X20015000Y-10985000D02*
X19985000Y-11015000D01*
X19985000Y-11985000D02*
X20015000Y-12015000D01*
X20015000Y-11985000D02*
X19985000Y-12015000D01*
X20260000Y-7960000D02*
X20290000Y-7990000D01*
X20290000Y-7960000D02*
X20260000Y-7990000D01*
X20285000Y-6085000D02*
X20315000Y-6115000D01*
X20315000Y-6085000D02*
X20285000Y-6115000D01*
X20285000Y-6235000D02*
X20315000Y-6265000D01*
X20315000Y-6235000D02*
X20285000Y-6265000D01*
X20285000Y-6410000D02*
X20315000Y-6440000D01*
X20315000Y-6410000D02*
X20285000Y-6440000D01*
X20285000Y-6535000D02*
X20315000Y-6565000D01*
X20315000Y-6535000D02*
X20285000Y-6565000D01*
X20285000Y-7885000D02*
X20315000Y-7915000D01*
X20315000Y-7885000D02*
X20285000Y-7915000D01*
X20285000Y-8035000D02*
X20315000Y-8065000D01*
X20315000Y-8035000D02*
X20285000Y-8065000D01*
X20835000Y-6360000D02*
X20865000Y-6390000D01*
X20865000Y-6360000D02*
X20835000Y-6390000D01*
X20835000Y-6510000D02*
X20865000Y-6540000D01*
X20865000Y-6510000D02*
X20835000Y-6540000D01*
X20985000Y-3285000D02*
X21015000Y-3315000D01*
X21015000Y-3285000D02*
X20985000Y-3315000D01*
X20985000Y-3985000D02*
X21015000Y-4015000D01*
X21015000Y-3985000D02*
X20985000Y-4015000D01*
X20985000Y-4985000D02*
X21015000Y-5015000D01*
X21015000Y-4985000D02*
X20985000Y-5015000D01*
X20985000Y-5985000D02*
X21015000Y-6015000D01*
X21015000Y-5985000D02*
X20985000Y-6015000D01*
X20985000Y-6985000D02*
X21015000Y-7015000D01*
X21015000Y-6985000D02*
X20985000Y-7015000D01*
X20985000Y-8985000D02*
X21015000Y-9015000D01*
X21015000Y-8985000D02*
X20985000Y-9015000D01*
X20985000Y-9985000D02*
X21015000Y-10015000D01*
X21015000Y-9985000D02*
X20985000Y-10015000D01*
X20985000Y-10985000D02*
X21015000Y-11015000D01*
X21015000Y-10985000D02*
X20985000Y-11015000D01*
X20985000Y-11985000D02*
X21015000Y-12015000D01*
X21015000Y-11985000D02*
X20985000Y-12015000D01*
X21155000Y-8125000D02*
X21185000Y-8155000D01*
X21185000Y-8125000D02*
X21155000Y-8155000D01*
X21155000Y-8275000D02*
X21185000Y-8305000D01*
X21185000Y-8275000D02*
X21155000Y-8305000D01*
X21345000Y-8125000D02*
X21375000Y-8155000D01*
X21375000Y-8125000D02*
X21345000Y-8155000D01*
X21345000Y-8275000D02*
X21375000Y-8305000D01*
X21375000Y-8275000D02*
X21345000Y-8305000D01*
X7606500Y-7180000D02*
G75*
G02*
X7576500Y-7180000I-15000J0D01*
G01*
X7576500Y-7180000D02*
G75*
G02*
X7606500Y-7180000I15000J0D01*
G01*
X7606500Y-7310000D02*
G75*
G02*
X7576500Y-7310000I-15000J0D01*
G01*
X7576500Y-7310000D02*
G75*
G02*
X7606500Y-7310000I15000J0D01*
G01*
X7736500Y-7180000D02*
G75*
G02*
X7706500Y-7180000I-15000J0D01*
G01*
X7706500Y-7180000D02*
G75*
G02*
X7736500Y-7180000I15000J0D01*
G01*
X7736500Y-7310000D02*
G75*
G02*
X7706500Y-7310000I-15000J0D01*
G01*
X7706500Y-7310000D02*
G75*
G02*
X7736500Y-7310000I15000J0D01*
G01*
X7866500Y-7180000D02*
G75*
G02*
X7836500Y-7180000I-15000J0D01*
G01*
X7836500Y-7180000D02*
G75*
G02*
X7866500Y-7180000I15000J0D01*
G01*
X7866500Y-7310000D02*
G75*
G02*
X7836500Y-7310000I-15000J0D01*
G01*
X7836500Y-7310000D02*
G75*
G02*
X7866500Y-7310000I15000J0D01*
G01*
X7996500Y-7180000D02*
G75*
G02*
X7966500Y-7180000I-15000J0D01*
G01*
X7966500Y-7180000D02*
G75*
G02*
X7996500Y-7180000I15000J0D01*
G01*
X7996500Y-7310000D02*
G75*
G02*
X7966500Y-7310000I-15000J0D01*
G01*
X7966500Y-7310000D02*
G75*
G02*
X7996500Y-7310000I15000J0D01*
G01*
X10500000Y-10335000D02*
X10500000Y-10415000D01*
X10460000Y-10375000D02*
X10540000Y-10375000D01*
X10500000Y-10585000D02*
X10500000Y-10665000D01*
X10460000Y-10625000D02*
X10540000Y-10625000D01*
X10500000Y-10835000D02*
X10500000Y-10915000D01*
X10460000Y-10875000D02*
X10540000Y-10875000D01*
X10640000Y-8350000D02*
X10640000Y-8430000D01*
X10600000Y-8390000D02*
X10680000Y-8390000D01*
X10640000Y-8600000D02*
X10640000Y-8680000D01*
X10600000Y-8640000D02*
X10680000Y-8640000D01*
X10640000Y-8850000D02*
X10640000Y-8930000D01*
X10600000Y-8890000D02*
X10680000Y-8890000D01*
X13730052Y-7880052D02*
X13730052Y-7819948D01*
X13669948Y-7819948D01*
X13669948Y-7880052D01*
X13730052Y-7880052D01*
X13730052Y-8080052D02*
X13730052Y-8019948D01*
X13669948Y-8019948D01*
X13669948Y-8080052D01*
X13730052Y-8080052D01*
X13730052Y-8280052D02*
X13730052Y-8219948D01*
X13669948Y-8219948D01*
X13669948Y-8280052D01*
X13730052Y-8280052D01*
X13730052Y-8480052D02*
X13730052Y-8419948D01*
X13669948Y-8419948D01*
X13669948Y-8480052D01*
X13730052Y-8480052D01*
X8136390Y-8774360D02*
X8181390Y-8729360D01*
X8136390Y-8684360D01*
X8091390Y-8729360D01*
X8136390Y-8774360D01*
X8136390Y-9028360D02*
X8181390Y-8983360D01*
X8136390Y-8938360D01*
X8091390Y-8983360D01*
X8136390Y-9028360D01*
X8700000Y-3798350D02*
X8800000Y-3898350D01*
X8800000Y-3798350D02*
X8700000Y-3898350D01*
X8800000Y-3848350D02*
G75*
G02*
X8700000Y-3848350I-50000J0D01*
G01*
X8700000Y-3848350D02*
G75*
G02*
X8800000Y-3848350I50000J0D01*
G01*
X8700000Y-4300000D02*
X8800000Y-4400000D01*
X8800000Y-4300000D02*
X8700000Y-4400000D01*
X8800000Y-4350000D02*
G75*
G02*
X8700000Y-4350000I-50000J0D01*
G01*
X8700000Y-4350000D02*
G75*
G02*
X8800000Y-4350000I50000J0D01*
G01*
X10700000Y-3798350D02*
X10800000Y-3898350D01*
X10800000Y-3798350D02*
X10700000Y-3898350D01*
X10800000Y-3848350D02*
G75*
G02*
X10700000Y-3848350I-50000J0D01*
G01*
X10700000Y-3848350D02*
G75*
G02*
X10800000Y-3848350I50000J0D01*
G01*
X10700000Y-4300000D02*
X10800000Y-4400000D01*
X10800000Y-4300000D02*
X10700000Y-4400000D01*
X10800000Y-4350000D02*
G75*
G02*
X10700000Y-4350000I-50000J0D01*
G01*
X10700000Y-4350000D02*
G75*
G02*
X10800000Y-4350000I50000J0D01*
G01*
D13*
X14297000Y-4103000D02*
X14399000Y-4205000D01*
X14399000Y-4103000D02*
X14297000Y-4205000D01*
X14348000Y-4103000D02*
X14348000Y-4205000D01*
X14297000Y-4154000D02*
X14399000Y-4154000D01*
X14297000Y-4357000D02*
X14399000Y-4459000D01*
X14399000Y-4357000D02*
X14297000Y-4459000D01*
X14348000Y-4357000D02*
X14348000Y-4459000D01*
X14297000Y-4408000D02*
X14399000Y-4408000D01*
X14297000Y-4611000D02*
X14399000Y-4713000D01*
X14399000Y-4611000D02*
X14297000Y-4713000D01*
X14348000Y-4611000D02*
X14348000Y-4713000D01*
X14297000Y-4662000D02*
X14399000Y-4662000D01*
X14297000Y-4865000D02*
X14399000Y-4967000D01*
X14399000Y-4865000D02*
X14297000Y-4967000D01*
X14348000Y-4865000D02*
X14348000Y-4967000D01*
X14297000Y-4916000D02*
X14399000Y-4916000D01*
X14297000Y-5119000D02*
X14399000Y-5221000D01*
X14399000Y-5119000D02*
X14297000Y-5221000D01*
X14348000Y-5119000D02*
X14348000Y-5221000D01*
X14297000Y-5170000D02*
X14399000Y-5170000D01*
X14297000Y-5373000D02*
X14399000Y-5475000D01*
X14399000Y-5373000D02*
X14297000Y-5475000D01*
X14348000Y-5373000D02*
X14348000Y-5475000D01*
X14297000Y-5424000D02*
X14399000Y-5424000D01*
X14297000Y-5627000D02*
X14399000Y-5729000D01*
X14399000Y-5627000D02*
X14297000Y-5729000D01*
X14348000Y-5627000D02*
X14348000Y-5729000D01*
X14297000Y-5678000D02*
X14399000Y-5678000D01*
X14297000Y-5881000D02*
X14399000Y-5983000D01*
X14399000Y-5881000D02*
X14297000Y-5983000D01*
X14348000Y-5881000D02*
X14348000Y-5983000D01*
X14297000Y-5932000D02*
X14399000Y-5932000D01*
X14297000Y-6135000D02*
X14399000Y-6237000D01*
X14399000Y-6135000D02*
X14297000Y-6237000D01*
X14348000Y-6135000D02*
X14348000Y-6237000D01*
X14297000Y-6186000D02*
X14399000Y-6186000D01*
X14297000Y-6389000D02*
X14399000Y-6491000D01*
X14399000Y-6389000D02*
X14297000Y-6491000D01*
X14348000Y-6389000D02*
X14348000Y-6491000D01*
X14297000Y-6440000D02*
X14399000Y-6440000D01*
X14297000Y-6643000D02*
X14399000Y-6745000D01*
X14399000Y-6643000D02*
X14297000Y-6745000D01*
X14348000Y-6643000D02*
X14348000Y-6745000D01*
X14297000Y-6694000D02*
X14399000Y-6694000D01*
X14297000Y-6897000D02*
X14399000Y-6999000D01*
X14399000Y-6897000D02*
X14297000Y-6999000D01*
X14348000Y-6897000D02*
X14348000Y-6999000D01*
X14297000Y-6948000D02*
X14399000Y-6948000D01*
X14297000Y-7151000D02*
X14399000Y-7253000D01*
X14399000Y-7151000D02*
X14297000Y-7253000D01*
X14348000Y-7151000D02*
X14348000Y-7253000D01*
X14297000Y-7202000D02*
X14399000Y-7202000D01*
X14297000Y-7405000D02*
X14399000Y-7507000D01*
X14399000Y-7405000D02*
X14297000Y-7507000D01*
X14348000Y-7405000D02*
X14348000Y-7507000D01*
X14297000Y-7456000D02*
X14399000Y-7456000D01*
X14297000Y-7659000D02*
X14399000Y-7761000D01*
X14399000Y-7659000D02*
X14297000Y-7761000D01*
X14348000Y-7659000D02*
X14348000Y-7761000D01*
X14297000Y-7710000D02*
X14399000Y-7710000D01*
X14297000Y-7913000D02*
X14399000Y-8015000D01*
X14399000Y-7913000D02*
X14297000Y-8015000D01*
X14348000Y-7913000D02*
X14348000Y-8015000D01*
X14297000Y-7964000D02*
X14399000Y-7964000D01*
X14297000Y-8167000D02*
X14399000Y-8269000D01*
X14399000Y-8167000D02*
X14297000Y-8269000D01*
X14348000Y-8167000D02*
X14348000Y-8269000D01*
X14297000Y-8218000D02*
X14399000Y-8218000D01*
X14297000Y-8421000D02*
X14399000Y-8523000D01*
X14399000Y-8421000D02*
X14297000Y-8523000D01*
X14348000Y-8421000D02*
X14348000Y-8523000D01*
X14297000Y-8472000D02*
X14399000Y-8472000D01*
X14297000Y-8675000D02*
X14399000Y-8777000D01*
X14399000Y-8675000D02*
X14297000Y-8777000D01*
X14348000Y-8675000D02*
X14348000Y-8777000D01*
X14297000Y-8726000D02*
X14399000Y-8726000D01*
X14551000Y-4103000D02*
X14653000Y-4205000D01*
X14653000Y-4103000D02*
X14551000Y-4205000D01*
X14602000Y-4103000D02*
X14602000Y-4205000D01*
X14551000Y-4154000D02*
X14653000Y-4154000D01*
X14551000Y-4357000D02*
X14653000Y-4459000D01*
X14653000Y-4357000D02*
X14551000Y-4459000D01*
X14602000Y-4357000D02*
X14602000Y-4459000D01*
X14551000Y-4408000D02*
X14653000Y-4408000D01*
X14551000Y-4611000D02*
X14653000Y-4713000D01*
X14653000Y-4611000D02*
X14551000Y-4713000D01*
X14602000Y-4611000D02*
X14602000Y-4713000D01*
X14551000Y-4662000D02*
X14653000Y-4662000D01*
X14551000Y-4865000D02*
X14653000Y-4967000D01*
X14653000Y-4865000D02*
X14551000Y-4967000D01*
X14602000Y-4865000D02*
X14602000Y-4967000D01*
X14551000Y-4916000D02*
X14653000Y-4916000D01*
X14551000Y-5119000D02*
X14653000Y-5221000D01*
X14653000Y-5119000D02*
X14551000Y-5221000D01*
X14602000Y-5119000D02*
X14602000Y-5221000D01*
X14551000Y-5170000D02*
X14653000Y-5170000D01*
X14551000Y-5373000D02*
X14653000Y-5475000D01*
X14653000Y-5373000D02*
X14551000Y-5475000D01*
X14602000Y-5373000D02*
X14602000Y-5475000D01*
X14551000Y-5424000D02*
X14653000Y-5424000D01*
X14551000Y-5627000D02*
X14653000Y-5729000D01*
X14653000Y-5627000D02*
X14551000Y-5729000D01*
X14602000Y-5627000D02*
X14602000Y-5729000D01*
X14551000Y-5678000D02*
X14653000Y-5678000D01*
X14551000Y-5881000D02*
X14653000Y-5983000D01*
X14653000Y-5881000D02*
X14551000Y-5983000D01*
X14602000Y-5881000D02*
X14602000Y-5983000D01*
X14551000Y-5932000D02*
X14653000Y-5932000D01*
X14551000Y-6135000D02*
X14653000Y-6237000D01*
X14653000Y-6135000D02*
X14551000Y-6237000D01*
X14602000Y-6135000D02*
X14602000Y-6237000D01*
X14551000Y-6186000D02*
X14653000Y-6186000D01*
X14551000Y-6389000D02*
X14653000Y-6491000D01*
X14653000Y-6389000D02*
X14551000Y-6491000D01*
X14602000Y-6389000D02*
X14602000Y-6491000D01*
X14551000Y-6440000D02*
X14653000Y-6440000D01*
X14551000Y-6643000D02*
X14653000Y-6745000D01*
X14653000Y-6643000D02*
X14551000Y-6745000D01*
X14602000Y-6643000D02*
X14602000Y-6745000D01*
X14551000Y-6694000D02*
X14653000Y-6694000D01*
X14551000Y-6897000D02*
X14653000Y-6999000D01*
X14653000Y-6897000D02*
X14551000Y-6999000D01*
X14602000Y-6897000D02*
X14602000Y-6999000D01*
X14551000Y-6948000D02*
X14653000Y-6948000D01*
X14551000Y-7151000D02*
X14653000Y-7253000D01*
X14653000Y-7151000D02*
X14551000Y-7253000D01*
X14602000Y-7151000D02*
X14602000Y-7253000D01*
X14551000Y-7202000D02*
X14653000Y-7202000D01*
X14551000Y-7405000D02*
X14653000Y-7507000D01*
X14653000Y-7405000D02*
X14551000Y-7507000D01*
X14602000Y-7405000D02*
X14602000Y-7507000D01*
X14551000Y-7456000D02*
X14653000Y-7456000D01*
X14551000Y-7659000D02*
X14653000Y-7761000D01*
X14653000Y-7659000D02*
X14551000Y-7761000D01*
X14602000Y-7659000D02*
X14602000Y-7761000D01*
X14551000Y-7710000D02*
X14653000Y-7710000D01*
X14551000Y-7913000D02*
X14653000Y-8015000D01*
X14653000Y-7913000D02*
X14551000Y-8015000D01*
X14602000Y-7913000D02*
X14602000Y-8015000D01*
X14551000Y-7964000D02*
X14653000Y-7964000D01*
X14551000Y-8167000D02*
X14653000Y-8269000D01*
X14653000Y-8167000D02*
X14551000Y-8269000D01*
X14602000Y-8167000D02*
X14602000Y-8269000D01*
X14551000Y-8218000D02*
X14653000Y-8218000D01*
X14551000Y-8421000D02*
X14653000Y-8523000D01*
X14653000Y-8421000D02*
X14551000Y-8523000D01*
X14602000Y-8421000D02*
X14602000Y-8523000D01*
X14551000Y-8472000D02*
X14653000Y-8472000D01*
X14551000Y-8675000D02*
X14653000Y-8777000D01*
X14653000Y-8675000D02*
X14551000Y-8777000D01*
X14602000Y-8675000D02*
X14602000Y-8777000D01*
X14551000Y-8726000D02*
X14653000Y-8726000D01*
X20393000Y-4103000D02*
X20495000Y-4205000D01*
X20495000Y-4103000D02*
X20393000Y-4205000D01*
X20444000Y-4103000D02*
X20444000Y-4205000D01*
X20393000Y-4154000D02*
X20495000Y-4154000D01*
X20393000Y-4357000D02*
X20495000Y-4459000D01*
X20495000Y-4357000D02*
X20393000Y-4459000D01*
X20444000Y-4357000D02*
X20444000Y-4459000D01*
X20393000Y-4408000D02*
X20495000Y-4408000D01*
X20393000Y-4611000D02*
X20495000Y-4713000D01*
X20495000Y-4611000D02*
X20393000Y-4713000D01*
X20444000Y-4611000D02*
X20444000Y-4713000D01*
X20393000Y-4662000D02*
X20495000Y-4662000D01*
X20393000Y-4865000D02*
X20495000Y-4967000D01*
X20495000Y-4865000D02*
X20393000Y-4967000D01*
X20444000Y-4865000D02*
X20444000Y-4967000D01*
X20393000Y-4916000D02*
X20495000Y-4916000D01*
X20393000Y-5119000D02*
X20495000Y-5221000D01*
X20495000Y-5119000D02*
X20393000Y-5221000D01*
X20444000Y-5119000D02*
X20444000Y-5221000D01*
X20393000Y-5170000D02*
X20495000Y-5170000D01*
X20393000Y-5373000D02*
X20495000Y-5475000D01*
X20495000Y-5373000D02*
X20393000Y-5475000D01*
X20444000Y-5373000D02*
X20444000Y-5475000D01*
X20393000Y-5424000D02*
X20495000Y-5424000D01*
X20393000Y-5627000D02*
X20495000Y-5729000D01*
X20495000Y-5627000D02*
X20393000Y-5729000D01*
X20444000Y-5627000D02*
X20444000Y-5729000D01*
X20393000Y-5678000D02*
X20495000Y-5678000D01*
X20393000Y-5881000D02*
X20495000Y-5983000D01*
X20495000Y-5881000D02*
X20393000Y-5983000D01*
X20444000Y-5881000D02*
X20444000Y-5983000D01*
X20393000Y-5932000D02*
X20495000Y-5932000D01*
X20393000Y-6135000D02*
X20495000Y-6237000D01*
X20495000Y-6135000D02*
X20393000Y-6237000D01*
X20444000Y-6135000D02*
X20444000Y-6237000D01*
X20393000Y-6186000D02*
X20495000Y-6186000D01*
X20393000Y-6389000D02*
X20495000Y-6491000D01*
X20495000Y-6389000D02*
X20393000Y-6491000D01*
X20444000Y-6389000D02*
X20444000Y-6491000D01*
X20393000Y-6440000D02*
X20495000Y-6440000D01*
X20393000Y-6643000D02*
X20495000Y-6745000D01*
X20495000Y-6643000D02*
X20393000Y-6745000D01*
X20444000Y-6643000D02*
X20444000Y-6745000D01*
X20393000Y-6694000D02*
X20495000Y-6694000D01*
X20393000Y-6897000D02*
X20495000Y-6999000D01*
X20495000Y-6897000D02*
X20393000Y-6999000D01*
X20444000Y-6897000D02*
X20444000Y-6999000D01*
X20393000Y-6948000D02*
X20495000Y-6948000D01*
X20393000Y-7151000D02*
X20495000Y-7253000D01*
X20495000Y-7151000D02*
X20393000Y-7253000D01*
X20444000Y-7151000D02*
X20444000Y-7253000D01*
X20393000Y-7202000D02*
X20495000Y-7202000D01*
X20393000Y-7405000D02*
X20495000Y-7507000D01*
X20495000Y-7405000D02*
X20393000Y-7507000D01*
X20444000Y-7405000D02*
X20444000Y-7507000D01*
X20393000Y-7456000D02*
X20495000Y-7456000D01*
X20393000Y-7659000D02*
X20495000Y-7761000D01*
X20495000Y-7659000D02*
X20393000Y-7761000D01*
X20444000Y-7659000D02*
X20444000Y-7761000D01*
X20393000Y-7710000D02*
X20495000Y-7710000D01*
X20393000Y-7913000D02*
X20495000Y-8015000D01*
X20495000Y-7913000D02*
X20393000Y-8015000D01*
X20444000Y-7913000D02*
X20444000Y-8015000D01*
X20393000Y-7964000D02*
X20495000Y-7964000D01*
X20393000Y-8167000D02*
X20495000Y-8269000D01*
X20495000Y-8167000D02*
X20393000Y-8269000D01*
X20444000Y-8167000D02*
X20444000Y-8269000D01*
X20393000Y-8218000D02*
X20495000Y-8218000D01*
X20393000Y-8421000D02*
X20495000Y-8523000D01*
X20495000Y-8421000D02*
X20393000Y-8523000D01*
X20444000Y-8421000D02*
X20444000Y-8523000D01*
X20393000Y-8472000D02*
X20495000Y-8472000D01*
X20393000Y-8675000D02*
X20495000Y-8777000D01*
X20495000Y-8675000D02*
X20393000Y-8777000D01*
X20444000Y-8675000D02*
X20444000Y-8777000D01*
X20393000Y-8726000D02*
X20495000Y-8726000D01*
X20647000Y-4103000D02*
X20749000Y-4205000D01*
X20749000Y-4103000D02*
X20647000Y-4205000D01*
X20698000Y-4103000D02*
X20698000Y-4205000D01*
X20647000Y-4154000D02*
X20749000Y-4154000D01*
X20647000Y-4357000D02*
X20749000Y-4459000D01*
X20749000Y-4357000D02*
X20647000Y-4459000D01*
X20698000Y-4357000D02*
X20698000Y-4459000D01*
X20647000Y-4408000D02*
X20749000Y-4408000D01*
X20647000Y-4611000D02*
X20749000Y-4713000D01*
X20749000Y-4611000D02*
X20647000Y-4713000D01*
X20698000Y-4611000D02*
X20698000Y-4713000D01*
X20647000Y-4662000D02*
X20749000Y-4662000D01*
X20647000Y-4865000D02*
X20749000Y-4967000D01*
X20749000Y-4865000D02*
X20647000Y-4967000D01*
X20698000Y-4865000D02*
X20698000Y-4967000D01*
X20647000Y-4916000D02*
X20749000Y-4916000D01*
X20647000Y-5119000D02*
X20749000Y-5221000D01*
X20749000Y-5119000D02*
X20647000Y-5221000D01*
X20698000Y-5119000D02*
X20698000Y-5221000D01*
X20647000Y-5170000D02*
X20749000Y-5170000D01*
X20647000Y-5373000D02*
X20749000Y-5475000D01*
X20749000Y-5373000D02*
X20647000Y-5475000D01*
X20698000Y-5373000D02*
X20698000Y-5475000D01*
X20647000Y-5424000D02*
X20749000Y-5424000D01*
X20647000Y-5627000D02*
X20749000Y-5729000D01*
X20749000Y-5627000D02*
X20647000Y-5729000D01*
X20698000Y-5627000D02*
X20698000Y-5729000D01*
X20647000Y-5678000D02*
X20749000Y-5678000D01*
X20647000Y-5881000D02*
X20749000Y-5983000D01*
X20749000Y-5881000D02*
X20647000Y-5983000D01*
X20698000Y-5881000D02*
X20698000Y-5983000D01*
X20647000Y-5932000D02*
X20749000Y-5932000D01*
X20647000Y-6135000D02*
X20749000Y-6237000D01*
X20749000Y-6135000D02*
X20647000Y-6237000D01*
X20698000Y-6135000D02*
X20698000Y-6237000D01*
X20647000Y-6186000D02*
X20749000Y-6186000D01*
X20647000Y-6389000D02*
X20749000Y-6491000D01*
X20749000Y-6389000D02*
X20647000Y-6491000D01*
X20698000Y-6389000D02*
X20698000Y-6491000D01*
X20647000Y-6440000D02*
X20749000Y-6440000D01*
X20647000Y-6643000D02*
X20749000Y-6745000D01*
X20749000Y-6643000D02*
X20647000Y-6745000D01*
X20698000Y-6643000D02*
X20698000Y-6745000D01*
X20647000Y-6694000D02*
X20749000Y-6694000D01*
X20647000Y-6897000D02*
X20749000Y-6999000D01*
X20749000Y-6897000D02*
X20647000Y-6999000D01*
X20698000Y-6897000D02*
X20698000Y-6999000D01*
X20647000Y-6948000D02*
X20749000Y-6948000D01*
X20647000Y-7151000D02*
X20749000Y-7253000D01*
X20749000Y-7151000D02*
X20647000Y-7253000D01*
X20698000Y-7151000D02*
X20698000Y-7253000D01*
X20647000Y-7202000D02*
X20749000Y-7202000D01*
X20647000Y-7405000D02*
X20749000Y-7507000D01*
X20749000Y-7405000D02*
X20647000Y-7507000D01*
X20698000Y-7405000D02*
X20698000Y-7507000D01*
X20647000Y-7456000D02*
X20749000Y-7456000D01*
X20647000Y-7659000D02*
X20749000Y-7761000D01*
X20749000Y-7659000D02*
X20647000Y-7761000D01*
X20698000Y-7659000D02*
X20698000Y-7761000D01*
X20647000Y-7710000D02*
X20749000Y-7710000D01*
X20647000Y-7913000D02*
X20749000Y-8015000D01*
X20749000Y-7913000D02*
X20647000Y-8015000D01*
X20698000Y-7913000D02*
X20698000Y-8015000D01*
X20647000Y-7964000D02*
X20749000Y-7964000D01*
X20647000Y-8167000D02*
X20749000Y-8269000D01*
X20749000Y-8167000D02*
X20647000Y-8269000D01*
X20698000Y-8167000D02*
X20698000Y-8269000D01*
X20647000Y-8218000D02*
X20749000Y-8218000D01*
X20647000Y-8421000D02*
X20749000Y-8523000D01*
X20749000Y-8421000D02*
X20647000Y-8523000D01*
X20698000Y-8421000D02*
X20698000Y-8523000D01*
X20647000Y-8472000D02*
X20749000Y-8472000D01*
X20647000Y-8675000D02*
X20749000Y-8777000D01*
X20749000Y-8675000D02*
X20647000Y-8777000D01*
X20698000Y-8675000D02*
X20698000Y-8777000D01*
X20647000Y-8726000D02*
X20749000Y-8726000D01*
D14*
X15056500Y-4100500D02*
X15163500Y-4207500D01*
X15163500Y-4100500D02*
X15056500Y-4207500D01*
X15147831Y-4191831D02*
X15147831Y-4116169D01*
X15072169Y-4116169D01*
X15072169Y-4191831D01*
X15147831Y-4191831D01*
X15056500Y-4354500D02*
X15163500Y-4461500D01*
X15163500Y-4354500D02*
X15056500Y-4461500D01*
X15147831Y-4445831D02*
X15147831Y-4370169D01*
X15072169Y-4370169D01*
X15072169Y-4445831D01*
X15147831Y-4445831D01*
X15056500Y-4608500D02*
X15163500Y-4715500D01*
X15163500Y-4608500D02*
X15056500Y-4715500D01*
X15147831Y-4699831D02*
X15147831Y-4624169D01*
X15072169Y-4624169D01*
X15072169Y-4699831D01*
X15147831Y-4699831D01*
X15056500Y-4862500D02*
X15163500Y-4969500D01*
X15163500Y-4862500D02*
X15056500Y-4969500D01*
X15147831Y-4953831D02*
X15147831Y-4878169D01*
X15072169Y-4878169D01*
X15072169Y-4953831D01*
X15147831Y-4953831D01*
X15056500Y-5116500D02*
X15163500Y-5223500D01*
X15163500Y-5116500D02*
X15056500Y-5223500D01*
X15147831Y-5207831D02*
X15147831Y-5132169D01*
X15072169Y-5132169D01*
X15072169Y-5207831D01*
X15147831Y-5207831D01*
X15056500Y-5370500D02*
X15163500Y-5477500D01*
X15163500Y-5370500D02*
X15056500Y-5477500D01*
X15147831Y-5461831D02*
X15147831Y-5386169D01*
X15072169Y-5386169D01*
X15072169Y-5461831D01*
X15147831Y-5461831D01*
X15056500Y-5624500D02*
X15163500Y-5731500D01*
X15163500Y-5624500D02*
X15056500Y-5731500D01*
X15147831Y-5715831D02*
X15147831Y-5640169D01*
X15072169Y-5640169D01*
X15072169Y-5715831D01*
X15147831Y-5715831D01*
X15056500Y-5878500D02*
X15163500Y-5985500D01*
X15163500Y-5878500D02*
X15056500Y-5985500D01*
X15147831Y-5969831D02*
X15147831Y-5894169D01*
X15072169Y-5894169D01*
X15072169Y-5969831D01*
X15147831Y-5969831D01*
X15056500Y-6284500D02*
X15163500Y-6391500D01*
X15163500Y-6284500D02*
X15056500Y-6391500D01*
X15147831Y-6375831D02*
X15147831Y-6300169D01*
X15072169Y-6300169D01*
X15072169Y-6375831D01*
X15147831Y-6375831D01*
X15056500Y-6538500D02*
X15163500Y-6645500D01*
X15163500Y-6538500D02*
X15056500Y-6645500D01*
X15147831Y-6629831D02*
X15147831Y-6554169D01*
X15072169Y-6554169D01*
X15072169Y-6629831D01*
X15147831Y-6629831D01*
X15056500Y-6792500D02*
X15163500Y-6899500D01*
X15163500Y-6792500D02*
X15056500Y-6899500D01*
X15147831Y-6883831D02*
X15147831Y-6808169D01*
X15072169Y-6808169D01*
X15072169Y-6883831D01*
X15147831Y-6883831D01*
X15056500Y-7046500D02*
X15163500Y-7153500D01*
X15163500Y-7046500D02*
X15056500Y-7153500D01*
X15147831Y-7137831D02*
X15147831Y-7062169D01*
X15072169Y-7062169D01*
X15072169Y-7137831D01*
X15147831Y-7137831D01*
X15056500Y-7300500D02*
X15163500Y-7407500D01*
X15163500Y-7300500D02*
X15056500Y-7407500D01*
X15147831Y-7391831D02*
X15147831Y-7316169D01*
X15072169Y-7316169D01*
X15072169Y-7391831D01*
X15147831Y-7391831D01*
X15056500Y-7554500D02*
X15163500Y-7661500D01*
X15163500Y-7554500D02*
X15056500Y-7661500D01*
X15147831Y-7645831D02*
X15147831Y-7570169D01*
X15072169Y-7570169D01*
X15072169Y-7645831D01*
X15147831Y-7645831D01*
X15056500Y-7808500D02*
X15163500Y-7915500D01*
X15163500Y-7808500D02*
X15056500Y-7915500D01*
X15147831Y-7899831D02*
X15147831Y-7824169D01*
X15072169Y-7824169D01*
X15072169Y-7899831D01*
X15147831Y-7899831D01*
X15056500Y-8062500D02*
X15163500Y-8169500D01*
X15163500Y-8062500D02*
X15056500Y-8169500D01*
X15147831Y-8153831D02*
X15147831Y-8078169D01*
X15072169Y-8078169D01*
X15072169Y-8153831D01*
X15147831Y-8153831D01*
X15056500Y-8316500D02*
X15163500Y-8423500D01*
X15163500Y-8316500D02*
X15056500Y-8423500D01*
X15147831Y-8407831D02*
X15147831Y-8332169D01*
X15072169Y-8332169D01*
X15072169Y-8407831D01*
X15147831Y-8407831D01*
X15056500Y-8570500D02*
X15163500Y-8677500D01*
X15163500Y-8570500D02*
X15056500Y-8677500D01*
X15147831Y-8661831D02*
X15147831Y-8586169D01*
X15072169Y-8586169D01*
X15072169Y-8661831D01*
X15147831Y-8661831D01*
X19882500Y-4100500D02*
X19989500Y-4207500D01*
X19989500Y-4100500D02*
X19882500Y-4207500D01*
X19973831Y-4191831D02*
X19973831Y-4116169D01*
X19898169Y-4116169D01*
X19898169Y-4191831D01*
X19973831Y-4191831D01*
X19882500Y-4354500D02*
X19989500Y-4461500D01*
X19989500Y-4354500D02*
X19882500Y-4461500D01*
X19973831Y-4445831D02*
X19973831Y-4370169D01*
X19898169Y-4370169D01*
X19898169Y-4445831D01*
X19973831Y-4445831D01*
X19882500Y-4608500D02*
X19989500Y-4715500D01*
X19989500Y-4608500D02*
X19882500Y-4715500D01*
X19973831Y-4699831D02*
X19973831Y-4624169D01*
X19898169Y-4624169D01*
X19898169Y-4699831D01*
X19973831Y-4699831D01*
X19882500Y-4862500D02*
X19989500Y-4969500D01*
X19989500Y-4862500D02*
X19882500Y-4969500D01*
X19973831Y-4953831D02*
X19973831Y-4878169D01*
X19898169Y-4878169D01*
X19898169Y-4953831D01*
X19973831Y-4953831D01*
X19882500Y-5116500D02*
X19989500Y-5223500D01*
X19989500Y-5116500D02*
X19882500Y-5223500D01*
X19973831Y-5207831D02*
X19973831Y-5132169D01*
X19898169Y-5132169D01*
X19898169Y-5207831D01*
X19973831Y-5207831D01*
X19882500Y-5370500D02*
X19989500Y-5477500D01*
X19989500Y-5370500D02*
X19882500Y-5477500D01*
X19973831Y-5461831D02*
X19973831Y-5386169D01*
X19898169Y-5386169D01*
X19898169Y-5461831D01*
X19973831Y-5461831D01*
X19882500Y-5878500D02*
X19989500Y-5985500D01*
X19989500Y-5878500D02*
X19882500Y-5985500D01*
X19973831Y-5969831D02*
X19973831Y-5894169D01*
X19898169Y-5894169D01*
X19898169Y-5969831D01*
X19973831Y-5969831D01*
X19882500Y-6132500D02*
X19989500Y-6239500D01*
X19989500Y-6132500D02*
X19882500Y-6239500D01*
X19973831Y-6223831D02*
X19973831Y-6148169D01*
X19898169Y-6148169D01*
X19898169Y-6223831D01*
X19973831Y-6223831D01*
X19882500Y-6386500D02*
X19989500Y-6493500D01*
X19989500Y-6386500D02*
X19882500Y-6493500D01*
X19973831Y-6477831D02*
X19973831Y-6402169D01*
X19898169Y-6402169D01*
X19898169Y-6477831D01*
X19973831Y-6477831D01*
X19882500Y-6640500D02*
X19989500Y-6747500D01*
X19989500Y-6640500D02*
X19882500Y-6747500D01*
X19973831Y-6731831D02*
X19973831Y-6656169D01*
X19898169Y-6656169D01*
X19898169Y-6731831D01*
X19973831Y-6731831D01*
X19882500Y-6894500D02*
X19989500Y-7001500D01*
X19989500Y-6894500D02*
X19882500Y-7001500D01*
X19973831Y-6985831D02*
X19973831Y-6910169D01*
X19898169Y-6910169D01*
X19898169Y-6985831D01*
X19973831Y-6985831D01*
X19882500Y-7148500D02*
X19989500Y-7255500D01*
X19989500Y-7148500D02*
X19882500Y-7255500D01*
X19973831Y-7239831D02*
X19973831Y-7164169D01*
X19898169Y-7164169D01*
X19898169Y-7239831D01*
X19973831Y-7239831D01*
X19882500Y-7402500D02*
X19989500Y-7509500D01*
X19989500Y-7402500D02*
X19882500Y-7509500D01*
X19973831Y-7493831D02*
X19973831Y-7418169D01*
X19898169Y-7418169D01*
X19898169Y-7493831D01*
X19973831Y-7493831D01*
X19882500Y-7656500D02*
X19989500Y-7763500D01*
X19989500Y-7656500D02*
X19882500Y-7763500D01*
X19973831Y-7747831D02*
X19973831Y-7672169D01*
X19898169Y-7672169D01*
X19898169Y-7747831D01*
X19973831Y-7747831D01*
D15*
X6772500Y-4772500D02*
X7227500Y-5227500D01*
X7227500Y-4772500D02*
X6772500Y-5227500D01*
X7000000Y-5227500D02*
X7227500Y-5000000D01*
X7000000Y-4772500D01*
X6772500Y-5000000D01*
X7000000Y-5227500D01*
X7492500Y-4772500D02*
X7947500Y-5227500D01*
X7947500Y-4772500D02*
X7492500Y-5227500D01*
X7720000Y-5227500D02*
X7947500Y-5000000D01*
X7720000Y-4772500D01*
X7492500Y-5000000D01*
X7720000Y-5227500D01*
X11872500Y-4772500D02*
X12327500Y-5227500D01*
X12327500Y-4772500D02*
X11872500Y-5227500D01*
X12100000Y-5227500D02*
X12327500Y-5000000D01*
X12100000Y-4772500D01*
X11872500Y-5000000D01*
X12100000Y-5227500D01*
X12592500Y-4772500D02*
X13047500Y-5227500D01*
X13047500Y-4772500D02*
X12592500Y-5227500D01*
X12820000Y-5227500D02*
X13047500Y-5000000D01*
X12820000Y-4772500D01*
X12592500Y-5000000D01*
X12820000Y-5227500D01*
D11*
X6558277Y-12913984D02*
X6558277Y-12713984D01*
X6558277Y-12713984D02*
X6605896Y-12713984D01*
X6605896Y-12713984D02*
X6634467Y-12723508D01*
X6634467Y-12723508D02*
X6653515Y-12742555D01*
X6653515Y-12742555D02*
X6663039Y-12761603D01*
X6663039Y-12761603D02*
X6672562Y-12799698D01*
X6672562Y-12799698D02*
X6672562Y-12828269D01*
X6672562Y-12828269D02*
X6663039Y-12866365D01*
X6663039Y-12866365D02*
X6653515Y-12885412D01*
X6653515Y-12885412D02*
X6634467Y-12904460D01*
X6634467Y-12904460D02*
X6605896Y-12913984D01*
X6605896Y-12913984D02*
X6558277Y-12913984D01*
X6758277Y-12913984D02*
X6758277Y-12780650D01*
X6758277Y-12818746D02*
X6767801Y-12799698D01*
X6767801Y-12799698D02*
X6777324Y-12790174D01*
X6777324Y-12790174D02*
X6796372Y-12780650D01*
X6796372Y-12780650D02*
X6815420Y-12780650D01*
X6882086Y-12913984D02*
X6882086Y-12780650D01*
X6882086Y-12713984D02*
X6872562Y-12723508D01*
X6872562Y-12723508D02*
X6882086Y-12733031D01*
X6882086Y-12733031D02*
X6891610Y-12723508D01*
X6891610Y-12723508D02*
X6882086Y-12713984D01*
X6882086Y-12713984D02*
X6882086Y-12733031D01*
X7005896Y-12913984D02*
X6986848Y-12904460D01*
X6986848Y-12904460D02*
X6977324Y-12885412D01*
X6977324Y-12885412D02*
X6977324Y-12713984D01*
X7110658Y-12913984D02*
X7091610Y-12904460D01*
X7091610Y-12904460D02*
X7082086Y-12885412D01*
X7082086Y-12885412D02*
X7082086Y-12713984D01*
X7339229Y-12913984D02*
X7339229Y-12713984D01*
X7339229Y-12713984D02*
X7405896Y-12856841D01*
X7405896Y-12856841D02*
X7472562Y-12713984D01*
X7472562Y-12713984D02*
X7472562Y-12913984D01*
X7653515Y-12913984D02*
X7653515Y-12809222D01*
X7653515Y-12809222D02*
X7643991Y-12790174D01*
X7643991Y-12790174D02*
X7624943Y-12780650D01*
X7624943Y-12780650D02*
X7586848Y-12780650D01*
X7586848Y-12780650D02*
X7567801Y-12790174D01*
X7653515Y-12904460D02*
X7634467Y-12913984D01*
X7634467Y-12913984D02*
X7586848Y-12913984D01*
X7586848Y-12913984D02*
X7567801Y-12904460D01*
X7567801Y-12904460D02*
X7558277Y-12885412D01*
X7558277Y-12885412D02*
X7558277Y-12866365D01*
X7558277Y-12866365D02*
X7567801Y-12847317D01*
X7567801Y-12847317D02*
X7586848Y-12837793D01*
X7586848Y-12837793D02*
X7634467Y-12837793D01*
X7634467Y-12837793D02*
X7653515Y-12828269D01*
X7748753Y-12780650D02*
X7748753Y-12980650D01*
X7748753Y-12790174D02*
X7767801Y-12780650D01*
X7767801Y-12780650D02*
X7805896Y-12780650D01*
X7805896Y-12780650D02*
X7824943Y-12790174D01*
X7824943Y-12790174D02*
X7834467Y-12799698D01*
X7834467Y-12799698D02*
X7843991Y-12818746D01*
X7843991Y-12818746D02*
X7843991Y-12875888D01*
X7843991Y-12875888D02*
X7834467Y-12894936D01*
X7834467Y-12894936D02*
X7824943Y-12904460D01*
X7824943Y-12904460D02*
X7805896Y-12913984D01*
X7805896Y-12913984D02*
X7767801Y-12913984D01*
X7767801Y-12913984D02*
X7748753Y-12904460D01*
X7929705Y-12894936D02*
X7939229Y-12904460D01*
X7939229Y-12904460D02*
X7929705Y-12913984D01*
X7929705Y-12913984D02*
X7920182Y-12904460D01*
X7920182Y-12904460D02*
X7929705Y-12894936D01*
X7929705Y-12894936D02*
X7929705Y-12913984D01*
X7929705Y-12790174D02*
X7939229Y-12799698D01*
X7939229Y-12799698D02*
X7929705Y-12809222D01*
X7929705Y-12809222D02*
X7920182Y-12799698D01*
X7920182Y-12799698D02*
X7929705Y-12790174D01*
X7929705Y-12790174D02*
X7929705Y-12809222D01*
D12*
X6267500Y-13227500D02*
X6297500Y-13257500D01*
X6297500Y-13227500D02*
X6267500Y-13257500D01*
D11*
X6596372Y-13133984D02*
X6615420Y-13133984D01*
X6615420Y-13133984D02*
X6634467Y-13143508D01*
X6634467Y-13143508D02*
X6643991Y-13153031D01*
X6643991Y-13153031D02*
X6653515Y-13172079D01*
X6653515Y-13172079D02*
X6663039Y-13210174D01*
X6663039Y-13210174D02*
X6663039Y-13257793D01*
X6663039Y-13257793D02*
X6653515Y-13295888D01*
X6653515Y-13295888D02*
X6643991Y-13314936D01*
X6643991Y-13314936D02*
X6634467Y-13324460D01*
X6634467Y-13324460D02*
X6615420Y-13333984D01*
X6615420Y-13333984D02*
X6596372Y-13333984D01*
X6596372Y-13333984D02*
X6577324Y-13324460D01*
X6577324Y-13324460D02*
X6567801Y-13314936D01*
X6567801Y-13314936D02*
X6558277Y-13295888D01*
X6558277Y-13295888D02*
X6548753Y-13257793D01*
X6548753Y-13257793D02*
X6548753Y-13210174D01*
X6548753Y-13210174D02*
X6558277Y-13172079D01*
X6558277Y-13172079D02*
X6567801Y-13153031D01*
X6567801Y-13153031D02*
X6577324Y-13143508D01*
X6577324Y-13143508D02*
X6596372Y-13133984D01*
X6748753Y-13314936D02*
X6758277Y-13324460D01*
X6758277Y-13324460D02*
X6748753Y-13333984D01*
X6748753Y-13333984D02*
X6739229Y-13324460D01*
X6739229Y-13324460D02*
X6748753Y-13314936D01*
X6748753Y-13314936D02*
X6748753Y-13333984D01*
X6824943Y-13133984D02*
X6948753Y-13133984D01*
X6948753Y-13133984D02*
X6882086Y-13210174D01*
X6882086Y-13210174D02*
X6910658Y-13210174D01*
X6910658Y-13210174D02*
X6929705Y-13219698D01*
X6929705Y-13219698D02*
X6939229Y-13229222D01*
X6939229Y-13229222D02*
X6948753Y-13248269D01*
X6948753Y-13248269D02*
X6948753Y-13295888D01*
X6948753Y-13295888D02*
X6939229Y-13314936D01*
X6939229Y-13314936D02*
X6929705Y-13324460D01*
X6929705Y-13324460D02*
X6910658Y-13333984D01*
X6910658Y-13333984D02*
X6853515Y-13333984D01*
X6853515Y-13333984D02*
X6834467Y-13324460D01*
X6834467Y-13324460D02*
X6824943Y-13314936D01*
X7072562Y-13133984D02*
X7091610Y-13133984D01*
X7091610Y-13133984D02*
X7110658Y-13143508D01*
X7110658Y-13143508D02*
X7120182Y-13153031D01*
X7120182Y-13153031D02*
X7129705Y-13172079D01*
X7129705Y-13172079D02*
X7139229Y-13210174D01*
X7139229Y-13210174D02*
X7139229Y-13257793D01*
X7139229Y-13257793D02*
X7129705Y-13295888D01*
X7129705Y-13295888D02*
X7120182Y-13314936D01*
X7120182Y-13314936D02*
X7110658Y-13324460D01*
X7110658Y-13324460D02*
X7091610Y-13333984D01*
X7091610Y-13333984D02*
X7072562Y-13333984D01*
X7072562Y-13333984D02*
X7053515Y-13324460D01*
X7053515Y-13324460D02*
X7043991Y-13314936D01*
X7043991Y-13314936D02*
X7034467Y-13295888D01*
X7034467Y-13295888D02*
X7024943Y-13257793D01*
X7024943Y-13257793D02*
X7024943Y-13210174D01*
X7024943Y-13210174D02*
X7034467Y-13172079D01*
X7034467Y-13172079D02*
X7043991Y-13153031D01*
X7043991Y-13153031D02*
X7053515Y-13143508D01*
X7053515Y-13143508D02*
X7072562Y-13133984D01*
X7263039Y-13133984D02*
X7282086Y-13133984D01*
X7282086Y-13133984D02*
X7301134Y-13143508D01*
X7301134Y-13143508D02*
X7310658Y-13153031D01*
X7310658Y-13153031D02*
X7320182Y-13172079D01*
X7320182Y-13172079D02*
X7329705Y-13210174D01*
X7329705Y-13210174D02*
X7329705Y-13257793D01*
X7329705Y-13257793D02*
X7320182Y-13295888D01*
X7320182Y-13295888D02*
X7310658Y-13314936D01*
X7310658Y-13314936D02*
X7301134Y-13324460D01*
X7301134Y-13324460D02*
X7282086Y-13333984D01*
X7282086Y-13333984D02*
X7263039Y-13333984D01*
X7263039Y-13333984D02*
X7243991Y-13324460D01*
X7243991Y-13324460D02*
X7234467Y-13314936D01*
X7234467Y-13314936D02*
X7224943Y-13295888D01*
X7224943Y-13295888D02*
X7215420Y-13257793D01*
X7215420Y-13257793D02*
X7215420Y-13210174D01*
X7215420Y-13210174D02*
X7224943Y-13172079D01*
X7224943Y-13172079D02*
X7234467Y-13153031D01*
X7234467Y-13153031D02*
X7243991Y-13143508D01*
X7243991Y-13143508D02*
X7263039Y-13133984D01*
X7415420Y-13333984D02*
X7415420Y-13200650D01*
X7415420Y-13219698D02*
X7424943Y-13210174D01*
X7424943Y-13210174D02*
X7443991Y-13200650D01*
X7443991Y-13200650D02*
X7472563Y-13200650D01*
X7472563Y-13200650D02*
X7491610Y-13210174D01*
X7491610Y-13210174D02*
X7501134Y-13229222D01*
X7501134Y-13229222D02*
X7501134Y-13333984D01*
X7501134Y-13229222D02*
X7510658Y-13210174D01*
X7510658Y-13210174D02*
X7529705Y-13200650D01*
X7529705Y-13200650D02*
X7558277Y-13200650D01*
X7558277Y-13200650D02*
X7577324Y-13210174D01*
X7577324Y-13210174D02*
X7586848Y-13229222D01*
X7586848Y-13229222D02*
X7586848Y-13333984D01*
X7682086Y-13333984D02*
X7682086Y-13200650D01*
X7682086Y-13219698D02*
X7691610Y-13210174D01*
X7691610Y-13210174D02*
X7710658Y-13200650D01*
X7710658Y-13200650D02*
X7739229Y-13200650D01*
X7739229Y-13200650D02*
X7758277Y-13210174D01*
X7758277Y-13210174D02*
X7767801Y-13229222D01*
X7767801Y-13229222D02*
X7767801Y-13333984D01*
X7767801Y-13229222D02*
X7777324Y-13210174D01*
X7777324Y-13210174D02*
X7796372Y-13200650D01*
X7796372Y-13200650D02*
X7824943Y-13200650D01*
X7824943Y-13200650D02*
X7843991Y-13210174D01*
X7843991Y-13210174D02*
X7853515Y-13229222D01*
X7853515Y-13229222D02*
X7853515Y-13333984D01*
X8243991Y-13124460D02*
X8072563Y-13381603D01*
X8501134Y-13133984D02*
X8520182Y-13133984D01*
X8520182Y-13133984D02*
X8539229Y-13143508D01*
X8539229Y-13143508D02*
X8548753Y-13153031D01*
X8548753Y-13153031D02*
X8558277Y-13172079D01*
X8558277Y-13172079D02*
X8567801Y-13210174D01*
X8567801Y-13210174D02*
X8567801Y-13257793D01*
X8567801Y-13257793D02*
X8558277Y-13295888D01*
X8558277Y-13295888D02*
X8548753Y-13314936D01*
X8548753Y-13314936D02*
X8539229Y-13324460D01*
X8539229Y-13324460D02*
X8520182Y-13333984D01*
X8520182Y-13333984D02*
X8501134Y-13333984D01*
X8501134Y-13333984D02*
X8482087Y-13324460D01*
X8482087Y-13324460D02*
X8472563Y-13314936D01*
X8472563Y-13314936D02*
X8463039Y-13295888D01*
X8463039Y-13295888D02*
X8453515Y-13257793D01*
X8453515Y-13257793D02*
X8453515Y-13210174D01*
X8453515Y-13210174D02*
X8463039Y-13172079D01*
X8463039Y-13172079D02*
X8472563Y-13153031D01*
X8472563Y-13153031D02*
X8482087Y-13143508D01*
X8482087Y-13143508D02*
X8501134Y-13133984D01*
X8653515Y-13314936D02*
X8663039Y-13324460D01*
X8663039Y-13324460D02*
X8653515Y-13333984D01*
X8653515Y-13333984D02*
X8643991Y-13324460D01*
X8643991Y-13324460D02*
X8653515Y-13314936D01*
X8653515Y-13314936D02*
X8653515Y-13333984D01*
X8786848Y-13133984D02*
X8805896Y-13133984D01*
X8805896Y-13133984D02*
X8824944Y-13143508D01*
X8824944Y-13143508D02*
X8834468Y-13153031D01*
X8834468Y-13153031D02*
X8843991Y-13172079D01*
X8843991Y-13172079D02*
X8853515Y-13210174D01*
X8853515Y-13210174D02*
X8853515Y-13257793D01*
X8853515Y-13257793D02*
X8843991Y-13295888D01*
X8843991Y-13295888D02*
X8834468Y-13314936D01*
X8834468Y-13314936D02*
X8824944Y-13324460D01*
X8824944Y-13324460D02*
X8805896Y-13333984D01*
X8805896Y-13333984D02*
X8786848Y-13333984D01*
X8786848Y-13333984D02*
X8767801Y-13324460D01*
X8767801Y-13324460D02*
X8758277Y-13314936D01*
X8758277Y-13314936D02*
X8748753Y-13295888D01*
X8748753Y-13295888D02*
X8739229Y-13257793D01*
X8739229Y-13257793D02*
X8739229Y-13210174D01*
X8739229Y-13210174D02*
X8748753Y-13172079D01*
X8748753Y-13172079D02*
X8758277Y-13153031D01*
X8758277Y-13153031D02*
X8767801Y-13143508D01*
X8767801Y-13143508D02*
X8786848Y-13133984D01*
X9043991Y-13333984D02*
X8929706Y-13333984D01*
X8986848Y-13333984D02*
X8986848Y-13133984D01*
X8986848Y-13133984D02*
X8967801Y-13162555D01*
X8967801Y-13162555D02*
X8948753Y-13181603D01*
X8948753Y-13181603D02*
X8929706Y-13191127D01*
X9234468Y-13333984D02*
X9120182Y-13333984D01*
X9177325Y-13333984D02*
X9177325Y-13133984D01*
X9177325Y-13133984D02*
X9158277Y-13162555D01*
X9158277Y-13162555D02*
X9139229Y-13181603D01*
X9139229Y-13181603D02*
X9120182Y-13191127D01*
X9348753Y-13219698D02*
X9329706Y-13210174D01*
X9329706Y-13210174D02*
X9320182Y-13200650D01*
X9320182Y-13200650D02*
X9310658Y-13181603D01*
X9310658Y-13181603D02*
X9310658Y-13172079D01*
X9310658Y-13172079D02*
X9320182Y-13153031D01*
X9320182Y-13153031D02*
X9329706Y-13143508D01*
X9329706Y-13143508D02*
X9348753Y-13133984D01*
X9348753Y-13133984D02*
X9386849Y-13133984D01*
X9386849Y-13133984D02*
X9405896Y-13143508D01*
X9405896Y-13143508D02*
X9415420Y-13153031D01*
X9415420Y-13153031D02*
X9424944Y-13172079D01*
X9424944Y-13172079D02*
X9424944Y-13181603D01*
X9424944Y-13181603D02*
X9415420Y-13200650D01*
X9415420Y-13200650D02*
X9405896Y-13210174D01*
X9405896Y-13210174D02*
X9386849Y-13219698D01*
X9386849Y-13219698D02*
X9348753Y-13219698D01*
X9348753Y-13219698D02*
X9329706Y-13229222D01*
X9329706Y-13229222D02*
X9320182Y-13238746D01*
X9320182Y-13238746D02*
X9310658Y-13257793D01*
X9310658Y-13257793D02*
X9310658Y-13295888D01*
X9310658Y-13295888D02*
X9320182Y-13314936D01*
X9320182Y-13314936D02*
X9329706Y-13324460D01*
X9329706Y-13324460D02*
X9348753Y-13333984D01*
X9348753Y-13333984D02*
X9386849Y-13333984D01*
X9386849Y-13333984D02*
X9405896Y-13324460D01*
X9405896Y-13324460D02*
X9415420Y-13314936D01*
X9415420Y-13314936D02*
X9424944Y-13295888D01*
X9424944Y-13295888D02*
X9424944Y-13257793D01*
X9424944Y-13257793D02*
X9415420Y-13238746D01*
X9415420Y-13238746D02*
X9405896Y-13229222D01*
X9405896Y-13229222D02*
X9386849Y-13219698D01*
X9501134Y-13133984D02*
X9501134Y-13172079D01*
X9577325Y-13133984D02*
X9577325Y-13172079D01*
X9872563Y-13410174D02*
X9863039Y-13400650D01*
X9863039Y-13400650D02*
X9843991Y-13372079D01*
X9843991Y-13372079D02*
X9834468Y-13353031D01*
X9834468Y-13353031D02*
X9824944Y-13324460D01*
X9824944Y-13324460D02*
X9815420Y-13276841D01*
X9815420Y-13276841D02*
X9815420Y-13238746D01*
X9815420Y-13238746D02*
X9824944Y-13191127D01*
X9824944Y-13191127D02*
X9834468Y-13162555D01*
X9834468Y-13162555D02*
X9843991Y-13143508D01*
X9843991Y-13143508D02*
X9863039Y-13114936D01*
X9863039Y-13114936D02*
X9872563Y-13105412D01*
X9939230Y-13153031D02*
X9948753Y-13143508D01*
X9948753Y-13143508D02*
X9967801Y-13133984D01*
X9967801Y-13133984D02*
X10015420Y-13133984D01*
X10015420Y-13133984D02*
X10034468Y-13143508D01*
X10034468Y-13143508D02*
X10043991Y-13153031D01*
X10043991Y-13153031D02*
X10053515Y-13172079D01*
X10053515Y-13172079D02*
X10053515Y-13191127D01*
X10053515Y-13191127D02*
X10043991Y-13219698D01*
X10043991Y-13219698D02*
X9929706Y-13333984D01*
X9929706Y-13333984D02*
X10053515Y-13333984D01*
X10224944Y-13200650D02*
X10224944Y-13333984D01*
X10177325Y-13124460D02*
X10129706Y-13267317D01*
X10129706Y-13267317D02*
X10253515Y-13267317D01*
X10320182Y-13153031D02*
X10329706Y-13143508D01*
X10329706Y-13143508D02*
X10348753Y-13133984D01*
X10348753Y-13133984D02*
X10396372Y-13133984D01*
X10396372Y-13133984D02*
X10415420Y-13143508D01*
X10415420Y-13143508D02*
X10424944Y-13153031D01*
X10424944Y-13153031D02*
X10434468Y-13172079D01*
X10434468Y-13172079D02*
X10434468Y-13191127D01*
X10434468Y-13191127D02*
X10424944Y-13219698D01*
X10424944Y-13219698D02*
X10310658Y-13333984D01*
X10310658Y-13333984D02*
X10434468Y-13333984D01*
X10672563Y-13333984D02*
X10672563Y-13133984D01*
X10758277Y-13333984D02*
X10758277Y-13229222D01*
X10758277Y-13229222D02*
X10748753Y-13210174D01*
X10748753Y-13210174D02*
X10729706Y-13200650D01*
X10729706Y-13200650D02*
X10701134Y-13200650D01*
X10701134Y-13200650D02*
X10682087Y-13210174D01*
X10682087Y-13210174D02*
X10672563Y-13219698D01*
X10882087Y-13333984D02*
X10863039Y-13324460D01*
X10863039Y-13324460D02*
X10853515Y-13314936D01*
X10853515Y-13314936D02*
X10843992Y-13295888D01*
X10843992Y-13295888D02*
X10843992Y-13238746D01*
X10843992Y-13238746D02*
X10853515Y-13219698D01*
X10853515Y-13219698D02*
X10863039Y-13210174D01*
X10863039Y-13210174D02*
X10882087Y-13200650D01*
X10882087Y-13200650D02*
X10910658Y-13200650D01*
X10910658Y-13200650D02*
X10929706Y-13210174D01*
X10929706Y-13210174D02*
X10939230Y-13219698D01*
X10939230Y-13219698D02*
X10948753Y-13238746D01*
X10948753Y-13238746D02*
X10948753Y-13295888D01*
X10948753Y-13295888D02*
X10939230Y-13314936D01*
X10939230Y-13314936D02*
X10929706Y-13324460D01*
X10929706Y-13324460D02*
X10910658Y-13333984D01*
X10910658Y-13333984D02*
X10882087Y-13333984D01*
X11063039Y-13333984D02*
X11043992Y-13324460D01*
X11043992Y-13324460D02*
X11034468Y-13305412D01*
X11034468Y-13305412D02*
X11034468Y-13133984D01*
X11215420Y-13324460D02*
X11196372Y-13333984D01*
X11196372Y-13333984D02*
X11158277Y-13333984D01*
X11158277Y-13333984D02*
X11139230Y-13324460D01*
X11139230Y-13324460D02*
X11129706Y-13305412D01*
X11129706Y-13305412D02*
X11129706Y-13229222D01*
X11129706Y-13229222D02*
X11139230Y-13210174D01*
X11139230Y-13210174D02*
X11158277Y-13200650D01*
X11158277Y-13200650D02*
X11196372Y-13200650D01*
X11196372Y-13200650D02*
X11215420Y-13210174D01*
X11215420Y-13210174D02*
X11224944Y-13229222D01*
X11224944Y-13229222D02*
X11224944Y-13248269D01*
X11224944Y-13248269D02*
X11129706Y-13267317D01*
X11301134Y-13324460D02*
X11320182Y-13333984D01*
X11320182Y-13333984D02*
X11358277Y-13333984D01*
X11358277Y-13333984D02*
X11377325Y-13324460D01*
X11377325Y-13324460D02*
X11386849Y-13305412D01*
X11386849Y-13305412D02*
X11386849Y-13295888D01*
X11386849Y-13295888D02*
X11377325Y-13276841D01*
X11377325Y-13276841D02*
X11358277Y-13267317D01*
X11358277Y-13267317D02*
X11329706Y-13267317D01*
X11329706Y-13267317D02*
X11310658Y-13257793D01*
X11310658Y-13257793D02*
X11301134Y-13238746D01*
X11301134Y-13238746D02*
X11301134Y-13229222D01*
X11301134Y-13229222D02*
X11310658Y-13210174D01*
X11310658Y-13210174D02*
X11329706Y-13200650D01*
X11329706Y-13200650D02*
X11358277Y-13200650D01*
X11358277Y-13200650D02*
X11377325Y-13210174D01*
X11453515Y-13410174D02*
X11463039Y-13400650D01*
X11463039Y-13400650D02*
X11482087Y-13372079D01*
X11482087Y-13372079D02*
X11491611Y-13353031D01*
X11491611Y-13353031D02*
X11501134Y-13324460D01*
X11501134Y-13324460D02*
X11510658Y-13276841D01*
X11510658Y-13276841D02*
X11510658Y-13238746D01*
X11510658Y-13238746D02*
X11501134Y-13191127D01*
X11501134Y-13191127D02*
X11491611Y-13162555D01*
X11491611Y-13162555D02*
X11482087Y-13143508D01*
X11482087Y-13143508D02*
X11463039Y-13114936D01*
X11463039Y-13114936D02*
X11453515Y-13105412D01*
D12*
X6297500Y-13506500D02*
G75*
G02*
X6267500Y-13506500I-15000J0D01*
G01*
X6267500Y-13506500D02*
G75*
G02*
X6297500Y-13506500I15000J0D01*
G01*
D11*
X6596372Y-13397984D02*
X6615420Y-13397984D01*
X6615420Y-13397984D02*
X6634467Y-13407508D01*
X6634467Y-13407508D02*
X6643991Y-13417031D01*
X6643991Y-13417031D02*
X6653515Y-13436079D01*
X6653515Y-13436079D02*
X6663039Y-13474174D01*
X6663039Y-13474174D02*
X6663039Y-13521793D01*
X6663039Y-13521793D02*
X6653515Y-13559888D01*
X6653515Y-13559888D02*
X6643991Y-13578936D01*
X6643991Y-13578936D02*
X6634467Y-13588460D01*
X6634467Y-13588460D02*
X6615420Y-13597984D01*
X6615420Y-13597984D02*
X6596372Y-13597984D01*
X6596372Y-13597984D02*
X6577324Y-13588460D01*
X6577324Y-13588460D02*
X6567801Y-13578936D01*
X6567801Y-13578936D02*
X6558277Y-13559888D01*
X6558277Y-13559888D02*
X6548753Y-13521793D01*
X6548753Y-13521793D02*
X6548753Y-13474174D01*
X6548753Y-13474174D02*
X6558277Y-13436079D01*
X6558277Y-13436079D02*
X6567801Y-13417031D01*
X6567801Y-13417031D02*
X6577324Y-13407508D01*
X6577324Y-13407508D02*
X6596372Y-13397984D01*
X6748753Y-13578936D02*
X6758277Y-13588460D01*
X6758277Y-13588460D02*
X6748753Y-13597984D01*
X6748753Y-13597984D02*
X6739229Y-13588460D01*
X6739229Y-13588460D02*
X6748753Y-13578936D01*
X6748753Y-13578936D02*
X6748753Y-13597984D01*
X6824943Y-13397984D02*
X6948753Y-13397984D01*
X6948753Y-13397984D02*
X6882086Y-13474174D01*
X6882086Y-13474174D02*
X6910658Y-13474174D01*
X6910658Y-13474174D02*
X6929705Y-13483698D01*
X6929705Y-13483698D02*
X6939229Y-13493222D01*
X6939229Y-13493222D02*
X6948753Y-13512269D01*
X6948753Y-13512269D02*
X6948753Y-13559888D01*
X6948753Y-13559888D02*
X6939229Y-13578936D01*
X6939229Y-13578936D02*
X6929705Y-13588460D01*
X6929705Y-13588460D02*
X6910658Y-13597984D01*
X6910658Y-13597984D02*
X6853515Y-13597984D01*
X6853515Y-13597984D02*
X6834467Y-13588460D01*
X6834467Y-13588460D02*
X6824943Y-13578936D01*
X7072562Y-13397984D02*
X7091610Y-13397984D01*
X7091610Y-13397984D02*
X7110658Y-13407508D01*
X7110658Y-13407508D02*
X7120182Y-13417031D01*
X7120182Y-13417031D02*
X7129705Y-13436079D01*
X7129705Y-13436079D02*
X7139229Y-13474174D01*
X7139229Y-13474174D02*
X7139229Y-13521793D01*
X7139229Y-13521793D02*
X7129705Y-13559888D01*
X7129705Y-13559888D02*
X7120182Y-13578936D01*
X7120182Y-13578936D02*
X7110658Y-13588460D01*
X7110658Y-13588460D02*
X7091610Y-13597984D01*
X7091610Y-13597984D02*
X7072562Y-13597984D01*
X7072562Y-13597984D02*
X7053515Y-13588460D01*
X7053515Y-13588460D02*
X7043991Y-13578936D01*
X7043991Y-13578936D02*
X7034467Y-13559888D01*
X7034467Y-13559888D02*
X7024943Y-13521793D01*
X7024943Y-13521793D02*
X7024943Y-13474174D01*
X7024943Y-13474174D02*
X7034467Y-13436079D01*
X7034467Y-13436079D02*
X7043991Y-13417031D01*
X7043991Y-13417031D02*
X7053515Y-13407508D01*
X7053515Y-13407508D02*
X7072562Y-13397984D01*
X7263039Y-13397984D02*
X7282086Y-13397984D01*
X7282086Y-13397984D02*
X7301134Y-13407508D01*
X7301134Y-13407508D02*
X7310658Y-13417031D01*
X7310658Y-13417031D02*
X7320182Y-13436079D01*
X7320182Y-13436079D02*
X7329705Y-13474174D01*
X7329705Y-13474174D02*
X7329705Y-13521793D01*
X7329705Y-13521793D02*
X7320182Y-13559888D01*
X7320182Y-13559888D02*
X7310658Y-13578936D01*
X7310658Y-13578936D02*
X7301134Y-13588460D01*
X7301134Y-13588460D02*
X7282086Y-13597984D01*
X7282086Y-13597984D02*
X7263039Y-13597984D01*
X7263039Y-13597984D02*
X7243991Y-13588460D01*
X7243991Y-13588460D02*
X7234467Y-13578936D01*
X7234467Y-13578936D02*
X7224943Y-13559888D01*
X7224943Y-13559888D02*
X7215420Y-13521793D01*
X7215420Y-13521793D02*
X7215420Y-13474174D01*
X7215420Y-13474174D02*
X7224943Y-13436079D01*
X7224943Y-13436079D02*
X7234467Y-13417031D01*
X7234467Y-13417031D02*
X7243991Y-13407508D01*
X7243991Y-13407508D02*
X7263039Y-13397984D01*
X7415420Y-13597984D02*
X7415420Y-13464650D01*
X7415420Y-13483698D02*
X7424943Y-13474174D01*
X7424943Y-13474174D02*
X7443991Y-13464650D01*
X7443991Y-13464650D02*
X7472563Y-13464650D01*
X7472563Y-13464650D02*
X7491610Y-13474174D01*
X7491610Y-13474174D02*
X7501134Y-13493222D01*
X7501134Y-13493222D02*
X7501134Y-13597984D01*
X7501134Y-13493222D02*
X7510658Y-13474174D01*
X7510658Y-13474174D02*
X7529705Y-13464650D01*
X7529705Y-13464650D02*
X7558277Y-13464650D01*
X7558277Y-13464650D02*
X7577324Y-13474174D01*
X7577324Y-13474174D02*
X7586848Y-13493222D01*
X7586848Y-13493222D02*
X7586848Y-13597984D01*
X7682086Y-13597984D02*
X7682086Y-13464650D01*
X7682086Y-13483698D02*
X7691610Y-13474174D01*
X7691610Y-13474174D02*
X7710658Y-13464650D01*
X7710658Y-13464650D02*
X7739229Y-13464650D01*
X7739229Y-13464650D02*
X7758277Y-13474174D01*
X7758277Y-13474174D02*
X7767801Y-13493222D01*
X7767801Y-13493222D02*
X7767801Y-13597984D01*
X7767801Y-13493222D02*
X7777324Y-13474174D01*
X7777324Y-13474174D02*
X7796372Y-13464650D01*
X7796372Y-13464650D02*
X7824943Y-13464650D01*
X7824943Y-13464650D02*
X7843991Y-13474174D01*
X7843991Y-13474174D02*
X7853515Y-13493222D01*
X7853515Y-13493222D02*
X7853515Y-13597984D01*
X8243991Y-13388460D02*
X8072563Y-13645603D01*
X8501134Y-13397984D02*
X8520182Y-13397984D01*
X8520182Y-13397984D02*
X8539229Y-13407508D01*
X8539229Y-13407508D02*
X8548753Y-13417031D01*
X8548753Y-13417031D02*
X8558277Y-13436079D01*
X8558277Y-13436079D02*
X8567801Y-13474174D01*
X8567801Y-13474174D02*
X8567801Y-13521793D01*
X8567801Y-13521793D02*
X8558277Y-13559888D01*
X8558277Y-13559888D02*
X8548753Y-13578936D01*
X8548753Y-13578936D02*
X8539229Y-13588460D01*
X8539229Y-13588460D02*
X8520182Y-13597984D01*
X8520182Y-13597984D02*
X8501134Y-13597984D01*
X8501134Y-13597984D02*
X8482087Y-13588460D01*
X8482087Y-13588460D02*
X8472563Y-13578936D01*
X8472563Y-13578936D02*
X8463039Y-13559888D01*
X8463039Y-13559888D02*
X8453515Y-13521793D01*
X8453515Y-13521793D02*
X8453515Y-13474174D01*
X8453515Y-13474174D02*
X8463039Y-13436079D01*
X8463039Y-13436079D02*
X8472563Y-13417031D01*
X8472563Y-13417031D02*
X8482087Y-13407508D01*
X8482087Y-13407508D02*
X8501134Y-13397984D01*
X8653515Y-13578936D02*
X8663039Y-13588460D01*
X8663039Y-13588460D02*
X8653515Y-13597984D01*
X8653515Y-13597984D02*
X8643991Y-13588460D01*
X8643991Y-13588460D02*
X8653515Y-13578936D01*
X8653515Y-13578936D02*
X8653515Y-13597984D01*
X8786848Y-13397984D02*
X8805896Y-13397984D01*
X8805896Y-13397984D02*
X8824944Y-13407508D01*
X8824944Y-13407508D02*
X8834468Y-13417031D01*
X8834468Y-13417031D02*
X8843991Y-13436079D01*
X8843991Y-13436079D02*
X8853515Y-13474174D01*
X8853515Y-13474174D02*
X8853515Y-13521793D01*
X8853515Y-13521793D02*
X8843991Y-13559888D01*
X8843991Y-13559888D02*
X8834468Y-13578936D01*
X8834468Y-13578936D02*
X8824944Y-13588460D01*
X8824944Y-13588460D02*
X8805896Y-13597984D01*
X8805896Y-13597984D02*
X8786848Y-13597984D01*
X8786848Y-13597984D02*
X8767801Y-13588460D01*
X8767801Y-13588460D02*
X8758277Y-13578936D01*
X8758277Y-13578936D02*
X8748753Y-13559888D01*
X8748753Y-13559888D02*
X8739229Y-13521793D01*
X8739229Y-13521793D02*
X8739229Y-13474174D01*
X8739229Y-13474174D02*
X8748753Y-13436079D01*
X8748753Y-13436079D02*
X8758277Y-13417031D01*
X8758277Y-13417031D02*
X8767801Y-13407508D01*
X8767801Y-13407508D02*
X8786848Y-13397984D01*
X9043991Y-13597984D02*
X8929706Y-13597984D01*
X8986848Y-13597984D02*
X8986848Y-13397984D01*
X8986848Y-13397984D02*
X8967801Y-13426555D01*
X8967801Y-13426555D02*
X8948753Y-13445603D01*
X8948753Y-13445603D02*
X8929706Y-13455127D01*
X9234468Y-13597984D02*
X9120182Y-13597984D01*
X9177325Y-13597984D02*
X9177325Y-13397984D01*
X9177325Y-13397984D02*
X9158277Y-13426555D01*
X9158277Y-13426555D02*
X9139229Y-13445603D01*
X9139229Y-13445603D02*
X9120182Y-13455127D01*
X9348753Y-13483698D02*
X9329706Y-13474174D01*
X9329706Y-13474174D02*
X9320182Y-13464650D01*
X9320182Y-13464650D02*
X9310658Y-13445603D01*
X9310658Y-13445603D02*
X9310658Y-13436079D01*
X9310658Y-13436079D02*
X9320182Y-13417031D01*
X9320182Y-13417031D02*
X9329706Y-13407508D01*
X9329706Y-13407508D02*
X9348753Y-13397984D01*
X9348753Y-13397984D02*
X9386849Y-13397984D01*
X9386849Y-13397984D02*
X9405896Y-13407508D01*
X9405896Y-13407508D02*
X9415420Y-13417031D01*
X9415420Y-13417031D02*
X9424944Y-13436079D01*
X9424944Y-13436079D02*
X9424944Y-13445603D01*
X9424944Y-13445603D02*
X9415420Y-13464650D01*
X9415420Y-13464650D02*
X9405896Y-13474174D01*
X9405896Y-13474174D02*
X9386849Y-13483698D01*
X9386849Y-13483698D02*
X9348753Y-13483698D01*
X9348753Y-13483698D02*
X9329706Y-13493222D01*
X9329706Y-13493222D02*
X9320182Y-13502746D01*
X9320182Y-13502746D02*
X9310658Y-13521793D01*
X9310658Y-13521793D02*
X9310658Y-13559888D01*
X9310658Y-13559888D02*
X9320182Y-13578936D01*
X9320182Y-13578936D02*
X9329706Y-13588460D01*
X9329706Y-13588460D02*
X9348753Y-13597984D01*
X9348753Y-13597984D02*
X9386849Y-13597984D01*
X9386849Y-13597984D02*
X9405896Y-13588460D01*
X9405896Y-13588460D02*
X9415420Y-13578936D01*
X9415420Y-13578936D02*
X9424944Y-13559888D01*
X9424944Y-13559888D02*
X9424944Y-13521793D01*
X9424944Y-13521793D02*
X9415420Y-13502746D01*
X9415420Y-13502746D02*
X9405896Y-13493222D01*
X9405896Y-13493222D02*
X9386849Y-13483698D01*
X9501134Y-13397984D02*
X9501134Y-13436079D01*
X9577325Y-13397984D02*
X9577325Y-13436079D01*
X9872563Y-13674174D02*
X9863039Y-13664650D01*
X9863039Y-13664650D02*
X9843991Y-13636079D01*
X9843991Y-13636079D02*
X9834468Y-13617031D01*
X9834468Y-13617031D02*
X9824944Y-13588460D01*
X9824944Y-13588460D02*
X9815420Y-13540841D01*
X9815420Y-13540841D02*
X9815420Y-13502746D01*
X9815420Y-13502746D02*
X9824944Y-13455127D01*
X9824944Y-13455127D02*
X9834468Y-13426555D01*
X9834468Y-13426555D02*
X9843991Y-13407508D01*
X9843991Y-13407508D02*
X9863039Y-13378936D01*
X9863039Y-13378936D02*
X9872563Y-13369412D01*
X9977325Y-13483698D02*
X9958277Y-13474174D01*
X9958277Y-13474174D02*
X9948753Y-13464650D01*
X9948753Y-13464650D02*
X9939230Y-13445603D01*
X9939230Y-13445603D02*
X9939230Y-13436079D01*
X9939230Y-13436079D02*
X9948753Y-13417031D01*
X9948753Y-13417031D02*
X9958277Y-13407508D01*
X9958277Y-13407508D02*
X9977325Y-13397984D01*
X9977325Y-13397984D02*
X10015420Y-13397984D01*
X10015420Y-13397984D02*
X10034468Y-13407508D01*
X10034468Y-13407508D02*
X10043991Y-13417031D01*
X10043991Y-13417031D02*
X10053515Y-13436079D01*
X10053515Y-13436079D02*
X10053515Y-13445603D01*
X10053515Y-13445603D02*
X10043991Y-13464650D01*
X10043991Y-13464650D02*
X10034468Y-13474174D01*
X10034468Y-13474174D02*
X10015420Y-13483698D01*
X10015420Y-13483698D02*
X9977325Y-13483698D01*
X9977325Y-13483698D02*
X9958277Y-13493222D01*
X9958277Y-13493222D02*
X9948753Y-13502746D01*
X9948753Y-13502746D02*
X9939230Y-13521793D01*
X9939230Y-13521793D02*
X9939230Y-13559888D01*
X9939230Y-13559888D02*
X9948753Y-13578936D01*
X9948753Y-13578936D02*
X9958277Y-13588460D01*
X9958277Y-13588460D02*
X9977325Y-13597984D01*
X9977325Y-13597984D02*
X10015420Y-13597984D01*
X10015420Y-13597984D02*
X10034468Y-13588460D01*
X10034468Y-13588460D02*
X10043991Y-13578936D01*
X10043991Y-13578936D02*
X10053515Y-13559888D01*
X10053515Y-13559888D02*
X10053515Y-13521793D01*
X10053515Y-13521793D02*
X10043991Y-13502746D01*
X10043991Y-13502746D02*
X10034468Y-13493222D01*
X10034468Y-13493222D02*
X10015420Y-13483698D01*
X10291611Y-13597984D02*
X10291611Y-13397984D01*
X10377325Y-13597984D02*
X10377325Y-13493222D01*
X10377325Y-13493222D02*
X10367801Y-13474174D01*
X10367801Y-13474174D02*
X10348753Y-13464650D01*
X10348753Y-13464650D02*
X10320182Y-13464650D01*
X10320182Y-13464650D02*
X10301134Y-13474174D01*
X10301134Y-13474174D02*
X10291611Y-13483698D01*
X10501134Y-13597984D02*
X10482087Y-13588460D01*
X10482087Y-13588460D02*
X10472563Y-13578936D01*
X10472563Y-13578936D02*
X10463039Y-13559888D01*
X10463039Y-13559888D02*
X10463039Y-13502746D01*
X10463039Y-13502746D02*
X10472563Y-13483698D01*
X10472563Y-13483698D02*
X10482087Y-13474174D01*
X10482087Y-13474174D02*
X10501134Y-13464650D01*
X10501134Y-13464650D02*
X10529706Y-13464650D01*
X10529706Y-13464650D02*
X10548753Y-13474174D01*
X10548753Y-13474174D02*
X10558277Y-13483698D01*
X10558277Y-13483698D02*
X10567801Y-13502746D01*
X10567801Y-13502746D02*
X10567801Y-13559888D01*
X10567801Y-13559888D02*
X10558277Y-13578936D01*
X10558277Y-13578936D02*
X10548753Y-13588460D01*
X10548753Y-13588460D02*
X10529706Y-13597984D01*
X10529706Y-13597984D02*
X10501134Y-13597984D01*
X10682087Y-13597984D02*
X10663039Y-13588460D01*
X10663039Y-13588460D02*
X10653515Y-13569412D01*
X10653515Y-13569412D02*
X10653515Y-13397984D01*
X10834468Y-13588460D02*
X10815420Y-13597984D01*
X10815420Y-13597984D02*
X10777325Y-13597984D01*
X10777325Y-13597984D02*
X10758277Y-13588460D01*
X10758277Y-13588460D02*
X10748753Y-13569412D01*
X10748753Y-13569412D02*
X10748753Y-13493222D01*
X10748753Y-13493222D02*
X10758277Y-13474174D01*
X10758277Y-13474174D02*
X10777325Y-13464650D01*
X10777325Y-13464650D02*
X10815420Y-13464650D01*
X10815420Y-13464650D02*
X10834468Y-13474174D01*
X10834468Y-13474174D02*
X10843992Y-13493222D01*
X10843992Y-13493222D02*
X10843992Y-13512269D01*
X10843992Y-13512269D02*
X10748753Y-13531317D01*
X10920182Y-13588460D02*
X10939230Y-13597984D01*
X10939230Y-13597984D02*
X10977325Y-13597984D01*
X10977325Y-13597984D02*
X10996373Y-13588460D01*
X10996373Y-13588460D02*
X11005896Y-13569412D01*
X11005896Y-13569412D02*
X11005896Y-13559888D01*
X11005896Y-13559888D02*
X10996373Y-13540841D01*
X10996373Y-13540841D02*
X10977325Y-13531317D01*
X10977325Y-13531317D02*
X10948753Y-13531317D01*
X10948753Y-13531317D02*
X10929706Y-13521793D01*
X10929706Y-13521793D02*
X10920182Y-13502746D01*
X10920182Y-13502746D02*
X10920182Y-13493222D01*
X10920182Y-13493222D02*
X10929706Y-13474174D01*
X10929706Y-13474174D02*
X10948753Y-13464650D01*
X10948753Y-13464650D02*
X10977325Y-13464650D01*
X10977325Y-13464650D02*
X10996373Y-13474174D01*
X11072563Y-13674174D02*
X11082087Y-13664650D01*
X11082087Y-13664650D02*
X11101134Y-13636079D01*
X11101134Y-13636079D02*
X11110658Y-13617031D01*
X11110658Y-13617031D02*
X11120182Y-13588460D01*
X11120182Y-13588460D02*
X11129706Y-13540841D01*
X11129706Y-13540841D02*
X11129706Y-13502746D01*
X11129706Y-13502746D02*
X11120182Y-13455127D01*
X11120182Y-13455127D02*
X11110658Y-13426555D01*
X11110658Y-13426555D02*
X11101134Y-13407508D01*
X11101134Y-13407508D02*
X11082087Y-13378936D01*
X11082087Y-13378936D02*
X11072563Y-13369412D01*
D12*
X6257500Y-13730500D02*
X6257500Y-13810500D01*
X6217500Y-13770500D02*
X6297500Y-13770500D01*
D11*
X6596372Y-13661984D02*
X6615420Y-13661984D01*
X6615420Y-13661984D02*
X6634467Y-13671508D01*
X6634467Y-13671508D02*
X6643991Y-13681031D01*
X6643991Y-13681031D02*
X6653515Y-13700079D01*
X6653515Y-13700079D02*
X6663039Y-13738174D01*
X6663039Y-13738174D02*
X6663039Y-13785793D01*
X6663039Y-13785793D02*
X6653515Y-13823888D01*
X6653515Y-13823888D02*
X6643991Y-13842936D01*
X6643991Y-13842936D02*
X6634467Y-13852460D01*
X6634467Y-13852460D02*
X6615420Y-13861984D01*
X6615420Y-13861984D02*
X6596372Y-13861984D01*
X6596372Y-13861984D02*
X6577324Y-13852460D01*
X6577324Y-13852460D02*
X6567801Y-13842936D01*
X6567801Y-13842936D02*
X6558277Y-13823888D01*
X6558277Y-13823888D02*
X6548753Y-13785793D01*
X6548753Y-13785793D02*
X6548753Y-13738174D01*
X6548753Y-13738174D02*
X6558277Y-13700079D01*
X6558277Y-13700079D02*
X6567801Y-13681031D01*
X6567801Y-13681031D02*
X6577324Y-13671508D01*
X6577324Y-13671508D02*
X6596372Y-13661984D01*
X6748753Y-13842936D02*
X6758277Y-13852460D01*
X6758277Y-13852460D02*
X6748753Y-13861984D01*
X6748753Y-13861984D02*
X6739229Y-13852460D01*
X6739229Y-13852460D02*
X6748753Y-13842936D01*
X6748753Y-13842936D02*
X6748753Y-13861984D01*
X6872562Y-13747698D02*
X6853515Y-13738174D01*
X6853515Y-13738174D02*
X6843991Y-13728650D01*
X6843991Y-13728650D02*
X6834467Y-13709603D01*
X6834467Y-13709603D02*
X6834467Y-13700079D01*
X6834467Y-13700079D02*
X6843991Y-13681031D01*
X6843991Y-13681031D02*
X6853515Y-13671508D01*
X6853515Y-13671508D02*
X6872562Y-13661984D01*
X6872562Y-13661984D02*
X6910658Y-13661984D01*
X6910658Y-13661984D02*
X6929705Y-13671508D01*
X6929705Y-13671508D02*
X6939229Y-13681031D01*
X6939229Y-13681031D02*
X6948753Y-13700079D01*
X6948753Y-13700079D02*
X6948753Y-13709603D01*
X6948753Y-13709603D02*
X6939229Y-13728650D01*
X6939229Y-13728650D02*
X6929705Y-13738174D01*
X6929705Y-13738174D02*
X6910658Y-13747698D01*
X6910658Y-13747698D02*
X6872562Y-13747698D01*
X6872562Y-13747698D02*
X6853515Y-13757222D01*
X6853515Y-13757222D02*
X6843991Y-13766746D01*
X6843991Y-13766746D02*
X6834467Y-13785793D01*
X6834467Y-13785793D02*
X6834467Y-13823888D01*
X6834467Y-13823888D02*
X6843991Y-13842936D01*
X6843991Y-13842936D02*
X6853515Y-13852460D01*
X6853515Y-13852460D02*
X6872562Y-13861984D01*
X6872562Y-13861984D02*
X6910658Y-13861984D01*
X6910658Y-13861984D02*
X6929705Y-13852460D01*
X6929705Y-13852460D02*
X6939229Y-13842936D01*
X6939229Y-13842936D02*
X6948753Y-13823888D01*
X6948753Y-13823888D02*
X6948753Y-13785793D01*
X6948753Y-13785793D02*
X6939229Y-13766746D01*
X6939229Y-13766746D02*
X6929705Y-13757222D01*
X6929705Y-13757222D02*
X6910658Y-13747698D01*
X7072562Y-13661984D02*
X7091610Y-13661984D01*
X7091610Y-13661984D02*
X7110658Y-13671508D01*
X7110658Y-13671508D02*
X7120182Y-13681031D01*
X7120182Y-13681031D02*
X7129705Y-13700079D01*
X7129705Y-13700079D02*
X7139229Y-13738174D01*
X7139229Y-13738174D02*
X7139229Y-13785793D01*
X7139229Y-13785793D02*
X7129705Y-13823888D01*
X7129705Y-13823888D02*
X7120182Y-13842936D01*
X7120182Y-13842936D02*
X7110658Y-13852460D01*
X7110658Y-13852460D02*
X7091610Y-13861984D01*
X7091610Y-13861984D02*
X7072562Y-13861984D01*
X7072562Y-13861984D02*
X7053515Y-13852460D01*
X7053515Y-13852460D02*
X7043991Y-13842936D01*
X7043991Y-13842936D02*
X7034467Y-13823888D01*
X7034467Y-13823888D02*
X7024943Y-13785793D01*
X7024943Y-13785793D02*
X7024943Y-13738174D01*
X7024943Y-13738174D02*
X7034467Y-13700079D01*
X7034467Y-13700079D02*
X7043991Y-13681031D01*
X7043991Y-13681031D02*
X7053515Y-13671508D01*
X7053515Y-13671508D02*
X7072562Y-13661984D01*
X7263039Y-13661984D02*
X7282086Y-13661984D01*
X7282086Y-13661984D02*
X7301134Y-13671508D01*
X7301134Y-13671508D02*
X7310658Y-13681031D01*
X7310658Y-13681031D02*
X7320182Y-13700079D01*
X7320182Y-13700079D02*
X7329705Y-13738174D01*
X7329705Y-13738174D02*
X7329705Y-13785793D01*
X7329705Y-13785793D02*
X7320182Y-13823888D01*
X7320182Y-13823888D02*
X7310658Y-13842936D01*
X7310658Y-13842936D02*
X7301134Y-13852460D01*
X7301134Y-13852460D02*
X7282086Y-13861984D01*
X7282086Y-13861984D02*
X7263039Y-13861984D01*
X7263039Y-13861984D02*
X7243991Y-13852460D01*
X7243991Y-13852460D02*
X7234467Y-13842936D01*
X7234467Y-13842936D02*
X7224943Y-13823888D01*
X7224943Y-13823888D02*
X7215420Y-13785793D01*
X7215420Y-13785793D02*
X7215420Y-13738174D01*
X7215420Y-13738174D02*
X7224943Y-13700079D01*
X7224943Y-13700079D02*
X7234467Y-13681031D01*
X7234467Y-13681031D02*
X7243991Y-13671508D01*
X7243991Y-13671508D02*
X7263039Y-13661984D01*
X7415420Y-13861984D02*
X7415420Y-13728650D01*
X7415420Y-13747698D02*
X7424943Y-13738174D01*
X7424943Y-13738174D02*
X7443991Y-13728650D01*
X7443991Y-13728650D02*
X7472563Y-13728650D01*
X7472563Y-13728650D02*
X7491610Y-13738174D01*
X7491610Y-13738174D02*
X7501134Y-13757222D01*
X7501134Y-13757222D02*
X7501134Y-13861984D01*
X7501134Y-13757222D02*
X7510658Y-13738174D01*
X7510658Y-13738174D02*
X7529705Y-13728650D01*
X7529705Y-13728650D02*
X7558277Y-13728650D01*
X7558277Y-13728650D02*
X7577324Y-13738174D01*
X7577324Y-13738174D02*
X7586848Y-13757222D01*
X7586848Y-13757222D02*
X7586848Y-13861984D01*
X7682086Y-13861984D02*
X7682086Y-13728650D01*
X7682086Y-13747698D02*
X7691610Y-13738174D01*
X7691610Y-13738174D02*
X7710658Y-13728650D01*
X7710658Y-13728650D02*
X7739229Y-13728650D01*
X7739229Y-13728650D02*
X7758277Y-13738174D01*
X7758277Y-13738174D02*
X7767801Y-13757222D01*
X7767801Y-13757222D02*
X7767801Y-13861984D01*
X7767801Y-13757222D02*
X7777324Y-13738174D01*
X7777324Y-13738174D02*
X7796372Y-13728650D01*
X7796372Y-13728650D02*
X7824943Y-13728650D01*
X7824943Y-13728650D02*
X7843991Y-13738174D01*
X7843991Y-13738174D02*
X7853515Y-13757222D01*
X7853515Y-13757222D02*
X7853515Y-13861984D01*
X8243991Y-13652460D02*
X8072563Y-13909603D01*
X8501134Y-13661984D02*
X8520182Y-13661984D01*
X8520182Y-13661984D02*
X8539229Y-13671508D01*
X8539229Y-13671508D02*
X8548753Y-13681031D01*
X8548753Y-13681031D02*
X8558277Y-13700079D01*
X8558277Y-13700079D02*
X8567801Y-13738174D01*
X8567801Y-13738174D02*
X8567801Y-13785793D01*
X8567801Y-13785793D02*
X8558277Y-13823888D01*
X8558277Y-13823888D02*
X8548753Y-13842936D01*
X8548753Y-13842936D02*
X8539229Y-13852460D01*
X8539229Y-13852460D02*
X8520182Y-13861984D01*
X8520182Y-13861984D02*
X8501134Y-13861984D01*
X8501134Y-13861984D02*
X8482087Y-13852460D01*
X8482087Y-13852460D02*
X8472563Y-13842936D01*
X8472563Y-13842936D02*
X8463039Y-13823888D01*
X8463039Y-13823888D02*
X8453515Y-13785793D01*
X8453515Y-13785793D02*
X8453515Y-13738174D01*
X8453515Y-13738174D02*
X8463039Y-13700079D01*
X8463039Y-13700079D02*
X8472563Y-13681031D01*
X8472563Y-13681031D02*
X8482087Y-13671508D01*
X8482087Y-13671508D02*
X8501134Y-13661984D01*
X8653515Y-13842936D02*
X8663039Y-13852460D01*
X8663039Y-13852460D02*
X8653515Y-13861984D01*
X8653515Y-13861984D02*
X8643991Y-13852460D01*
X8643991Y-13852460D02*
X8653515Y-13842936D01*
X8653515Y-13842936D02*
X8653515Y-13861984D01*
X8786848Y-13661984D02*
X8805896Y-13661984D01*
X8805896Y-13661984D02*
X8824944Y-13671508D01*
X8824944Y-13671508D02*
X8834468Y-13681031D01*
X8834468Y-13681031D02*
X8843991Y-13700079D01*
X8843991Y-13700079D02*
X8853515Y-13738174D01*
X8853515Y-13738174D02*
X8853515Y-13785793D01*
X8853515Y-13785793D02*
X8843991Y-13823888D01*
X8843991Y-13823888D02*
X8834468Y-13842936D01*
X8834468Y-13842936D02*
X8824944Y-13852460D01*
X8824944Y-13852460D02*
X8805896Y-13861984D01*
X8805896Y-13861984D02*
X8786848Y-13861984D01*
X8786848Y-13861984D02*
X8767801Y-13852460D01*
X8767801Y-13852460D02*
X8758277Y-13842936D01*
X8758277Y-13842936D02*
X8748753Y-13823888D01*
X8748753Y-13823888D02*
X8739229Y-13785793D01*
X8739229Y-13785793D02*
X8739229Y-13738174D01*
X8739229Y-13738174D02*
X8748753Y-13700079D01*
X8748753Y-13700079D02*
X8758277Y-13681031D01*
X8758277Y-13681031D02*
X8767801Y-13671508D01*
X8767801Y-13671508D02*
X8786848Y-13661984D01*
X8920182Y-13661984D02*
X9043991Y-13661984D01*
X9043991Y-13661984D02*
X8977325Y-13738174D01*
X8977325Y-13738174D02*
X9005896Y-13738174D01*
X9005896Y-13738174D02*
X9024944Y-13747698D01*
X9024944Y-13747698D02*
X9034468Y-13757222D01*
X9034468Y-13757222D02*
X9043991Y-13776269D01*
X9043991Y-13776269D02*
X9043991Y-13823888D01*
X9043991Y-13823888D02*
X9034468Y-13842936D01*
X9034468Y-13842936D02*
X9024944Y-13852460D01*
X9024944Y-13852460D02*
X9005896Y-13861984D01*
X9005896Y-13861984D02*
X8948753Y-13861984D01*
X8948753Y-13861984D02*
X8929706Y-13852460D01*
X8929706Y-13852460D02*
X8920182Y-13842936D01*
X9234468Y-13861984D02*
X9120182Y-13861984D01*
X9177325Y-13861984D02*
X9177325Y-13661984D01*
X9177325Y-13661984D02*
X9158277Y-13690555D01*
X9158277Y-13690555D02*
X9139229Y-13709603D01*
X9139229Y-13709603D02*
X9120182Y-13719127D01*
X9415420Y-13661984D02*
X9320182Y-13661984D01*
X9320182Y-13661984D02*
X9310658Y-13757222D01*
X9310658Y-13757222D02*
X9320182Y-13747698D01*
X9320182Y-13747698D02*
X9339229Y-13738174D01*
X9339229Y-13738174D02*
X9386849Y-13738174D01*
X9386849Y-13738174D02*
X9405896Y-13747698D01*
X9405896Y-13747698D02*
X9415420Y-13757222D01*
X9415420Y-13757222D02*
X9424944Y-13776269D01*
X9424944Y-13776269D02*
X9424944Y-13823888D01*
X9424944Y-13823888D02*
X9415420Y-13842936D01*
X9415420Y-13842936D02*
X9405896Y-13852460D01*
X9405896Y-13852460D02*
X9386849Y-13861984D01*
X9386849Y-13861984D02*
X9339229Y-13861984D01*
X9339229Y-13861984D02*
X9320182Y-13852460D01*
X9320182Y-13852460D02*
X9310658Y-13842936D01*
X9501134Y-13661984D02*
X9501134Y-13700079D01*
X9577325Y-13661984D02*
X9577325Y-13700079D01*
X9872563Y-13938174D02*
X9863039Y-13928650D01*
X9863039Y-13928650D02*
X9843991Y-13900079D01*
X9843991Y-13900079D02*
X9834468Y-13881031D01*
X9834468Y-13881031D02*
X9824944Y-13852460D01*
X9824944Y-13852460D02*
X9815420Y-13804841D01*
X9815420Y-13804841D02*
X9815420Y-13766746D01*
X9815420Y-13766746D02*
X9824944Y-13719127D01*
X9824944Y-13719127D02*
X9834468Y-13690555D01*
X9834468Y-13690555D02*
X9843991Y-13671508D01*
X9843991Y-13671508D02*
X9863039Y-13642936D01*
X9863039Y-13642936D02*
X9872563Y-13633412D01*
X10034468Y-13661984D02*
X9996372Y-13661984D01*
X9996372Y-13661984D02*
X9977325Y-13671508D01*
X9977325Y-13671508D02*
X9967801Y-13681031D01*
X9967801Y-13681031D02*
X9948753Y-13709603D01*
X9948753Y-13709603D02*
X9939230Y-13747698D01*
X9939230Y-13747698D02*
X9939230Y-13823888D01*
X9939230Y-13823888D02*
X9948753Y-13842936D01*
X9948753Y-13842936D02*
X9958277Y-13852460D01*
X9958277Y-13852460D02*
X9977325Y-13861984D01*
X9977325Y-13861984D02*
X10015420Y-13861984D01*
X10015420Y-13861984D02*
X10034468Y-13852460D01*
X10034468Y-13852460D02*
X10043991Y-13842936D01*
X10043991Y-13842936D02*
X10053515Y-13823888D01*
X10053515Y-13823888D02*
X10053515Y-13776269D01*
X10053515Y-13776269D02*
X10043991Y-13757222D01*
X10043991Y-13757222D02*
X10034468Y-13747698D01*
X10034468Y-13747698D02*
X10015420Y-13738174D01*
X10015420Y-13738174D02*
X9977325Y-13738174D01*
X9977325Y-13738174D02*
X9958277Y-13747698D01*
X9958277Y-13747698D02*
X9948753Y-13757222D01*
X9948753Y-13757222D02*
X9939230Y-13776269D01*
X10291611Y-13861984D02*
X10291611Y-13661984D01*
X10377325Y-13861984D02*
X10377325Y-13757222D01*
X10377325Y-13757222D02*
X10367801Y-13738174D01*
X10367801Y-13738174D02*
X10348753Y-13728650D01*
X10348753Y-13728650D02*
X10320182Y-13728650D01*
X10320182Y-13728650D02*
X10301134Y-13738174D01*
X10301134Y-13738174D02*
X10291611Y-13747698D01*
X10501134Y-13861984D02*
X10482087Y-13852460D01*
X10482087Y-13852460D02*
X10472563Y-13842936D01*
X10472563Y-13842936D02*
X10463039Y-13823888D01*
X10463039Y-13823888D02*
X10463039Y-13766746D01*
X10463039Y-13766746D02*
X10472563Y-13747698D01*
X10472563Y-13747698D02*
X10482087Y-13738174D01*
X10482087Y-13738174D02*
X10501134Y-13728650D01*
X10501134Y-13728650D02*
X10529706Y-13728650D01*
X10529706Y-13728650D02*
X10548753Y-13738174D01*
X10548753Y-13738174D02*
X10558277Y-13747698D01*
X10558277Y-13747698D02*
X10567801Y-13766746D01*
X10567801Y-13766746D02*
X10567801Y-13823888D01*
X10567801Y-13823888D02*
X10558277Y-13842936D01*
X10558277Y-13842936D02*
X10548753Y-13852460D01*
X10548753Y-13852460D02*
X10529706Y-13861984D01*
X10529706Y-13861984D02*
X10501134Y-13861984D01*
X10682087Y-13861984D02*
X10663039Y-13852460D01*
X10663039Y-13852460D02*
X10653515Y-13833412D01*
X10653515Y-13833412D02*
X10653515Y-13661984D01*
X10834468Y-13852460D02*
X10815420Y-13861984D01*
X10815420Y-13861984D02*
X10777325Y-13861984D01*
X10777325Y-13861984D02*
X10758277Y-13852460D01*
X10758277Y-13852460D02*
X10748753Y-13833412D01*
X10748753Y-13833412D02*
X10748753Y-13757222D01*
X10748753Y-13757222D02*
X10758277Y-13738174D01*
X10758277Y-13738174D02*
X10777325Y-13728650D01*
X10777325Y-13728650D02*
X10815420Y-13728650D01*
X10815420Y-13728650D02*
X10834468Y-13738174D01*
X10834468Y-13738174D02*
X10843992Y-13757222D01*
X10843992Y-13757222D02*
X10843992Y-13776269D01*
X10843992Y-13776269D02*
X10748753Y-13795317D01*
X10920182Y-13852460D02*
X10939230Y-13861984D01*
X10939230Y-13861984D02*
X10977325Y-13861984D01*
X10977325Y-13861984D02*
X10996373Y-13852460D01*
X10996373Y-13852460D02*
X11005896Y-13833412D01*
X11005896Y-13833412D02*
X11005896Y-13823888D01*
X11005896Y-13823888D02*
X10996373Y-13804841D01*
X10996373Y-13804841D02*
X10977325Y-13795317D01*
X10977325Y-13795317D02*
X10948753Y-13795317D01*
X10948753Y-13795317D02*
X10929706Y-13785793D01*
X10929706Y-13785793D02*
X10920182Y-13766746D01*
X10920182Y-13766746D02*
X10920182Y-13757222D01*
X10920182Y-13757222D02*
X10929706Y-13738174D01*
X10929706Y-13738174D02*
X10948753Y-13728650D01*
X10948753Y-13728650D02*
X10977325Y-13728650D01*
X10977325Y-13728650D02*
X10996373Y-13738174D01*
X11072563Y-13938174D02*
X11082087Y-13928650D01*
X11082087Y-13928650D02*
X11101134Y-13900079D01*
X11101134Y-13900079D02*
X11110658Y-13881031D01*
X11110658Y-13881031D02*
X11120182Y-13852460D01*
X11120182Y-13852460D02*
X11129706Y-13804841D01*
X11129706Y-13804841D02*
X11129706Y-13766746D01*
X11129706Y-13766746D02*
X11120182Y-13719127D01*
X11120182Y-13719127D02*
X11110658Y-13690555D01*
X11110658Y-13690555D02*
X11101134Y-13671508D01*
X11101134Y-13671508D02*
X11082087Y-13642936D01*
X11082087Y-13642936D02*
X11072563Y-13633412D01*
D12*
X6285052Y-14064552D02*
X6285052Y-14004448D01*
X6224948Y-14004448D01*
X6224948Y-14064552D01*
X6285052Y-14064552D01*
D11*
X6596372Y-13925984D02*
X6615420Y-13925984D01*
X6615420Y-13925984D02*
X6634467Y-13935508D01*
X6634467Y-13935508D02*
X6643991Y-13945031D01*
X6643991Y-13945031D02*
X6653515Y-13964079D01*
X6653515Y-13964079D02*
X6663039Y-14002174D01*
X6663039Y-14002174D02*
X6663039Y-14049793D01*
X6663039Y-14049793D02*
X6653515Y-14087888D01*
X6653515Y-14087888D02*
X6643991Y-14106936D01*
X6643991Y-14106936D02*
X6634467Y-14116460D01*
X6634467Y-14116460D02*
X6615420Y-14125984D01*
X6615420Y-14125984D02*
X6596372Y-14125984D01*
X6596372Y-14125984D02*
X6577324Y-14116460D01*
X6577324Y-14116460D02*
X6567801Y-14106936D01*
X6567801Y-14106936D02*
X6558277Y-14087888D01*
X6558277Y-14087888D02*
X6548753Y-14049793D01*
X6548753Y-14049793D02*
X6548753Y-14002174D01*
X6548753Y-14002174D02*
X6558277Y-13964079D01*
X6558277Y-13964079D02*
X6567801Y-13945031D01*
X6567801Y-13945031D02*
X6577324Y-13935508D01*
X6577324Y-13935508D02*
X6596372Y-13925984D01*
X6748753Y-14106936D02*
X6758277Y-14116460D01*
X6758277Y-14116460D02*
X6748753Y-14125984D01*
X6748753Y-14125984D02*
X6739229Y-14116460D01*
X6739229Y-14116460D02*
X6748753Y-14106936D01*
X6748753Y-14106936D02*
X6748753Y-14125984D01*
X6872562Y-14011698D02*
X6853515Y-14002174D01*
X6853515Y-14002174D02*
X6843991Y-13992650D01*
X6843991Y-13992650D02*
X6834467Y-13973603D01*
X6834467Y-13973603D02*
X6834467Y-13964079D01*
X6834467Y-13964079D02*
X6843991Y-13945031D01*
X6843991Y-13945031D02*
X6853515Y-13935508D01*
X6853515Y-13935508D02*
X6872562Y-13925984D01*
X6872562Y-13925984D02*
X6910658Y-13925984D01*
X6910658Y-13925984D02*
X6929705Y-13935508D01*
X6929705Y-13935508D02*
X6939229Y-13945031D01*
X6939229Y-13945031D02*
X6948753Y-13964079D01*
X6948753Y-13964079D02*
X6948753Y-13973603D01*
X6948753Y-13973603D02*
X6939229Y-13992650D01*
X6939229Y-13992650D02*
X6929705Y-14002174D01*
X6929705Y-14002174D02*
X6910658Y-14011698D01*
X6910658Y-14011698D02*
X6872562Y-14011698D01*
X6872562Y-14011698D02*
X6853515Y-14021222D01*
X6853515Y-14021222D02*
X6843991Y-14030746D01*
X6843991Y-14030746D02*
X6834467Y-14049793D01*
X6834467Y-14049793D02*
X6834467Y-14087888D01*
X6834467Y-14087888D02*
X6843991Y-14106936D01*
X6843991Y-14106936D02*
X6853515Y-14116460D01*
X6853515Y-14116460D02*
X6872562Y-14125984D01*
X6872562Y-14125984D02*
X6910658Y-14125984D01*
X6910658Y-14125984D02*
X6929705Y-14116460D01*
X6929705Y-14116460D02*
X6939229Y-14106936D01*
X6939229Y-14106936D02*
X6948753Y-14087888D01*
X6948753Y-14087888D02*
X6948753Y-14049793D01*
X6948753Y-14049793D02*
X6939229Y-14030746D01*
X6939229Y-14030746D02*
X6929705Y-14021222D01*
X6929705Y-14021222D02*
X6910658Y-14011698D01*
X7129705Y-13925984D02*
X7034467Y-13925984D01*
X7034467Y-13925984D02*
X7024943Y-14021222D01*
X7024943Y-14021222D02*
X7034467Y-14011698D01*
X7034467Y-14011698D02*
X7053515Y-14002174D01*
X7053515Y-14002174D02*
X7101134Y-14002174D01*
X7101134Y-14002174D02*
X7120182Y-14011698D01*
X7120182Y-14011698D02*
X7129705Y-14021222D01*
X7129705Y-14021222D02*
X7139229Y-14040269D01*
X7139229Y-14040269D02*
X7139229Y-14087888D01*
X7139229Y-14087888D02*
X7129705Y-14106936D01*
X7129705Y-14106936D02*
X7120182Y-14116460D01*
X7120182Y-14116460D02*
X7101134Y-14125984D01*
X7101134Y-14125984D02*
X7053515Y-14125984D01*
X7053515Y-14125984D02*
X7034467Y-14116460D01*
X7034467Y-14116460D02*
X7024943Y-14106936D01*
X7263039Y-13925984D02*
X7282086Y-13925984D01*
X7282086Y-13925984D02*
X7301134Y-13935508D01*
X7301134Y-13935508D02*
X7310658Y-13945031D01*
X7310658Y-13945031D02*
X7320182Y-13964079D01*
X7320182Y-13964079D02*
X7329705Y-14002174D01*
X7329705Y-14002174D02*
X7329705Y-14049793D01*
X7329705Y-14049793D02*
X7320182Y-14087888D01*
X7320182Y-14087888D02*
X7310658Y-14106936D01*
X7310658Y-14106936D02*
X7301134Y-14116460D01*
X7301134Y-14116460D02*
X7282086Y-14125984D01*
X7282086Y-14125984D02*
X7263039Y-14125984D01*
X7263039Y-14125984D02*
X7243991Y-14116460D01*
X7243991Y-14116460D02*
X7234467Y-14106936D01*
X7234467Y-14106936D02*
X7224943Y-14087888D01*
X7224943Y-14087888D02*
X7215420Y-14049793D01*
X7215420Y-14049793D02*
X7215420Y-14002174D01*
X7215420Y-14002174D02*
X7224943Y-13964079D01*
X7224943Y-13964079D02*
X7234467Y-13945031D01*
X7234467Y-13945031D02*
X7243991Y-13935508D01*
X7243991Y-13935508D02*
X7263039Y-13925984D01*
X7415420Y-14125984D02*
X7415420Y-13992650D01*
X7415420Y-14011698D02*
X7424943Y-14002174D01*
X7424943Y-14002174D02*
X7443991Y-13992650D01*
X7443991Y-13992650D02*
X7472563Y-13992650D01*
X7472563Y-13992650D02*
X7491610Y-14002174D01*
X7491610Y-14002174D02*
X7501134Y-14021222D01*
X7501134Y-14021222D02*
X7501134Y-14125984D01*
X7501134Y-14021222D02*
X7510658Y-14002174D01*
X7510658Y-14002174D02*
X7529705Y-13992650D01*
X7529705Y-13992650D02*
X7558277Y-13992650D01*
X7558277Y-13992650D02*
X7577324Y-14002174D01*
X7577324Y-14002174D02*
X7586848Y-14021222D01*
X7586848Y-14021222D02*
X7586848Y-14125984D01*
X7682086Y-14125984D02*
X7682086Y-13992650D01*
X7682086Y-14011698D02*
X7691610Y-14002174D01*
X7691610Y-14002174D02*
X7710658Y-13992650D01*
X7710658Y-13992650D02*
X7739229Y-13992650D01*
X7739229Y-13992650D02*
X7758277Y-14002174D01*
X7758277Y-14002174D02*
X7767801Y-14021222D01*
X7767801Y-14021222D02*
X7767801Y-14125984D01*
X7767801Y-14021222D02*
X7777324Y-14002174D01*
X7777324Y-14002174D02*
X7796372Y-13992650D01*
X7796372Y-13992650D02*
X7824943Y-13992650D01*
X7824943Y-13992650D02*
X7843991Y-14002174D01*
X7843991Y-14002174D02*
X7853515Y-14021222D01*
X7853515Y-14021222D02*
X7853515Y-14125984D01*
X8243991Y-13916460D02*
X8072563Y-14173603D01*
X8501134Y-13925984D02*
X8520182Y-13925984D01*
X8520182Y-13925984D02*
X8539229Y-13935508D01*
X8539229Y-13935508D02*
X8548753Y-13945031D01*
X8548753Y-13945031D02*
X8558277Y-13964079D01*
X8558277Y-13964079D02*
X8567801Y-14002174D01*
X8567801Y-14002174D02*
X8567801Y-14049793D01*
X8567801Y-14049793D02*
X8558277Y-14087888D01*
X8558277Y-14087888D02*
X8548753Y-14106936D01*
X8548753Y-14106936D02*
X8539229Y-14116460D01*
X8539229Y-14116460D02*
X8520182Y-14125984D01*
X8520182Y-14125984D02*
X8501134Y-14125984D01*
X8501134Y-14125984D02*
X8482087Y-14116460D01*
X8482087Y-14116460D02*
X8472563Y-14106936D01*
X8472563Y-14106936D02*
X8463039Y-14087888D01*
X8463039Y-14087888D02*
X8453515Y-14049793D01*
X8453515Y-14049793D02*
X8453515Y-14002174D01*
X8453515Y-14002174D02*
X8463039Y-13964079D01*
X8463039Y-13964079D02*
X8472563Y-13945031D01*
X8472563Y-13945031D02*
X8482087Y-13935508D01*
X8482087Y-13935508D02*
X8501134Y-13925984D01*
X8653515Y-14106936D02*
X8663039Y-14116460D01*
X8663039Y-14116460D02*
X8653515Y-14125984D01*
X8653515Y-14125984D02*
X8643991Y-14116460D01*
X8643991Y-14116460D02*
X8653515Y-14106936D01*
X8653515Y-14106936D02*
X8653515Y-14125984D01*
X8786848Y-13925984D02*
X8805896Y-13925984D01*
X8805896Y-13925984D02*
X8824944Y-13935508D01*
X8824944Y-13935508D02*
X8834468Y-13945031D01*
X8834468Y-13945031D02*
X8843991Y-13964079D01*
X8843991Y-13964079D02*
X8853515Y-14002174D01*
X8853515Y-14002174D02*
X8853515Y-14049793D01*
X8853515Y-14049793D02*
X8843991Y-14087888D01*
X8843991Y-14087888D02*
X8834468Y-14106936D01*
X8834468Y-14106936D02*
X8824944Y-14116460D01*
X8824944Y-14116460D02*
X8805896Y-14125984D01*
X8805896Y-14125984D02*
X8786848Y-14125984D01*
X8786848Y-14125984D02*
X8767801Y-14116460D01*
X8767801Y-14116460D02*
X8758277Y-14106936D01*
X8758277Y-14106936D02*
X8748753Y-14087888D01*
X8748753Y-14087888D02*
X8739229Y-14049793D01*
X8739229Y-14049793D02*
X8739229Y-14002174D01*
X8739229Y-14002174D02*
X8748753Y-13964079D01*
X8748753Y-13964079D02*
X8758277Y-13945031D01*
X8758277Y-13945031D02*
X8767801Y-13935508D01*
X8767801Y-13935508D02*
X8786848Y-13925984D01*
X8920182Y-13925984D02*
X9043991Y-13925984D01*
X9043991Y-13925984D02*
X8977325Y-14002174D01*
X8977325Y-14002174D02*
X9005896Y-14002174D01*
X9005896Y-14002174D02*
X9024944Y-14011698D01*
X9024944Y-14011698D02*
X9034468Y-14021222D01*
X9034468Y-14021222D02*
X9043991Y-14040269D01*
X9043991Y-14040269D02*
X9043991Y-14087888D01*
X9043991Y-14087888D02*
X9034468Y-14106936D01*
X9034468Y-14106936D02*
X9024944Y-14116460D01*
X9024944Y-14116460D02*
X9005896Y-14125984D01*
X9005896Y-14125984D02*
X8948753Y-14125984D01*
X8948753Y-14125984D02*
X8929706Y-14116460D01*
X8929706Y-14116460D02*
X8920182Y-14106936D01*
X9110658Y-13925984D02*
X9234468Y-13925984D01*
X9234468Y-13925984D02*
X9167801Y-14002174D01*
X9167801Y-14002174D02*
X9196372Y-14002174D01*
X9196372Y-14002174D02*
X9215420Y-14011698D01*
X9215420Y-14011698D02*
X9224944Y-14021222D01*
X9224944Y-14021222D02*
X9234468Y-14040269D01*
X9234468Y-14040269D02*
X9234468Y-14087888D01*
X9234468Y-14087888D02*
X9224944Y-14106936D01*
X9224944Y-14106936D02*
X9215420Y-14116460D01*
X9215420Y-14116460D02*
X9196372Y-14125984D01*
X9196372Y-14125984D02*
X9139229Y-14125984D01*
X9139229Y-14125984D02*
X9120182Y-14116460D01*
X9120182Y-14116460D02*
X9110658Y-14106936D01*
X9415420Y-13925984D02*
X9320182Y-13925984D01*
X9320182Y-13925984D02*
X9310658Y-14021222D01*
X9310658Y-14021222D02*
X9320182Y-14011698D01*
X9320182Y-14011698D02*
X9339229Y-14002174D01*
X9339229Y-14002174D02*
X9386849Y-14002174D01*
X9386849Y-14002174D02*
X9405896Y-14011698D01*
X9405896Y-14011698D02*
X9415420Y-14021222D01*
X9415420Y-14021222D02*
X9424944Y-14040269D01*
X9424944Y-14040269D02*
X9424944Y-14087888D01*
X9424944Y-14087888D02*
X9415420Y-14106936D01*
X9415420Y-14106936D02*
X9405896Y-14116460D01*
X9405896Y-14116460D02*
X9386849Y-14125984D01*
X9386849Y-14125984D02*
X9339229Y-14125984D01*
X9339229Y-14125984D02*
X9320182Y-14116460D01*
X9320182Y-14116460D02*
X9310658Y-14106936D01*
X9501134Y-13925984D02*
X9501134Y-13964079D01*
X9577325Y-13925984D02*
X9577325Y-13964079D01*
X9872563Y-14202174D02*
X9863039Y-14192650D01*
X9863039Y-14192650D02*
X9843991Y-14164079D01*
X9843991Y-14164079D02*
X9834468Y-14145031D01*
X9834468Y-14145031D02*
X9824944Y-14116460D01*
X9824944Y-14116460D02*
X9815420Y-14068841D01*
X9815420Y-14068841D02*
X9815420Y-14030746D01*
X9815420Y-14030746D02*
X9824944Y-13983127D01*
X9824944Y-13983127D02*
X9834468Y-13954555D01*
X9834468Y-13954555D02*
X9843991Y-13935508D01*
X9843991Y-13935508D02*
X9863039Y-13906936D01*
X9863039Y-13906936D02*
X9872563Y-13897412D01*
X10034468Y-13992650D02*
X10034468Y-14125984D01*
X9986849Y-13916460D02*
X9939230Y-14059317D01*
X9939230Y-14059317D02*
X10063039Y-14059317D01*
X10291611Y-14125984D02*
X10291611Y-13925984D01*
X10377325Y-14125984D02*
X10377325Y-14021222D01*
X10377325Y-14021222D02*
X10367801Y-14002174D01*
X10367801Y-14002174D02*
X10348753Y-13992650D01*
X10348753Y-13992650D02*
X10320182Y-13992650D01*
X10320182Y-13992650D02*
X10301134Y-14002174D01*
X10301134Y-14002174D02*
X10291611Y-14011698D01*
X10501134Y-14125984D02*
X10482087Y-14116460D01*
X10482087Y-14116460D02*
X10472563Y-14106936D01*
X10472563Y-14106936D02*
X10463039Y-14087888D01*
X10463039Y-14087888D02*
X10463039Y-14030746D01*
X10463039Y-14030746D02*
X10472563Y-14011698D01*
X10472563Y-14011698D02*
X10482087Y-14002174D01*
X10482087Y-14002174D02*
X10501134Y-13992650D01*
X10501134Y-13992650D02*
X10529706Y-13992650D01*
X10529706Y-13992650D02*
X10548753Y-14002174D01*
X10548753Y-14002174D02*
X10558277Y-14011698D01*
X10558277Y-14011698D02*
X10567801Y-14030746D01*
X10567801Y-14030746D02*
X10567801Y-14087888D01*
X10567801Y-14087888D02*
X10558277Y-14106936D01*
X10558277Y-14106936D02*
X10548753Y-14116460D01*
X10548753Y-14116460D02*
X10529706Y-14125984D01*
X10529706Y-14125984D02*
X10501134Y-14125984D01*
X10682087Y-14125984D02*
X10663039Y-14116460D01*
X10663039Y-14116460D02*
X10653515Y-14097412D01*
X10653515Y-14097412D02*
X10653515Y-13925984D01*
X10834468Y-14116460D02*
X10815420Y-14125984D01*
X10815420Y-14125984D02*
X10777325Y-14125984D01*
X10777325Y-14125984D02*
X10758277Y-14116460D01*
X10758277Y-14116460D02*
X10748753Y-14097412D01*
X10748753Y-14097412D02*
X10748753Y-14021222D01*
X10748753Y-14021222D02*
X10758277Y-14002174D01*
X10758277Y-14002174D02*
X10777325Y-13992650D01*
X10777325Y-13992650D02*
X10815420Y-13992650D01*
X10815420Y-13992650D02*
X10834468Y-14002174D01*
X10834468Y-14002174D02*
X10843992Y-14021222D01*
X10843992Y-14021222D02*
X10843992Y-14040269D01*
X10843992Y-14040269D02*
X10748753Y-14059317D01*
X10920182Y-14116460D02*
X10939230Y-14125984D01*
X10939230Y-14125984D02*
X10977325Y-14125984D01*
X10977325Y-14125984D02*
X10996373Y-14116460D01*
X10996373Y-14116460D02*
X11005896Y-14097412D01*
X11005896Y-14097412D02*
X11005896Y-14087888D01*
X11005896Y-14087888D02*
X10996373Y-14068841D01*
X10996373Y-14068841D02*
X10977325Y-14059317D01*
X10977325Y-14059317D02*
X10948753Y-14059317D01*
X10948753Y-14059317D02*
X10929706Y-14049793D01*
X10929706Y-14049793D02*
X10920182Y-14030746D01*
X10920182Y-14030746D02*
X10920182Y-14021222D01*
X10920182Y-14021222D02*
X10929706Y-14002174D01*
X10929706Y-14002174D02*
X10948753Y-13992650D01*
X10948753Y-13992650D02*
X10977325Y-13992650D01*
X10977325Y-13992650D02*
X10996373Y-14002174D01*
X11072563Y-14202174D02*
X11082087Y-14192650D01*
X11082087Y-14192650D02*
X11101134Y-14164079D01*
X11101134Y-14164079D02*
X11110658Y-14145031D01*
X11110658Y-14145031D02*
X11120182Y-14116460D01*
X11120182Y-14116460D02*
X11129706Y-14068841D01*
X11129706Y-14068841D02*
X11129706Y-14030746D01*
X11129706Y-14030746D02*
X11120182Y-13983127D01*
X11120182Y-13983127D02*
X11110658Y-13954555D01*
X11110658Y-13954555D02*
X11101134Y-13935508D01*
X11101134Y-13935508D02*
X11082087Y-13906936D01*
X11082087Y-13906936D02*
X11072563Y-13897412D01*
D12*
X6252500Y-14343500D02*
X6297500Y-14298500D01*
X6252500Y-14253500D01*
X6207500Y-14298500D01*
X6252500Y-14343500D01*
D11*
X6596372Y-14189984D02*
X6615420Y-14189984D01*
X6615420Y-14189984D02*
X6634467Y-14199508D01*
X6634467Y-14199508D02*
X6643991Y-14209031D01*
X6643991Y-14209031D02*
X6653515Y-14228079D01*
X6653515Y-14228079D02*
X6663039Y-14266174D01*
X6663039Y-14266174D02*
X6663039Y-14313793D01*
X6663039Y-14313793D02*
X6653515Y-14351888D01*
X6653515Y-14351888D02*
X6643991Y-14370936D01*
X6643991Y-14370936D02*
X6634467Y-14380460D01*
X6634467Y-14380460D02*
X6615420Y-14389984D01*
X6615420Y-14389984D02*
X6596372Y-14389984D01*
X6596372Y-14389984D02*
X6577324Y-14380460D01*
X6577324Y-14380460D02*
X6567801Y-14370936D01*
X6567801Y-14370936D02*
X6558277Y-14351888D01*
X6558277Y-14351888D02*
X6548753Y-14313793D01*
X6548753Y-14313793D02*
X6548753Y-14266174D01*
X6548753Y-14266174D02*
X6558277Y-14228079D01*
X6558277Y-14228079D02*
X6567801Y-14209031D01*
X6567801Y-14209031D02*
X6577324Y-14199508D01*
X6577324Y-14199508D02*
X6596372Y-14189984D01*
X6748753Y-14370936D02*
X6758277Y-14380460D01*
X6758277Y-14380460D02*
X6748753Y-14389984D01*
X6748753Y-14389984D02*
X6739229Y-14380460D01*
X6739229Y-14380460D02*
X6748753Y-14370936D01*
X6748753Y-14370936D02*
X6748753Y-14389984D01*
X6853515Y-14389984D02*
X6891610Y-14389984D01*
X6891610Y-14389984D02*
X6910658Y-14380460D01*
X6910658Y-14380460D02*
X6920182Y-14370936D01*
X6920182Y-14370936D02*
X6939229Y-14342365D01*
X6939229Y-14342365D02*
X6948753Y-14304269D01*
X6948753Y-14304269D02*
X6948753Y-14228079D01*
X6948753Y-14228079D02*
X6939229Y-14209031D01*
X6939229Y-14209031D02*
X6929705Y-14199508D01*
X6929705Y-14199508D02*
X6910658Y-14189984D01*
X6910658Y-14189984D02*
X6872562Y-14189984D01*
X6872562Y-14189984D02*
X6853515Y-14199508D01*
X6853515Y-14199508D02*
X6843991Y-14209031D01*
X6843991Y-14209031D02*
X6834467Y-14228079D01*
X6834467Y-14228079D02*
X6834467Y-14275698D01*
X6834467Y-14275698D02*
X6843991Y-14294746D01*
X6843991Y-14294746D02*
X6853515Y-14304269D01*
X6853515Y-14304269D02*
X6872562Y-14313793D01*
X6872562Y-14313793D02*
X6910658Y-14313793D01*
X6910658Y-14313793D02*
X6929705Y-14304269D01*
X6929705Y-14304269D02*
X6939229Y-14294746D01*
X6939229Y-14294746D02*
X6948753Y-14275698D01*
X7072562Y-14189984D02*
X7091610Y-14189984D01*
X7091610Y-14189984D02*
X7110658Y-14199508D01*
X7110658Y-14199508D02*
X7120182Y-14209031D01*
X7120182Y-14209031D02*
X7129705Y-14228079D01*
X7129705Y-14228079D02*
X7139229Y-14266174D01*
X7139229Y-14266174D02*
X7139229Y-14313793D01*
X7139229Y-14313793D02*
X7129705Y-14351888D01*
X7129705Y-14351888D02*
X7120182Y-14370936D01*
X7120182Y-14370936D02*
X7110658Y-14380460D01*
X7110658Y-14380460D02*
X7091610Y-14389984D01*
X7091610Y-14389984D02*
X7072562Y-14389984D01*
X7072562Y-14389984D02*
X7053515Y-14380460D01*
X7053515Y-14380460D02*
X7043991Y-14370936D01*
X7043991Y-14370936D02*
X7034467Y-14351888D01*
X7034467Y-14351888D02*
X7024943Y-14313793D01*
X7024943Y-14313793D02*
X7024943Y-14266174D01*
X7024943Y-14266174D02*
X7034467Y-14228079D01*
X7034467Y-14228079D02*
X7043991Y-14209031D01*
X7043991Y-14209031D02*
X7053515Y-14199508D01*
X7053515Y-14199508D02*
X7072562Y-14189984D01*
X7263039Y-14189984D02*
X7282086Y-14189984D01*
X7282086Y-14189984D02*
X7301134Y-14199508D01*
X7301134Y-14199508D02*
X7310658Y-14209031D01*
X7310658Y-14209031D02*
X7320182Y-14228079D01*
X7320182Y-14228079D02*
X7329705Y-14266174D01*
X7329705Y-14266174D02*
X7329705Y-14313793D01*
X7329705Y-14313793D02*
X7320182Y-14351888D01*
X7320182Y-14351888D02*
X7310658Y-14370936D01*
X7310658Y-14370936D02*
X7301134Y-14380460D01*
X7301134Y-14380460D02*
X7282086Y-14389984D01*
X7282086Y-14389984D02*
X7263039Y-14389984D01*
X7263039Y-14389984D02*
X7243991Y-14380460D01*
X7243991Y-14380460D02*
X7234467Y-14370936D01*
X7234467Y-14370936D02*
X7224943Y-14351888D01*
X7224943Y-14351888D02*
X7215420Y-14313793D01*
X7215420Y-14313793D02*
X7215420Y-14266174D01*
X7215420Y-14266174D02*
X7224943Y-14228079D01*
X7224943Y-14228079D02*
X7234467Y-14209031D01*
X7234467Y-14209031D02*
X7243991Y-14199508D01*
X7243991Y-14199508D02*
X7263039Y-14189984D01*
X7415420Y-14389984D02*
X7415420Y-14256650D01*
X7415420Y-14275698D02*
X7424943Y-14266174D01*
X7424943Y-14266174D02*
X7443991Y-14256650D01*
X7443991Y-14256650D02*
X7472563Y-14256650D01*
X7472563Y-14256650D02*
X7491610Y-14266174D01*
X7491610Y-14266174D02*
X7501134Y-14285222D01*
X7501134Y-14285222D02*
X7501134Y-14389984D01*
X7501134Y-14285222D02*
X7510658Y-14266174D01*
X7510658Y-14266174D02*
X7529705Y-14256650D01*
X7529705Y-14256650D02*
X7558277Y-14256650D01*
X7558277Y-14256650D02*
X7577324Y-14266174D01*
X7577324Y-14266174D02*
X7586848Y-14285222D01*
X7586848Y-14285222D02*
X7586848Y-14389984D01*
X7682086Y-14389984D02*
X7682086Y-14256650D01*
X7682086Y-14275698D02*
X7691610Y-14266174D01*
X7691610Y-14266174D02*
X7710658Y-14256650D01*
X7710658Y-14256650D02*
X7739229Y-14256650D01*
X7739229Y-14256650D02*
X7758277Y-14266174D01*
X7758277Y-14266174D02*
X7767801Y-14285222D01*
X7767801Y-14285222D02*
X7767801Y-14389984D01*
X7767801Y-14285222D02*
X7777324Y-14266174D01*
X7777324Y-14266174D02*
X7796372Y-14256650D01*
X7796372Y-14256650D02*
X7824943Y-14256650D01*
X7824943Y-14256650D02*
X7843991Y-14266174D01*
X7843991Y-14266174D02*
X7853515Y-14285222D01*
X7853515Y-14285222D02*
X7853515Y-14389984D01*
X8243991Y-14180460D02*
X8072563Y-14437603D01*
X8501134Y-14189984D02*
X8520182Y-14189984D01*
X8520182Y-14189984D02*
X8539229Y-14199508D01*
X8539229Y-14199508D02*
X8548753Y-14209031D01*
X8548753Y-14209031D02*
X8558277Y-14228079D01*
X8558277Y-14228079D02*
X8567801Y-14266174D01*
X8567801Y-14266174D02*
X8567801Y-14313793D01*
X8567801Y-14313793D02*
X8558277Y-14351888D01*
X8558277Y-14351888D02*
X8548753Y-14370936D01*
X8548753Y-14370936D02*
X8539229Y-14380460D01*
X8539229Y-14380460D02*
X8520182Y-14389984D01*
X8520182Y-14389984D02*
X8501134Y-14389984D01*
X8501134Y-14389984D02*
X8482087Y-14380460D01*
X8482087Y-14380460D02*
X8472563Y-14370936D01*
X8472563Y-14370936D02*
X8463039Y-14351888D01*
X8463039Y-14351888D02*
X8453515Y-14313793D01*
X8453515Y-14313793D02*
X8453515Y-14266174D01*
X8453515Y-14266174D02*
X8463039Y-14228079D01*
X8463039Y-14228079D02*
X8472563Y-14209031D01*
X8472563Y-14209031D02*
X8482087Y-14199508D01*
X8482087Y-14199508D02*
X8501134Y-14189984D01*
X8653515Y-14370936D02*
X8663039Y-14380460D01*
X8663039Y-14380460D02*
X8653515Y-14389984D01*
X8653515Y-14389984D02*
X8643991Y-14380460D01*
X8643991Y-14380460D02*
X8653515Y-14370936D01*
X8653515Y-14370936D02*
X8653515Y-14389984D01*
X8786848Y-14189984D02*
X8805896Y-14189984D01*
X8805896Y-14189984D02*
X8824944Y-14199508D01*
X8824944Y-14199508D02*
X8834468Y-14209031D01*
X8834468Y-14209031D02*
X8843991Y-14228079D01*
X8843991Y-14228079D02*
X8853515Y-14266174D01*
X8853515Y-14266174D02*
X8853515Y-14313793D01*
X8853515Y-14313793D02*
X8843991Y-14351888D01*
X8843991Y-14351888D02*
X8834468Y-14370936D01*
X8834468Y-14370936D02*
X8824944Y-14380460D01*
X8824944Y-14380460D02*
X8805896Y-14389984D01*
X8805896Y-14389984D02*
X8786848Y-14389984D01*
X8786848Y-14389984D02*
X8767801Y-14380460D01*
X8767801Y-14380460D02*
X8758277Y-14370936D01*
X8758277Y-14370936D02*
X8748753Y-14351888D01*
X8748753Y-14351888D02*
X8739229Y-14313793D01*
X8739229Y-14313793D02*
X8739229Y-14266174D01*
X8739229Y-14266174D02*
X8748753Y-14228079D01*
X8748753Y-14228079D02*
X8758277Y-14209031D01*
X8758277Y-14209031D02*
X8767801Y-14199508D01*
X8767801Y-14199508D02*
X8786848Y-14189984D01*
X8920182Y-14189984D02*
X9043991Y-14189984D01*
X9043991Y-14189984D02*
X8977325Y-14266174D01*
X8977325Y-14266174D02*
X9005896Y-14266174D01*
X9005896Y-14266174D02*
X9024944Y-14275698D01*
X9024944Y-14275698D02*
X9034468Y-14285222D01*
X9034468Y-14285222D02*
X9043991Y-14304269D01*
X9043991Y-14304269D02*
X9043991Y-14351888D01*
X9043991Y-14351888D02*
X9034468Y-14370936D01*
X9034468Y-14370936D02*
X9024944Y-14380460D01*
X9024944Y-14380460D02*
X9005896Y-14389984D01*
X9005896Y-14389984D02*
X8948753Y-14389984D01*
X8948753Y-14389984D02*
X8929706Y-14380460D01*
X8929706Y-14380460D02*
X8920182Y-14370936D01*
X9224944Y-14189984D02*
X9129706Y-14189984D01*
X9129706Y-14189984D02*
X9120182Y-14285222D01*
X9120182Y-14285222D02*
X9129706Y-14275698D01*
X9129706Y-14275698D02*
X9148753Y-14266174D01*
X9148753Y-14266174D02*
X9196372Y-14266174D01*
X9196372Y-14266174D02*
X9215420Y-14275698D01*
X9215420Y-14275698D02*
X9224944Y-14285222D01*
X9224944Y-14285222D02*
X9234468Y-14304269D01*
X9234468Y-14304269D02*
X9234468Y-14351888D01*
X9234468Y-14351888D02*
X9224944Y-14370936D01*
X9224944Y-14370936D02*
X9215420Y-14380460D01*
X9215420Y-14380460D02*
X9196372Y-14389984D01*
X9196372Y-14389984D02*
X9148753Y-14389984D01*
X9148753Y-14389984D02*
X9129706Y-14380460D01*
X9129706Y-14380460D02*
X9120182Y-14370936D01*
X9405896Y-14256650D02*
X9405896Y-14389984D01*
X9358277Y-14180460D02*
X9310658Y-14323317D01*
X9310658Y-14323317D02*
X9434468Y-14323317D01*
X9501134Y-14189984D02*
X9501134Y-14228079D01*
X9577325Y-14189984D02*
X9577325Y-14228079D01*
X9872563Y-14466174D02*
X9863039Y-14456650D01*
X9863039Y-14456650D02*
X9843991Y-14428079D01*
X9843991Y-14428079D02*
X9834468Y-14409031D01*
X9834468Y-14409031D02*
X9824944Y-14380460D01*
X9824944Y-14380460D02*
X9815420Y-14332841D01*
X9815420Y-14332841D02*
X9815420Y-14294746D01*
X9815420Y-14294746D02*
X9824944Y-14247127D01*
X9824944Y-14247127D02*
X9834468Y-14218555D01*
X9834468Y-14218555D02*
X9843991Y-14199508D01*
X9843991Y-14199508D02*
X9863039Y-14170936D01*
X9863039Y-14170936D02*
X9872563Y-14161412D01*
X9939230Y-14209031D02*
X9948753Y-14199508D01*
X9948753Y-14199508D02*
X9967801Y-14189984D01*
X9967801Y-14189984D02*
X10015420Y-14189984D01*
X10015420Y-14189984D02*
X10034468Y-14199508D01*
X10034468Y-14199508D02*
X10043991Y-14209031D01*
X10043991Y-14209031D02*
X10053515Y-14228079D01*
X10053515Y-14228079D02*
X10053515Y-14247127D01*
X10053515Y-14247127D02*
X10043991Y-14275698D01*
X10043991Y-14275698D02*
X9929706Y-14389984D01*
X9929706Y-14389984D02*
X10053515Y-14389984D01*
X10291611Y-14389984D02*
X10291611Y-14189984D01*
X10377325Y-14389984D02*
X10377325Y-14285222D01*
X10377325Y-14285222D02*
X10367801Y-14266174D01*
X10367801Y-14266174D02*
X10348753Y-14256650D01*
X10348753Y-14256650D02*
X10320182Y-14256650D01*
X10320182Y-14256650D02*
X10301134Y-14266174D01*
X10301134Y-14266174D02*
X10291611Y-14275698D01*
X10501134Y-14389984D02*
X10482087Y-14380460D01*
X10482087Y-14380460D02*
X10472563Y-14370936D01*
X10472563Y-14370936D02*
X10463039Y-14351888D01*
X10463039Y-14351888D02*
X10463039Y-14294746D01*
X10463039Y-14294746D02*
X10472563Y-14275698D01*
X10472563Y-14275698D02*
X10482087Y-14266174D01*
X10482087Y-14266174D02*
X10501134Y-14256650D01*
X10501134Y-14256650D02*
X10529706Y-14256650D01*
X10529706Y-14256650D02*
X10548753Y-14266174D01*
X10548753Y-14266174D02*
X10558277Y-14275698D01*
X10558277Y-14275698D02*
X10567801Y-14294746D01*
X10567801Y-14294746D02*
X10567801Y-14351888D01*
X10567801Y-14351888D02*
X10558277Y-14370936D01*
X10558277Y-14370936D02*
X10548753Y-14380460D01*
X10548753Y-14380460D02*
X10529706Y-14389984D01*
X10529706Y-14389984D02*
X10501134Y-14389984D01*
X10682087Y-14389984D02*
X10663039Y-14380460D01*
X10663039Y-14380460D02*
X10653515Y-14361412D01*
X10653515Y-14361412D02*
X10653515Y-14189984D01*
X10834468Y-14380460D02*
X10815420Y-14389984D01*
X10815420Y-14389984D02*
X10777325Y-14389984D01*
X10777325Y-14389984D02*
X10758277Y-14380460D01*
X10758277Y-14380460D02*
X10748753Y-14361412D01*
X10748753Y-14361412D02*
X10748753Y-14285222D01*
X10748753Y-14285222D02*
X10758277Y-14266174D01*
X10758277Y-14266174D02*
X10777325Y-14256650D01*
X10777325Y-14256650D02*
X10815420Y-14256650D01*
X10815420Y-14256650D02*
X10834468Y-14266174D01*
X10834468Y-14266174D02*
X10843992Y-14285222D01*
X10843992Y-14285222D02*
X10843992Y-14304269D01*
X10843992Y-14304269D02*
X10748753Y-14323317D01*
X10920182Y-14380460D02*
X10939230Y-14389984D01*
X10939230Y-14389984D02*
X10977325Y-14389984D01*
X10977325Y-14389984D02*
X10996373Y-14380460D01*
X10996373Y-14380460D02*
X11005896Y-14361412D01*
X11005896Y-14361412D02*
X11005896Y-14351888D01*
X11005896Y-14351888D02*
X10996373Y-14332841D01*
X10996373Y-14332841D02*
X10977325Y-14323317D01*
X10977325Y-14323317D02*
X10948753Y-14323317D01*
X10948753Y-14323317D02*
X10929706Y-14313793D01*
X10929706Y-14313793D02*
X10920182Y-14294746D01*
X10920182Y-14294746D02*
X10920182Y-14285222D01*
X10920182Y-14285222D02*
X10929706Y-14266174D01*
X10929706Y-14266174D02*
X10948753Y-14256650D01*
X10948753Y-14256650D02*
X10977325Y-14256650D01*
X10977325Y-14256650D02*
X10996373Y-14266174D01*
X11072563Y-14466174D02*
X11082087Y-14456650D01*
X11082087Y-14456650D02*
X11101134Y-14428079D01*
X11101134Y-14428079D02*
X11110658Y-14409031D01*
X11110658Y-14409031D02*
X11120182Y-14380460D01*
X11120182Y-14380460D02*
X11129706Y-14332841D01*
X11129706Y-14332841D02*
X11129706Y-14294746D01*
X11129706Y-14294746D02*
X11120182Y-14247127D01*
X11120182Y-14247127D02*
X11110658Y-14218555D01*
X11110658Y-14218555D02*
X11101134Y-14199508D01*
X11101134Y-14199508D02*
X11082087Y-14170936D01*
X11082087Y-14170936D02*
X11072563Y-14161412D01*
D12*
X6197500Y-14512500D02*
X6297500Y-14612500D01*
X6297500Y-14512500D02*
X6197500Y-14612500D01*
X6297500Y-14562500D02*
G75*
G02*
X6197500Y-14562500I-50000J0D01*
G01*
X6197500Y-14562500D02*
G75*
G02*
X6297500Y-14562500I50000J0D01*
G01*
D11*
X6663039Y-14653984D02*
X6548753Y-14653984D01*
X6605896Y-14653984D02*
X6605896Y-14453984D01*
X6605896Y-14453984D02*
X6586848Y-14482555D01*
X6586848Y-14482555D02*
X6567801Y-14501603D01*
X6567801Y-14501603D02*
X6548753Y-14511127D01*
X6748753Y-14634936D02*
X6758277Y-14644460D01*
X6758277Y-14644460D02*
X6748753Y-14653984D01*
X6748753Y-14653984D02*
X6739229Y-14644460D01*
X6739229Y-14644460D02*
X6748753Y-14634936D01*
X6748753Y-14634936D02*
X6748753Y-14653984D01*
X6882086Y-14453984D02*
X6901134Y-14453984D01*
X6901134Y-14453984D02*
X6920182Y-14463508D01*
X6920182Y-14463508D02*
X6929705Y-14473031D01*
X6929705Y-14473031D02*
X6939229Y-14492079D01*
X6939229Y-14492079D02*
X6948753Y-14530174D01*
X6948753Y-14530174D02*
X6948753Y-14577793D01*
X6948753Y-14577793D02*
X6939229Y-14615888D01*
X6939229Y-14615888D02*
X6929705Y-14634936D01*
X6929705Y-14634936D02*
X6920182Y-14644460D01*
X6920182Y-14644460D02*
X6901134Y-14653984D01*
X6901134Y-14653984D02*
X6882086Y-14653984D01*
X6882086Y-14653984D02*
X6863039Y-14644460D01*
X6863039Y-14644460D02*
X6853515Y-14634936D01*
X6853515Y-14634936D02*
X6843991Y-14615888D01*
X6843991Y-14615888D02*
X6834467Y-14577793D01*
X6834467Y-14577793D02*
X6834467Y-14530174D01*
X6834467Y-14530174D02*
X6843991Y-14492079D01*
X6843991Y-14492079D02*
X6853515Y-14473031D01*
X6853515Y-14473031D02*
X6863039Y-14463508D01*
X6863039Y-14463508D02*
X6882086Y-14453984D01*
X7072562Y-14453984D02*
X7091610Y-14453984D01*
X7091610Y-14453984D02*
X7110658Y-14463508D01*
X7110658Y-14463508D02*
X7120182Y-14473031D01*
X7120182Y-14473031D02*
X7129705Y-14492079D01*
X7129705Y-14492079D02*
X7139229Y-14530174D01*
X7139229Y-14530174D02*
X7139229Y-14577793D01*
X7139229Y-14577793D02*
X7129705Y-14615888D01*
X7129705Y-14615888D02*
X7120182Y-14634936D01*
X7120182Y-14634936D02*
X7110658Y-14644460D01*
X7110658Y-14644460D02*
X7091610Y-14653984D01*
X7091610Y-14653984D02*
X7072562Y-14653984D01*
X7072562Y-14653984D02*
X7053515Y-14644460D01*
X7053515Y-14644460D02*
X7043991Y-14634936D01*
X7043991Y-14634936D02*
X7034467Y-14615888D01*
X7034467Y-14615888D02*
X7024943Y-14577793D01*
X7024943Y-14577793D02*
X7024943Y-14530174D01*
X7024943Y-14530174D02*
X7034467Y-14492079D01*
X7034467Y-14492079D02*
X7043991Y-14473031D01*
X7043991Y-14473031D02*
X7053515Y-14463508D01*
X7053515Y-14463508D02*
X7072562Y-14453984D01*
X7263039Y-14453984D02*
X7282086Y-14453984D01*
X7282086Y-14453984D02*
X7301134Y-14463508D01*
X7301134Y-14463508D02*
X7310658Y-14473031D01*
X7310658Y-14473031D02*
X7320182Y-14492079D01*
X7320182Y-14492079D02*
X7329705Y-14530174D01*
X7329705Y-14530174D02*
X7329705Y-14577793D01*
X7329705Y-14577793D02*
X7320182Y-14615888D01*
X7320182Y-14615888D02*
X7310658Y-14634936D01*
X7310658Y-14634936D02*
X7301134Y-14644460D01*
X7301134Y-14644460D02*
X7282086Y-14653984D01*
X7282086Y-14653984D02*
X7263039Y-14653984D01*
X7263039Y-14653984D02*
X7243991Y-14644460D01*
X7243991Y-14644460D02*
X7234467Y-14634936D01*
X7234467Y-14634936D02*
X7224943Y-14615888D01*
X7224943Y-14615888D02*
X7215420Y-14577793D01*
X7215420Y-14577793D02*
X7215420Y-14530174D01*
X7215420Y-14530174D02*
X7224943Y-14492079D01*
X7224943Y-14492079D02*
X7234467Y-14473031D01*
X7234467Y-14473031D02*
X7243991Y-14463508D01*
X7243991Y-14463508D02*
X7263039Y-14453984D01*
X7415420Y-14653984D02*
X7415420Y-14520650D01*
X7415420Y-14539698D02*
X7424943Y-14530174D01*
X7424943Y-14530174D02*
X7443991Y-14520650D01*
X7443991Y-14520650D02*
X7472563Y-14520650D01*
X7472563Y-14520650D02*
X7491610Y-14530174D01*
X7491610Y-14530174D02*
X7501134Y-14549222D01*
X7501134Y-14549222D02*
X7501134Y-14653984D01*
X7501134Y-14549222D02*
X7510658Y-14530174D01*
X7510658Y-14530174D02*
X7529705Y-14520650D01*
X7529705Y-14520650D02*
X7558277Y-14520650D01*
X7558277Y-14520650D02*
X7577324Y-14530174D01*
X7577324Y-14530174D02*
X7586848Y-14549222D01*
X7586848Y-14549222D02*
X7586848Y-14653984D01*
X7682086Y-14653984D02*
X7682086Y-14520650D01*
X7682086Y-14539698D02*
X7691610Y-14530174D01*
X7691610Y-14530174D02*
X7710658Y-14520650D01*
X7710658Y-14520650D02*
X7739229Y-14520650D01*
X7739229Y-14520650D02*
X7758277Y-14530174D01*
X7758277Y-14530174D02*
X7767801Y-14549222D01*
X7767801Y-14549222D02*
X7767801Y-14653984D01*
X7767801Y-14549222D02*
X7777324Y-14530174D01*
X7777324Y-14530174D02*
X7796372Y-14520650D01*
X7796372Y-14520650D02*
X7824943Y-14520650D01*
X7824943Y-14520650D02*
X7843991Y-14530174D01*
X7843991Y-14530174D02*
X7853515Y-14549222D01*
X7853515Y-14549222D02*
X7853515Y-14653984D01*
X8243991Y-14444460D02*
X8072563Y-14701603D01*
X8501134Y-14453984D02*
X8520182Y-14453984D01*
X8520182Y-14453984D02*
X8539229Y-14463508D01*
X8539229Y-14463508D02*
X8548753Y-14473031D01*
X8548753Y-14473031D02*
X8558277Y-14492079D01*
X8558277Y-14492079D02*
X8567801Y-14530174D01*
X8567801Y-14530174D02*
X8567801Y-14577793D01*
X8567801Y-14577793D02*
X8558277Y-14615888D01*
X8558277Y-14615888D02*
X8548753Y-14634936D01*
X8548753Y-14634936D02*
X8539229Y-14644460D01*
X8539229Y-14644460D02*
X8520182Y-14653984D01*
X8520182Y-14653984D02*
X8501134Y-14653984D01*
X8501134Y-14653984D02*
X8482087Y-14644460D01*
X8482087Y-14644460D02*
X8472563Y-14634936D01*
X8472563Y-14634936D02*
X8463039Y-14615888D01*
X8463039Y-14615888D02*
X8453515Y-14577793D01*
X8453515Y-14577793D02*
X8453515Y-14530174D01*
X8453515Y-14530174D02*
X8463039Y-14492079D01*
X8463039Y-14492079D02*
X8472563Y-14473031D01*
X8472563Y-14473031D02*
X8482087Y-14463508D01*
X8482087Y-14463508D02*
X8501134Y-14453984D01*
X8653515Y-14634936D02*
X8663039Y-14644460D01*
X8663039Y-14644460D02*
X8653515Y-14653984D01*
X8653515Y-14653984D02*
X8643991Y-14644460D01*
X8643991Y-14644460D02*
X8653515Y-14634936D01*
X8653515Y-14634936D02*
X8653515Y-14653984D01*
X8786848Y-14453984D02*
X8805896Y-14453984D01*
X8805896Y-14453984D02*
X8824944Y-14463508D01*
X8824944Y-14463508D02*
X8834468Y-14473031D01*
X8834468Y-14473031D02*
X8843991Y-14492079D01*
X8843991Y-14492079D02*
X8853515Y-14530174D01*
X8853515Y-14530174D02*
X8853515Y-14577793D01*
X8853515Y-14577793D02*
X8843991Y-14615888D01*
X8843991Y-14615888D02*
X8834468Y-14634936D01*
X8834468Y-14634936D02*
X8824944Y-14644460D01*
X8824944Y-14644460D02*
X8805896Y-14653984D01*
X8805896Y-14653984D02*
X8786848Y-14653984D01*
X8786848Y-14653984D02*
X8767801Y-14644460D01*
X8767801Y-14644460D02*
X8758277Y-14634936D01*
X8758277Y-14634936D02*
X8748753Y-14615888D01*
X8748753Y-14615888D02*
X8739229Y-14577793D01*
X8739229Y-14577793D02*
X8739229Y-14530174D01*
X8739229Y-14530174D02*
X8748753Y-14492079D01*
X8748753Y-14492079D02*
X8758277Y-14473031D01*
X8758277Y-14473031D02*
X8767801Y-14463508D01*
X8767801Y-14463508D02*
X8786848Y-14453984D01*
X8920182Y-14453984D02*
X9043991Y-14453984D01*
X9043991Y-14453984D02*
X8977325Y-14530174D01*
X8977325Y-14530174D02*
X9005896Y-14530174D01*
X9005896Y-14530174D02*
X9024944Y-14539698D01*
X9024944Y-14539698D02*
X9034468Y-14549222D01*
X9034468Y-14549222D02*
X9043991Y-14568269D01*
X9043991Y-14568269D02*
X9043991Y-14615888D01*
X9043991Y-14615888D02*
X9034468Y-14634936D01*
X9034468Y-14634936D02*
X9024944Y-14644460D01*
X9024944Y-14644460D02*
X9005896Y-14653984D01*
X9005896Y-14653984D02*
X8948753Y-14653984D01*
X8948753Y-14653984D02*
X8929706Y-14644460D01*
X8929706Y-14644460D02*
X8920182Y-14634936D01*
X9139229Y-14653984D02*
X9177325Y-14653984D01*
X9177325Y-14653984D02*
X9196372Y-14644460D01*
X9196372Y-14644460D02*
X9205896Y-14634936D01*
X9205896Y-14634936D02*
X9224944Y-14606365D01*
X9224944Y-14606365D02*
X9234468Y-14568269D01*
X9234468Y-14568269D02*
X9234468Y-14492079D01*
X9234468Y-14492079D02*
X9224944Y-14473031D01*
X9224944Y-14473031D02*
X9215420Y-14463508D01*
X9215420Y-14463508D02*
X9196372Y-14453984D01*
X9196372Y-14453984D02*
X9158277Y-14453984D01*
X9158277Y-14453984D02*
X9139229Y-14463508D01*
X9139229Y-14463508D02*
X9129706Y-14473031D01*
X9129706Y-14473031D02*
X9120182Y-14492079D01*
X9120182Y-14492079D02*
X9120182Y-14539698D01*
X9120182Y-14539698D02*
X9129706Y-14558746D01*
X9129706Y-14558746D02*
X9139229Y-14568269D01*
X9139229Y-14568269D02*
X9158277Y-14577793D01*
X9158277Y-14577793D02*
X9196372Y-14577793D01*
X9196372Y-14577793D02*
X9215420Y-14568269D01*
X9215420Y-14568269D02*
X9224944Y-14558746D01*
X9224944Y-14558746D02*
X9234468Y-14539698D01*
X9405896Y-14520650D02*
X9405896Y-14653984D01*
X9358277Y-14444460D02*
X9310658Y-14587317D01*
X9310658Y-14587317D02*
X9434468Y-14587317D01*
X9501134Y-14453984D02*
X9501134Y-14492079D01*
X9577325Y-14453984D02*
X9577325Y-14492079D01*
X9872563Y-14730174D02*
X9863039Y-14720650D01*
X9863039Y-14720650D02*
X9843991Y-14692079D01*
X9843991Y-14692079D02*
X9834468Y-14673031D01*
X9834468Y-14673031D02*
X9824944Y-14644460D01*
X9824944Y-14644460D02*
X9815420Y-14596841D01*
X9815420Y-14596841D02*
X9815420Y-14558746D01*
X9815420Y-14558746D02*
X9824944Y-14511127D01*
X9824944Y-14511127D02*
X9834468Y-14482555D01*
X9834468Y-14482555D02*
X9843991Y-14463508D01*
X9843991Y-14463508D02*
X9863039Y-14434936D01*
X9863039Y-14434936D02*
X9872563Y-14425412D01*
X10034468Y-14520650D02*
X10034468Y-14653984D01*
X9986849Y-14444460D02*
X9939230Y-14587317D01*
X9939230Y-14587317D02*
X10063039Y-14587317D01*
X10291611Y-14653984D02*
X10291611Y-14453984D01*
X10377325Y-14653984D02*
X10377325Y-14549222D01*
X10377325Y-14549222D02*
X10367801Y-14530174D01*
X10367801Y-14530174D02*
X10348753Y-14520650D01*
X10348753Y-14520650D02*
X10320182Y-14520650D01*
X10320182Y-14520650D02*
X10301134Y-14530174D01*
X10301134Y-14530174D02*
X10291611Y-14539698D01*
X10501134Y-14653984D02*
X10482087Y-14644460D01*
X10482087Y-14644460D02*
X10472563Y-14634936D01*
X10472563Y-14634936D02*
X10463039Y-14615888D01*
X10463039Y-14615888D02*
X10463039Y-14558746D01*
X10463039Y-14558746D02*
X10472563Y-14539698D01*
X10472563Y-14539698D02*
X10482087Y-14530174D01*
X10482087Y-14530174D02*
X10501134Y-14520650D01*
X10501134Y-14520650D02*
X10529706Y-14520650D01*
X10529706Y-14520650D02*
X10548753Y-14530174D01*
X10548753Y-14530174D02*
X10558277Y-14539698D01*
X10558277Y-14539698D02*
X10567801Y-14558746D01*
X10567801Y-14558746D02*
X10567801Y-14615888D01*
X10567801Y-14615888D02*
X10558277Y-14634936D01*
X10558277Y-14634936D02*
X10548753Y-14644460D01*
X10548753Y-14644460D02*
X10529706Y-14653984D01*
X10529706Y-14653984D02*
X10501134Y-14653984D01*
X10682087Y-14653984D02*
X10663039Y-14644460D01*
X10663039Y-14644460D02*
X10653515Y-14625412D01*
X10653515Y-14625412D02*
X10653515Y-14453984D01*
X10834468Y-14644460D02*
X10815420Y-14653984D01*
X10815420Y-14653984D02*
X10777325Y-14653984D01*
X10777325Y-14653984D02*
X10758277Y-14644460D01*
X10758277Y-14644460D02*
X10748753Y-14625412D01*
X10748753Y-14625412D02*
X10748753Y-14549222D01*
X10748753Y-14549222D02*
X10758277Y-14530174D01*
X10758277Y-14530174D02*
X10777325Y-14520650D01*
X10777325Y-14520650D02*
X10815420Y-14520650D01*
X10815420Y-14520650D02*
X10834468Y-14530174D01*
X10834468Y-14530174D02*
X10843992Y-14549222D01*
X10843992Y-14549222D02*
X10843992Y-14568269D01*
X10843992Y-14568269D02*
X10748753Y-14587317D01*
X10920182Y-14644460D02*
X10939230Y-14653984D01*
X10939230Y-14653984D02*
X10977325Y-14653984D01*
X10977325Y-14653984D02*
X10996373Y-14644460D01*
X10996373Y-14644460D02*
X11005896Y-14625412D01*
X11005896Y-14625412D02*
X11005896Y-14615888D01*
X11005896Y-14615888D02*
X10996373Y-14596841D01*
X10996373Y-14596841D02*
X10977325Y-14587317D01*
X10977325Y-14587317D02*
X10948753Y-14587317D01*
X10948753Y-14587317D02*
X10929706Y-14577793D01*
X10929706Y-14577793D02*
X10920182Y-14558746D01*
X10920182Y-14558746D02*
X10920182Y-14549222D01*
X10920182Y-14549222D02*
X10929706Y-14530174D01*
X10929706Y-14530174D02*
X10948753Y-14520650D01*
X10948753Y-14520650D02*
X10977325Y-14520650D01*
X10977325Y-14520650D02*
X10996373Y-14530174D01*
X11072563Y-14730174D02*
X11082087Y-14720650D01*
X11082087Y-14720650D02*
X11101134Y-14692079D01*
X11101134Y-14692079D02*
X11110658Y-14673031D01*
X11110658Y-14673031D02*
X11120182Y-14644460D01*
X11120182Y-14644460D02*
X11129706Y-14596841D01*
X11129706Y-14596841D02*
X11129706Y-14558746D01*
X11129706Y-14558746D02*
X11120182Y-14511127D01*
X11120182Y-14511127D02*
X11110658Y-14482555D01*
X11110658Y-14482555D02*
X11101134Y-14463508D01*
X11101134Y-14463508D02*
X11082087Y-14434936D01*
X11082087Y-14434936D02*
X11072563Y-14425412D01*
D13*
X6195500Y-14775500D02*
X6297500Y-14877500D01*
X6297500Y-14775500D02*
X6195500Y-14877500D01*
X6246500Y-14775500D02*
X6246500Y-14877500D01*
X6195500Y-14826500D02*
X6297500Y-14826500D01*
D11*
X6663039Y-14917984D02*
X6548753Y-14917984D01*
X6605896Y-14917984D02*
X6605896Y-14717984D01*
X6605896Y-14717984D02*
X6586848Y-14746555D01*
X6586848Y-14746555D02*
X6567801Y-14765603D01*
X6567801Y-14765603D02*
X6548753Y-14775127D01*
X6748753Y-14898936D02*
X6758277Y-14908460D01*
X6758277Y-14908460D02*
X6748753Y-14917984D01*
X6748753Y-14917984D02*
X6739229Y-14908460D01*
X6739229Y-14908460D02*
X6748753Y-14898936D01*
X6748753Y-14898936D02*
X6748753Y-14917984D01*
X6882086Y-14717984D02*
X6901134Y-14717984D01*
X6901134Y-14717984D02*
X6920182Y-14727508D01*
X6920182Y-14727508D02*
X6929705Y-14737031D01*
X6929705Y-14737031D02*
X6939229Y-14756079D01*
X6939229Y-14756079D02*
X6948753Y-14794174D01*
X6948753Y-14794174D02*
X6948753Y-14841793D01*
X6948753Y-14841793D02*
X6939229Y-14879888D01*
X6939229Y-14879888D02*
X6929705Y-14898936D01*
X6929705Y-14898936D02*
X6920182Y-14908460D01*
X6920182Y-14908460D02*
X6901134Y-14917984D01*
X6901134Y-14917984D02*
X6882086Y-14917984D01*
X6882086Y-14917984D02*
X6863039Y-14908460D01*
X6863039Y-14908460D02*
X6853515Y-14898936D01*
X6853515Y-14898936D02*
X6843991Y-14879888D01*
X6843991Y-14879888D02*
X6834467Y-14841793D01*
X6834467Y-14841793D02*
X6834467Y-14794174D01*
X6834467Y-14794174D02*
X6843991Y-14756079D01*
X6843991Y-14756079D02*
X6853515Y-14737031D01*
X6853515Y-14737031D02*
X6863039Y-14727508D01*
X6863039Y-14727508D02*
X6882086Y-14717984D01*
X7024943Y-14737031D02*
X7034467Y-14727508D01*
X7034467Y-14727508D02*
X7053515Y-14717984D01*
X7053515Y-14717984D02*
X7101134Y-14717984D01*
X7101134Y-14717984D02*
X7120182Y-14727508D01*
X7120182Y-14727508D02*
X7129705Y-14737031D01*
X7129705Y-14737031D02*
X7139229Y-14756079D01*
X7139229Y-14756079D02*
X7139229Y-14775127D01*
X7139229Y-14775127D02*
X7129705Y-14803698D01*
X7129705Y-14803698D02*
X7015420Y-14917984D01*
X7015420Y-14917984D02*
X7139229Y-14917984D01*
X7263039Y-14717984D02*
X7282086Y-14717984D01*
X7282086Y-14717984D02*
X7301134Y-14727508D01*
X7301134Y-14727508D02*
X7310658Y-14737031D01*
X7310658Y-14737031D02*
X7320182Y-14756079D01*
X7320182Y-14756079D02*
X7329705Y-14794174D01*
X7329705Y-14794174D02*
X7329705Y-14841793D01*
X7329705Y-14841793D02*
X7320182Y-14879888D01*
X7320182Y-14879888D02*
X7310658Y-14898936D01*
X7310658Y-14898936D02*
X7301134Y-14908460D01*
X7301134Y-14908460D02*
X7282086Y-14917984D01*
X7282086Y-14917984D02*
X7263039Y-14917984D01*
X7263039Y-14917984D02*
X7243991Y-14908460D01*
X7243991Y-14908460D02*
X7234467Y-14898936D01*
X7234467Y-14898936D02*
X7224943Y-14879888D01*
X7224943Y-14879888D02*
X7215420Y-14841793D01*
X7215420Y-14841793D02*
X7215420Y-14794174D01*
X7215420Y-14794174D02*
X7224943Y-14756079D01*
X7224943Y-14756079D02*
X7234467Y-14737031D01*
X7234467Y-14737031D02*
X7243991Y-14727508D01*
X7243991Y-14727508D02*
X7263039Y-14717984D01*
X7415420Y-14917984D02*
X7415420Y-14784650D01*
X7415420Y-14803698D02*
X7424943Y-14794174D01*
X7424943Y-14794174D02*
X7443991Y-14784650D01*
X7443991Y-14784650D02*
X7472563Y-14784650D01*
X7472563Y-14784650D02*
X7491610Y-14794174D01*
X7491610Y-14794174D02*
X7501134Y-14813222D01*
X7501134Y-14813222D02*
X7501134Y-14917984D01*
X7501134Y-14813222D02*
X7510658Y-14794174D01*
X7510658Y-14794174D02*
X7529705Y-14784650D01*
X7529705Y-14784650D02*
X7558277Y-14784650D01*
X7558277Y-14784650D02*
X7577324Y-14794174D01*
X7577324Y-14794174D02*
X7586848Y-14813222D01*
X7586848Y-14813222D02*
X7586848Y-14917984D01*
X7682086Y-14917984D02*
X7682086Y-14784650D01*
X7682086Y-14803698D02*
X7691610Y-14794174D01*
X7691610Y-14794174D02*
X7710658Y-14784650D01*
X7710658Y-14784650D02*
X7739229Y-14784650D01*
X7739229Y-14784650D02*
X7758277Y-14794174D01*
X7758277Y-14794174D02*
X7767801Y-14813222D01*
X7767801Y-14813222D02*
X7767801Y-14917984D01*
X7767801Y-14813222D02*
X7777324Y-14794174D01*
X7777324Y-14794174D02*
X7796372Y-14784650D01*
X7796372Y-14784650D02*
X7824943Y-14784650D01*
X7824943Y-14784650D02*
X7843991Y-14794174D01*
X7843991Y-14794174D02*
X7853515Y-14813222D01*
X7853515Y-14813222D02*
X7853515Y-14917984D01*
X8243991Y-14708460D02*
X8072563Y-14965603D01*
X8501134Y-14717984D02*
X8520182Y-14717984D01*
X8520182Y-14717984D02*
X8539229Y-14727508D01*
X8539229Y-14727508D02*
X8548753Y-14737031D01*
X8548753Y-14737031D02*
X8558277Y-14756079D01*
X8558277Y-14756079D02*
X8567801Y-14794174D01*
X8567801Y-14794174D02*
X8567801Y-14841793D01*
X8567801Y-14841793D02*
X8558277Y-14879888D01*
X8558277Y-14879888D02*
X8548753Y-14898936D01*
X8548753Y-14898936D02*
X8539229Y-14908460D01*
X8539229Y-14908460D02*
X8520182Y-14917984D01*
X8520182Y-14917984D02*
X8501134Y-14917984D01*
X8501134Y-14917984D02*
X8482087Y-14908460D01*
X8482087Y-14908460D02*
X8472563Y-14898936D01*
X8472563Y-14898936D02*
X8463039Y-14879888D01*
X8463039Y-14879888D02*
X8453515Y-14841793D01*
X8453515Y-14841793D02*
X8453515Y-14794174D01*
X8453515Y-14794174D02*
X8463039Y-14756079D01*
X8463039Y-14756079D02*
X8472563Y-14737031D01*
X8472563Y-14737031D02*
X8482087Y-14727508D01*
X8482087Y-14727508D02*
X8501134Y-14717984D01*
X8653515Y-14898936D02*
X8663039Y-14908460D01*
X8663039Y-14908460D02*
X8653515Y-14917984D01*
X8653515Y-14917984D02*
X8643991Y-14908460D01*
X8643991Y-14908460D02*
X8653515Y-14898936D01*
X8653515Y-14898936D02*
X8653515Y-14917984D01*
X8786848Y-14717984D02*
X8805896Y-14717984D01*
X8805896Y-14717984D02*
X8824944Y-14727508D01*
X8824944Y-14727508D02*
X8834468Y-14737031D01*
X8834468Y-14737031D02*
X8843991Y-14756079D01*
X8843991Y-14756079D02*
X8853515Y-14794174D01*
X8853515Y-14794174D02*
X8853515Y-14841793D01*
X8853515Y-14841793D02*
X8843991Y-14879888D01*
X8843991Y-14879888D02*
X8834468Y-14898936D01*
X8834468Y-14898936D02*
X8824944Y-14908460D01*
X8824944Y-14908460D02*
X8805896Y-14917984D01*
X8805896Y-14917984D02*
X8786848Y-14917984D01*
X8786848Y-14917984D02*
X8767801Y-14908460D01*
X8767801Y-14908460D02*
X8758277Y-14898936D01*
X8758277Y-14898936D02*
X8748753Y-14879888D01*
X8748753Y-14879888D02*
X8739229Y-14841793D01*
X8739229Y-14841793D02*
X8739229Y-14794174D01*
X8739229Y-14794174D02*
X8748753Y-14756079D01*
X8748753Y-14756079D02*
X8758277Y-14737031D01*
X8758277Y-14737031D02*
X8767801Y-14727508D01*
X8767801Y-14727508D02*
X8786848Y-14717984D01*
X9024944Y-14784650D02*
X9024944Y-14917984D01*
X8977325Y-14708460D02*
X8929706Y-14851317D01*
X8929706Y-14851317D02*
X9053515Y-14851317D01*
X9167801Y-14717984D02*
X9186849Y-14717984D01*
X9186849Y-14717984D02*
X9205896Y-14727508D01*
X9205896Y-14727508D02*
X9215420Y-14737031D01*
X9215420Y-14737031D02*
X9224944Y-14756079D01*
X9224944Y-14756079D02*
X9234468Y-14794174D01*
X9234468Y-14794174D02*
X9234468Y-14841793D01*
X9234468Y-14841793D02*
X9224944Y-14879888D01*
X9224944Y-14879888D02*
X9215420Y-14898936D01*
X9215420Y-14898936D02*
X9205896Y-14908460D01*
X9205896Y-14908460D02*
X9186849Y-14917984D01*
X9186849Y-14917984D02*
X9167801Y-14917984D01*
X9167801Y-14917984D02*
X9148753Y-14908460D01*
X9148753Y-14908460D02*
X9139229Y-14898936D01*
X9139229Y-14898936D02*
X9129706Y-14879888D01*
X9129706Y-14879888D02*
X9120182Y-14841793D01*
X9120182Y-14841793D02*
X9120182Y-14794174D01*
X9120182Y-14794174D02*
X9129706Y-14756079D01*
X9129706Y-14756079D02*
X9139229Y-14737031D01*
X9139229Y-14737031D02*
X9148753Y-14727508D01*
X9148753Y-14727508D02*
X9167801Y-14717984D01*
X9310658Y-14737031D02*
X9320182Y-14727508D01*
X9320182Y-14727508D02*
X9339229Y-14717984D01*
X9339229Y-14717984D02*
X9386849Y-14717984D01*
X9386849Y-14717984D02*
X9405896Y-14727508D01*
X9405896Y-14727508D02*
X9415420Y-14737031D01*
X9415420Y-14737031D02*
X9424944Y-14756079D01*
X9424944Y-14756079D02*
X9424944Y-14775127D01*
X9424944Y-14775127D02*
X9415420Y-14803698D01*
X9415420Y-14803698D02*
X9301134Y-14917984D01*
X9301134Y-14917984D02*
X9424944Y-14917984D01*
X9501134Y-14717984D02*
X9501134Y-14756079D01*
X9577325Y-14717984D02*
X9577325Y-14756079D01*
X9872563Y-14994174D02*
X9863039Y-14984650D01*
X9863039Y-14984650D02*
X9843991Y-14956079D01*
X9843991Y-14956079D02*
X9834468Y-14937031D01*
X9834468Y-14937031D02*
X9824944Y-14908460D01*
X9824944Y-14908460D02*
X9815420Y-14860841D01*
X9815420Y-14860841D02*
X9815420Y-14822746D01*
X9815420Y-14822746D02*
X9824944Y-14775127D01*
X9824944Y-14775127D02*
X9834468Y-14746555D01*
X9834468Y-14746555D02*
X9843991Y-14727508D01*
X9843991Y-14727508D02*
X9863039Y-14698936D01*
X9863039Y-14698936D02*
X9872563Y-14689412D01*
X9929706Y-14717984D02*
X10063039Y-14717984D01*
X10063039Y-14717984D02*
X9977325Y-14917984D01*
X10224944Y-14717984D02*
X10186849Y-14717984D01*
X10186849Y-14717984D02*
X10167801Y-14727508D01*
X10167801Y-14727508D02*
X10158277Y-14737031D01*
X10158277Y-14737031D02*
X10139230Y-14765603D01*
X10139230Y-14765603D02*
X10129706Y-14803698D01*
X10129706Y-14803698D02*
X10129706Y-14879888D01*
X10129706Y-14879888D02*
X10139230Y-14898936D01*
X10139230Y-14898936D02*
X10148753Y-14908460D01*
X10148753Y-14908460D02*
X10167801Y-14917984D01*
X10167801Y-14917984D02*
X10205896Y-14917984D01*
X10205896Y-14917984D02*
X10224944Y-14908460D01*
X10224944Y-14908460D02*
X10234468Y-14898936D01*
X10234468Y-14898936D02*
X10243991Y-14879888D01*
X10243991Y-14879888D02*
X10243991Y-14832269D01*
X10243991Y-14832269D02*
X10234468Y-14813222D01*
X10234468Y-14813222D02*
X10224944Y-14803698D01*
X10224944Y-14803698D02*
X10205896Y-14794174D01*
X10205896Y-14794174D02*
X10167801Y-14794174D01*
X10167801Y-14794174D02*
X10148753Y-14803698D01*
X10148753Y-14803698D02*
X10139230Y-14813222D01*
X10139230Y-14813222D02*
X10129706Y-14832269D01*
X10482087Y-14917984D02*
X10482087Y-14717984D01*
X10567801Y-14917984D02*
X10567801Y-14813222D01*
X10567801Y-14813222D02*
X10558277Y-14794174D01*
X10558277Y-14794174D02*
X10539230Y-14784650D01*
X10539230Y-14784650D02*
X10510658Y-14784650D01*
X10510658Y-14784650D02*
X10491611Y-14794174D01*
X10491611Y-14794174D02*
X10482087Y-14803698D01*
X10691611Y-14917984D02*
X10672563Y-14908460D01*
X10672563Y-14908460D02*
X10663039Y-14898936D01*
X10663039Y-14898936D02*
X10653515Y-14879888D01*
X10653515Y-14879888D02*
X10653515Y-14822746D01*
X10653515Y-14822746D02*
X10663039Y-14803698D01*
X10663039Y-14803698D02*
X10672563Y-14794174D01*
X10672563Y-14794174D02*
X10691611Y-14784650D01*
X10691611Y-14784650D02*
X10720182Y-14784650D01*
X10720182Y-14784650D02*
X10739230Y-14794174D01*
X10739230Y-14794174D02*
X10748753Y-14803698D01*
X10748753Y-14803698D02*
X10758277Y-14822746D01*
X10758277Y-14822746D02*
X10758277Y-14879888D01*
X10758277Y-14879888D02*
X10748753Y-14898936D01*
X10748753Y-14898936D02*
X10739230Y-14908460D01*
X10739230Y-14908460D02*
X10720182Y-14917984D01*
X10720182Y-14917984D02*
X10691611Y-14917984D01*
X10872563Y-14917984D02*
X10853515Y-14908460D01*
X10853515Y-14908460D02*
X10843992Y-14889412D01*
X10843992Y-14889412D02*
X10843992Y-14717984D01*
X11024944Y-14908460D02*
X11005896Y-14917984D01*
X11005896Y-14917984D02*
X10967801Y-14917984D01*
X10967801Y-14917984D02*
X10948753Y-14908460D01*
X10948753Y-14908460D02*
X10939230Y-14889412D01*
X10939230Y-14889412D02*
X10939230Y-14813222D01*
X10939230Y-14813222D02*
X10948753Y-14794174D01*
X10948753Y-14794174D02*
X10967801Y-14784650D01*
X10967801Y-14784650D02*
X11005896Y-14784650D01*
X11005896Y-14784650D02*
X11024944Y-14794174D01*
X11024944Y-14794174D02*
X11034468Y-14813222D01*
X11034468Y-14813222D02*
X11034468Y-14832269D01*
X11034468Y-14832269D02*
X10939230Y-14851317D01*
X11110658Y-14908460D02*
X11129706Y-14917984D01*
X11129706Y-14917984D02*
X11167801Y-14917984D01*
X11167801Y-14917984D02*
X11186849Y-14908460D01*
X11186849Y-14908460D02*
X11196372Y-14889412D01*
X11196372Y-14889412D02*
X11196372Y-14879888D01*
X11196372Y-14879888D02*
X11186849Y-14860841D01*
X11186849Y-14860841D02*
X11167801Y-14851317D01*
X11167801Y-14851317D02*
X11139230Y-14851317D01*
X11139230Y-14851317D02*
X11120182Y-14841793D01*
X11120182Y-14841793D02*
X11110658Y-14822746D01*
X11110658Y-14822746D02*
X11110658Y-14813222D01*
X11110658Y-14813222D02*
X11120182Y-14794174D01*
X11120182Y-14794174D02*
X11139230Y-14784650D01*
X11139230Y-14784650D02*
X11167801Y-14784650D01*
X11167801Y-14784650D02*
X11186849Y-14794174D01*
X11263039Y-14994174D02*
X11272563Y-14984650D01*
X11272563Y-14984650D02*
X11291611Y-14956079D01*
X11291611Y-14956079D02*
X11301134Y-14937031D01*
X11301134Y-14937031D02*
X11310658Y-14908460D01*
X11310658Y-14908460D02*
X11320182Y-14860841D01*
X11320182Y-14860841D02*
X11320182Y-14822746D01*
X11320182Y-14822746D02*
X11310658Y-14775127D01*
X11310658Y-14775127D02*
X11301134Y-14746555D01*
X11301134Y-14746555D02*
X11291611Y-14727508D01*
X11291611Y-14727508D02*
X11272563Y-14698936D01*
X11272563Y-14698936D02*
X11263039Y-14689412D01*
D14*
X6190500Y-15037000D02*
X6297500Y-15144000D01*
X6297500Y-15037000D02*
X6190500Y-15144000D01*
X6281831Y-15128331D02*
X6281831Y-15052669D01*
X6206169Y-15052669D01*
X6206169Y-15128331D01*
X6281831Y-15128331D01*
D11*
X6663039Y-15181984D02*
X6548753Y-15181984D01*
X6605896Y-15181984D02*
X6605896Y-14981984D01*
X6605896Y-14981984D02*
X6586848Y-15010555D01*
X6586848Y-15010555D02*
X6567801Y-15029603D01*
X6567801Y-15029603D02*
X6548753Y-15039127D01*
X6748753Y-15162936D02*
X6758277Y-15172460D01*
X6758277Y-15172460D02*
X6748753Y-15181984D01*
X6748753Y-15181984D02*
X6739229Y-15172460D01*
X6739229Y-15172460D02*
X6748753Y-15162936D01*
X6748753Y-15162936D02*
X6748753Y-15181984D01*
X6882086Y-14981984D02*
X6901134Y-14981984D01*
X6901134Y-14981984D02*
X6920182Y-14991508D01*
X6920182Y-14991508D02*
X6929705Y-15001031D01*
X6929705Y-15001031D02*
X6939229Y-15020079D01*
X6939229Y-15020079D02*
X6948753Y-15058174D01*
X6948753Y-15058174D02*
X6948753Y-15105793D01*
X6948753Y-15105793D02*
X6939229Y-15143888D01*
X6939229Y-15143888D02*
X6929705Y-15162936D01*
X6929705Y-15162936D02*
X6920182Y-15172460D01*
X6920182Y-15172460D02*
X6901134Y-15181984D01*
X6901134Y-15181984D02*
X6882086Y-15181984D01*
X6882086Y-15181984D02*
X6863039Y-15172460D01*
X6863039Y-15172460D02*
X6853515Y-15162936D01*
X6853515Y-15162936D02*
X6843991Y-15143888D01*
X6843991Y-15143888D02*
X6834467Y-15105793D01*
X6834467Y-15105793D02*
X6834467Y-15058174D01*
X6834467Y-15058174D02*
X6843991Y-15020079D01*
X6843991Y-15020079D02*
X6853515Y-15001031D01*
X6853515Y-15001031D02*
X6863039Y-14991508D01*
X6863039Y-14991508D02*
X6882086Y-14981984D01*
X7015420Y-14981984D02*
X7148753Y-14981984D01*
X7148753Y-14981984D02*
X7063039Y-15181984D01*
X7263039Y-14981984D02*
X7282086Y-14981984D01*
X7282086Y-14981984D02*
X7301134Y-14991508D01*
X7301134Y-14991508D02*
X7310658Y-15001031D01*
X7310658Y-15001031D02*
X7320182Y-15020079D01*
X7320182Y-15020079D02*
X7329705Y-15058174D01*
X7329705Y-15058174D02*
X7329705Y-15105793D01*
X7329705Y-15105793D02*
X7320182Y-15143888D01*
X7320182Y-15143888D02*
X7310658Y-15162936D01*
X7310658Y-15162936D02*
X7301134Y-15172460D01*
X7301134Y-15172460D02*
X7282086Y-15181984D01*
X7282086Y-15181984D02*
X7263039Y-15181984D01*
X7263039Y-15181984D02*
X7243991Y-15172460D01*
X7243991Y-15172460D02*
X7234467Y-15162936D01*
X7234467Y-15162936D02*
X7224943Y-15143888D01*
X7224943Y-15143888D02*
X7215420Y-15105793D01*
X7215420Y-15105793D02*
X7215420Y-15058174D01*
X7215420Y-15058174D02*
X7224943Y-15020079D01*
X7224943Y-15020079D02*
X7234467Y-15001031D01*
X7234467Y-15001031D02*
X7243991Y-14991508D01*
X7243991Y-14991508D02*
X7263039Y-14981984D01*
X7415420Y-15181984D02*
X7415420Y-15048650D01*
X7415420Y-15067698D02*
X7424943Y-15058174D01*
X7424943Y-15058174D02*
X7443991Y-15048650D01*
X7443991Y-15048650D02*
X7472563Y-15048650D01*
X7472563Y-15048650D02*
X7491610Y-15058174D01*
X7491610Y-15058174D02*
X7501134Y-15077222D01*
X7501134Y-15077222D02*
X7501134Y-15181984D01*
X7501134Y-15077222D02*
X7510658Y-15058174D01*
X7510658Y-15058174D02*
X7529705Y-15048650D01*
X7529705Y-15048650D02*
X7558277Y-15048650D01*
X7558277Y-15048650D02*
X7577324Y-15058174D01*
X7577324Y-15058174D02*
X7586848Y-15077222D01*
X7586848Y-15077222D02*
X7586848Y-15181984D01*
X7682086Y-15181984D02*
X7682086Y-15048650D01*
X7682086Y-15067698D02*
X7691610Y-15058174D01*
X7691610Y-15058174D02*
X7710658Y-15048650D01*
X7710658Y-15048650D02*
X7739229Y-15048650D01*
X7739229Y-15048650D02*
X7758277Y-15058174D01*
X7758277Y-15058174D02*
X7767801Y-15077222D01*
X7767801Y-15077222D02*
X7767801Y-15181984D01*
X7767801Y-15077222D02*
X7777324Y-15058174D01*
X7777324Y-15058174D02*
X7796372Y-15048650D01*
X7796372Y-15048650D02*
X7824943Y-15048650D01*
X7824943Y-15048650D02*
X7843991Y-15058174D01*
X7843991Y-15058174D02*
X7853515Y-15077222D01*
X7853515Y-15077222D02*
X7853515Y-15181984D01*
X8243991Y-14972460D02*
X8072563Y-15229603D01*
X8501134Y-14981984D02*
X8520182Y-14981984D01*
X8520182Y-14981984D02*
X8539229Y-14991508D01*
X8539229Y-14991508D02*
X8548753Y-15001031D01*
X8548753Y-15001031D02*
X8558277Y-15020079D01*
X8558277Y-15020079D02*
X8567801Y-15058174D01*
X8567801Y-15058174D02*
X8567801Y-15105793D01*
X8567801Y-15105793D02*
X8558277Y-15143888D01*
X8558277Y-15143888D02*
X8548753Y-15162936D01*
X8548753Y-15162936D02*
X8539229Y-15172460D01*
X8539229Y-15172460D02*
X8520182Y-15181984D01*
X8520182Y-15181984D02*
X8501134Y-15181984D01*
X8501134Y-15181984D02*
X8482087Y-15172460D01*
X8482087Y-15172460D02*
X8472563Y-15162936D01*
X8472563Y-15162936D02*
X8463039Y-15143888D01*
X8463039Y-15143888D02*
X8453515Y-15105793D01*
X8453515Y-15105793D02*
X8453515Y-15058174D01*
X8453515Y-15058174D02*
X8463039Y-15020079D01*
X8463039Y-15020079D02*
X8472563Y-15001031D01*
X8472563Y-15001031D02*
X8482087Y-14991508D01*
X8482087Y-14991508D02*
X8501134Y-14981984D01*
X8653515Y-15162936D02*
X8663039Y-15172460D01*
X8663039Y-15172460D02*
X8653515Y-15181984D01*
X8653515Y-15181984D02*
X8643991Y-15172460D01*
X8643991Y-15172460D02*
X8653515Y-15162936D01*
X8653515Y-15162936D02*
X8653515Y-15181984D01*
X8786848Y-14981984D02*
X8805896Y-14981984D01*
X8805896Y-14981984D02*
X8824944Y-14991508D01*
X8824944Y-14991508D02*
X8834468Y-15001031D01*
X8834468Y-15001031D02*
X8843991Y-15020079D01*
X8843991Y-15020079D02*
X8853515Y-15058174D01*
X8853515Y-15058174D02*
X8853515Y-15105793D01*
X8853515Y-15105793D02*
X8843991Y-15143888D01*
X8843991Y-15143888D02*
X8834468Y-15162936D01*
X8834468Y-15162936D02*
X8824944Y-15172460D01*
X8824944Y-15172460D02*
X8805896Y-15181984D01*
X8805896Y-15181984D02*
X8786848Y-15181984D01*
X8786848Y-15181984D02*
X8767801Y-15172460D01*
X8767801Y-15172460D02*
X8758277Y-15162936D01*
X8758277Y-15162936D02*
X8748753Y-15143888D01*
X8748753Y-15143888D02*
X8739229Y-15105793D01*
X8739229Y-15105793D02*
X8739229Y-15058174D01*
X8739229Y-15058174D02*
X8748753Y-15020079D01*
X8748753Y-15020079D02*
X8758277Y-15001031D01*
X8758277Y-15001031D02*
X8767801Y-14991508D01*
X8767801Y-14991508D02*
X8786848Y-14981984D01*
X9024944Y-15048650D02*
X9024944Y-15181984D01*
X8977325Y-14972460D02*
X8929706Y-15115317D01*
X8929706Y-15115317D02*
X9053515Y-15115317D01*
X9120182Y-15001031D02*
X9129706Y-14991508D01*
X9129706Y-14991508D02*
X9148753Y-14981984D01*
X9148753Y-14981984D02*
X9196372Y-14981984D01*
X9196372Y-14981984D02*
X9215420Y-14991508D01*
X9215420Y-14991508D02*
X9224944Y-15001031D01*
X9224944Y-15001031D02*
X9234468Y-15020079D01*
X9234468Y-15020079D02*
X9234468Y-15039127D01*
X9234468Y-15039127D02*
X9224944Y-15067698D01*
X9224944Y-15067698D02*
X9110658Y-15181984D01*
X9110658Y-15181984D02*
X9234468Y-15181984D01*
X9424944Y-15181984D02*
X9310658Y-15181984D01*
X9367801Y-15181984D02*
X9367801Y-14981984D01*
X9367801Y-14981984D02*
X9348753Y-15010555D01*
X9348753Y-15010555D02*
X9329706Y-15029603D01*
X9329706Y-15029603D02*
X9310658Y-15039127D01*
X9501134Y-14981984D02*
X9501134Y-15020079D01*
X9577325Y-14981984D02*
X9577325Y-15020079D01*
X9872563Y-15258174D02*
X9863039Y-15248650D01*
X9863039Y-15248650D02*
X9843991Y-15220079D01*
X9843991Y-15220079D02*
X9834468Y-15201031D01*
X9834468Y-15201031D02*
X9824944Y-15172460D01*
X9824944Y-15172460D02*
X9815420Y-15124841D01*
X9815420Y-15124841D02*
X9815420Y-15086746D01*
X9815420Y-15086746D02*
X9824944Y-15039127D01*
X9824944Y-15039127D02*
X9834468Y-15010555D01*
X9834468Y-15010555D02*
X9843991Y-14991508D01*
X9843991Y-14991508D02*
X9863039Y-14962936D01*
X9863039Y-14962936D02*
X9872563Y-14953412D01*
X9929706Y-14981984D02*
X10053515Y-14981984D01*
X10053515Y-14981984D02*
X9986849Y-15058174D01*
X9986849Y-15058174D02*
X10015420Y-15058174D01*
X10015420Y-15058174D02*
X10034468Y-15067698D01*
X10034468Y-15067698D02*
X10043991Y-15077222D01*
X10043991Y-15077222D02*
X10053515Y-15096269D01*
X10053515Y-15096269D02*
X10053515Y-15143888D01*
X10053515Y-15143888D02*
X10043991Y-15162936D01*
X10043991Y-15162936D02*
X10034468Y-15172460D01*
X10034468Y-15172460D02*
X10015420Y-15181984D01*
X10015420Y-15181984D02*
X9958277Y-15181984D01*
X9958277Y-15181984D02*
X9939230Y-15172460D01*
X9939230Y-15172460D02*
X9929706Y-15162936D01*
X10129706Y-15001031D02*
X10139230Y-14991508D01*
X10139230Y-14991508D02*
X10158277Y-14981984D01*
X10158277Y-14981984D02*
X10205896Y-14981984D01*
X10205896Y-14981984D02*
X10224944Y-14991508D01*
X10224944Y-14991508D02*
X10234468Y-15001031D01*
X10234468Y-15001031D02*
X10243991Y-15020079D01*
X10243991Y-15020079D02*
X10243991Y-15039127D01*
X10243991Y-15039127D02*
X10234468Y-15067698D01*
X10234468Y-15067698D02*
X10120182Y-15181984D01*
X10120182Y-15181984D02*
X10243991Y-15181984D01*
X10482087Y-15181984D02*
X10482087Y-14981984D01*
X10567801Y-15181984D02*
X10567801Y-15077222D01*
X10567801Y-15077222D02*
X10558277Y-15058174D01*
X10558277Y-15058174D02*
X10539230Y-15048650D01*
X10539230Y-15048650D02*
X10510658Y-15048650D01*
X10510658Y-15048650D02*
X10491611Y-15058174D01*
X10491611Y-15058174D02*
X10482087Y-15067698D01*
X10691611Y-15181984D02*
X10672563Y-15172460D01*
X10672563Y-15172460D02*
X10663039Y-15162936D01*
X10663039Y-15162936D02*
X10653515Y-15143888D01*
X10653515Y-15143888D02*
X10653515Y-15086746D01*
X10653515Y-15086746D02*
X10663039Y-15067698D01*
X10663039Y-15067698D02*
X10672563Y-15058174D01*
X10672563Y-15058174D02*
X10691611Y-15048650D01*
X10691611Y-15048650D02*
X10720182Y-15048650D01*
X10720182Y-15048650D02*
X10739230Y-15058174D01*
X10739230Y-15058174D02*
X10748753Y-15067698D01*
X10748753Y-15067698D02*
X10758277Y-15086746D01*
X10758277Y-15086746D02*
X10758277Y-15143888D01*
X10758277Y-15143888D02*
X10748753Y-15162936D01*
X10748753Y-15162936D02*
X10739230Y-15172460D01*
X10739230Y-15172460D02*
X10720182Y-15181984D01*
X10720182Y-15181984D02*
X10691611Y-15181984D01*
X10872563Y-15181984D02*
X10853515Y-15172460D01*
X10853515Y-15172460D02*
X10843992Y-15153412D01*
X10843992Y-15153412D02*
X10843992Y-14981984D01*
X11024944Y-15172460D02*
X11005896Y-15181984D01*
X11005896Y-15181984D02*
X10967801Y-15181984D01*
X10967801Y-15181984D02*
X10948753Y-15172460D01*
X10948753Y-15172460D02*
X10939230Y-15153412D01*
X10939230Y-15153412D02*
X10939230Y-15077222D01*
X10939230Y-15077222D02*
X10948753Y-15058174D01*
X10948753Y-15058174D02*
X10967801Y-15048650D01*
X10967801Y-15048650D02*
X11005896Y-15048650D01*
X11005896Y-15048650D02*
X11024944Y-15058174D01*
X11024944Y-15058174D02*
X11034468Y-15077222D01*
X11034468Y-15077222D02*
X11034468Y-15096269D01*
X11034468Y-15096269D02*
X10939230Y-15115317D01*
X11110658Y-15172460D02*
X11129706Y-15181984D01*
X11129706Y-15181984D02*
X11167801Y-15181984D01*
X11167801Y-15181984D02*
X11186849Y-15172460D01*
X11186849Y-15172460D02*
X11196372Y-15153412D01*
X11196372Y-15153412D02*
X11196372Y-15143888D01*
X11196372Y-15143888D02*
X11186849Y-15124841D01*
X11186849Y-15124841D02*
X11167801Y-15115317D01*
X11167801Y-15115317D02*
X11139230Y-15115317D01*
X11139230Y-15115317D02*
X11120182Y-15105793D01*
X11120182Y-15105793D02*
X11110658Y-15086746D01*
X11110658Y-15086746D02*
X11110658Y-15077222D01*
X11110658Y-15077222D02*
X11120182Y-15058174D01*
X11120182Y-15058174D02*
X11139230Y-15048650D01*
X11139230Y-15048650D02*
X11167801Y-15048650D01*
X11167801Y-15048650D02*
X11186849Y-15058174D01*
X11263039Y-15258174D02*
X11272563Y-15248650D01*
X11272563Y-15248650D02*
X11291611Y-15220079D01*
X11291611Y-15220079D02*
X11301134Y-15201031D01*
X11301134Y-15201031D02*
X11310658Y-15172460D01*
X11310658Y-15172460D02*
X11320182Y-15124841D01*
X11320182Y-15124841D02*
X11320182Y-15086746D01*
X11320182Y-15086746D02*
X11310658Y-15039127D01*
X11310658Y-15039127D02*
X11301134Y-15010555D01*
X11301134Y-15010555D02*
X11291611Y-14991508D01*
X11291611Y-14991508D02*
X11272563Y-14962936D01*
X11272563Y-14962936D02*
X11263039Y-14953412D01*
X6097500Y-15254500D02*
X6297500Y-15454500D01*
X6297500Y-15254500D02*
X6097500Y-15454500D01*
X6197500Y-15454500D02*
X6297500Y-15354500D01*
X6197500Y-15254500D01*
X6097500Y-15354500D01*
X6197500Y-15454500D01*
X6643991Y-15312650D02*
X6643991Y-15445984D01*
X6596372Y-15236460D02*
X6548753Y-15379317D01*
X6548753Y-15379317D02*
X6672562Y-15379317D01*
X6748753Y-15426936D02*
X6758277Y-15436460D01*
X6758277Y-15436460D02*
X6748753Y-15445984D01*
X6748753Y-15445984D02*
X6739229Y-15436460D01*
X6739229Y-15436460D02*
X6748753Y-15426936D01*
X6748753Y-15426936D02*
X6748753Y-15445984D01*
X6939229Y-15245984D02*
X6843991Y-15245984D01*
X6843991Y-15245984D02*
X6834467Y-15341222D01*
X6834467Y-15341222D02*
X6843991Y-15331698D01*
X6843991Y-15331698D02*
X6863039Y-15322174D01*
X6863039Y-15322174D02*
X6910658Y-15322174D01*
X6910658Y-15322174D02*
X6929705Y-15331698D01*
X6929705Y-15331698D02*
X6939229Y-15341222D01*
X6939229Y-15341222D02*
X6948753Y-15360269D01*
X6948753Y-15360269D02*
X6948753Y-15407888D01*
X6948753Y-15407888D02*
X6939229Y-15426936D01*
X6939229Y-15426936D02*
X6929705Y-15436460D01*
X6929705Y-15436460D02*
X6910658Y-15445984D01*
X6910658Y-15445984D02*
X6863039Y-15445984D01*
X6863039Y-15445984D02*
X6843991Y-15436460D01*
X6843991Y-15436460D02*
X6834467Y-15426936D01*
X7129705Y-15245984D02*
X7034467Y-15245984D01*
X7034467Y-15245984D02*
X7024943Y-15341222D01*
X7024943Y-15341222D02*
X7034467Y-15331698D01*
X7034467Y-15331698D02*
X7053515Y-15322174D01*
X7053515Y-15322174D02*
X7101134Y-15322174D01*
X7101134Y-15322174D02*
X7120182Y-15331698D01*
X7120182Y-15331698D02*
X7129705Y-15341222D01*
X7129705Y-15341222D02*
X7139229Y-15360269D01*
X7139229Y-15360269D02*
X7139229Y-15407888D01*
X7139229Y-15407888D02*
X7129705Y-15426936D01*
X7129705Y-15426936D02*
X7120182Y-15436460D01*
X7120182Y-15436460D02*
X7101134Y-15445984D01*
X7101134Y-15445984D02*
X7053515Y-15445984D01*
X7053515Y-15445984D02*
X7034467Y-15436460D01*
X7034467Y-15436460D02*
X7024943Y-15426936D01*
X7263039Y-15245984D02*
X7282086Y-15245984D01*
X7282086Y-15245984D02*
X7301134Y-15255508D01*
X7301134Y-15255508D02*
X7310658Y-15265031D01*
X7310658Y-15265031D02*
X7320182Y-15284079D01*
X7320182Y-15284079D02*
X7329705Y-15322174D01*
X7329705Y-15322174D02*
X7329705Y-15369793D01*
X7329705Y-15369793D02*
X7320182Y-15407888D01*
X7320182Y-15407888D02*
X7310658Y-15426936D01*
X7310658Y-15426936D02*
X7301134Y-15436460D01*
X7301134Y-15436460D02*
X7282086Y-15445984D01*
X7282086Y-15445984D02*
X7263039Y-15445984D01*
X7263039Y-15445984D02*
X7243991Y-15436460D01*
X7243991Y-15436460D02*
X7234467Y-15426936D01*
X7234467Y-15426936D02*
X7224943Y-15407888D01*
X7224943Y-15407888D02*
X7215420Y-15369793D01*
X7215420Y-15369793D02*
X7215420Y-15322174D01*
X7215420Y-15322174D02*
X7224943Y-15284079D01*
X7224943Y-15284079D02*
X7234467Y-15265031D01*
X7234467Y-15265031D02*
X7243991Y-15255508D01*
X7243991Y-15255508D02*
X7263039Y-15245984D01*
X7415420Y-15445984D02*
X7415420Y-15312650D01*
X7415420Y-15331698D02*
X7424943Y-15322174D01*
X7424943Y-15322174D02*
X7443991Y-15312650D01*
X7443991Y-15312650D02*
X7472563Y-15312650D01*
X7472563Y-15312650D02*
X7491610Y-15322174D01*
X7491610Y-15322174D02*
X7501134Y-15341222D01*
X7501134Y-15341222D02*
X7501134Y-15445984D01*
X7501134Y-15341222D02*
X7510658Y-15322174D01*
X7510658Y-15322174D02*
X7529705Y-15312650D01*
X7529705Y-15312650D02*
X7558277Y-15312650D01*
X7558277Y-15312650D02*
X7577324Y-15322174D01*
X7577324Y-15322174D02*
X7586848Y-15341222D01*
X7586848Y-15341222D02*
X7586848Y-15445984D01*
X7682086Y-15445984D02*
X7682086Y-15312650D01*
X7682086Y-15331698D02*
X7691610Y-15322174D01*
X7691610Y-15322174D02*
X7710658Y-15312650D01*
X7710658Y-15312650D02*
X7739229Y-15312650D01*
X7739229Y-15312650D02*
X7758277Y-15322174D01*
X7758277Y-15322174D02*
X7767801Y-15341222D01*
X7767801Y-15341222D02*
X7767801Y-15445984D01*
X7767801Y-15341222D02*
X7777324Y-15322174D01*
X7777324Y-15322174D02*
X7796372Y-15312650D01*
X7796372Y-15312650D02*
X7824943Y-15312650D01*
X7824943Y-15312650D02*
X7843991Y-15322174D01*
X7843991Y-15322174D02*
X7853515Y-15341222D01*
X7853515Y-15341222D02*
X7853515Y-15445984D01*
X8243991Y-15236460D02*
X8072563Y-15493603D01*
X8501134Y-15245984D02*
X8520182Y-15245984D01*
X8520182Y-15245984D02*
X8539229Y-15255508D01*
X8539229Y-15255508D02*
X8548753Y-15265031D01*
X8548753Y-15265031D02*
X8558277Y-15284079D01*
X8558277Y-15284079D02*
X8567801Y-15322174D01*
X8567801Y-15322174D02*
X8567801Y-15369793D01*
X8567801Y-15369793D02*
X8558277Y-15407888D01*
X8558277Y-15407888D02*
X8548753Y-15426936D01*
X8548753Y-15426936D02*
X8539229Y-15436460D01*
X8539229Y-15436460D02*
X8520182Y-15445984D01*
X8520182Y-15445984D02*
X8501134Y-15445984D01*
X8501134Y-15445984D02*
X8482087Y-15436460D01*
X8482087Y-15436460D02*
X8472563Y-15426936D01*
X8472563Y-15426936D02*
X8463039Y-15407888D01*
X8463039Y-15407888D02*
X8453515Y-15369793D01*
X8453515Y-15369793D02*
X8453515Y-15322174D01*
X8453515Y-15322174D02*
X8463039Y-15284079D01*
X8463039Y-15284079D02*
X8472563Y-15265031D01*
X8472563Y-15265031D02*
X8482087Y-15255508D01*
X8482087Y-15255508D02*
X8501134Y-15245984D01*
X8653515Y-15426936D02*
X8663039Y-15436460D01*
X8663039Y-15436460D02*
X8653515Y-15445984D01*
X8653515Y-15445984D02*
X8643991Y-15436460D01*
X8643991Y-15436460D02*
X8653515Y-15426936D01*
X8653515Y-15426936D02*
X8653515Y-15445984D01*
X8853515Y-15445984D02*
X8739229Y-15445984D01*
X8796372Y-15445984D02*
X8796372Y-15245984D01*
X8796372Y-15245984D02*
X8777325Y-15274555D01*
X8777325Y-15274555D02*
X8758277Y-15293603D01*
X8758277Y-15293603D02*
X8739229Y-15303127D01*
X8920182Y-15245984D02*
X9053515Y-15245984D01*
X9053515Y-15245984D02*
X8967801Y-15445984D01*
X9139229Y-15445984D02*
X9177325Y-15445984D01*
X9177325Y-15445984D02*
X9196372Y-15436460D01*
X9196372Y-15436460D02*
X9205896Y-15426936D01*
X9205896Y-15426936D02*
X9224944Y-15398365D01*
X9224944Y-15398365D02*
X9234468Y-15360269D01*
X9234468Y-15360269D02*
X9234468Y-15284079D01*
X9234468Y-15284079D02*
X9224944Y-15265031D01*
X9224944Y-15265031D02*
X9215420Y-15255508D01*
X9215420Y-15255508D02*
X9196372Y-15245984D01*
X9196372Y-15245984D02*
X9158277Y-15245984D01*
X9158277Y-15245984D02*
X9139229Y-15255508D01*
X9139229Y-15255508D02*
X9129706Y-15265031D01*
X9129706Y-15265031D02*
X9120182Y-15284079D01*
X9120182Y-15284079D02*
X9120182Y-15331698D01*
X9120182Y-15331698D02*
X9129706Y-15350746D01*
X9129706Y-15350746D02*
X9139229Y-15360269D01*
X9139229Y-15360269D02*
X9158277Y-15369793D01*
X9158277Y-15369793D02*
X9196372Y-15369793D01*
X9196372Y-15369793D02*
X9215420Y-15360269D01*
X9215420Y-15360269D02*
X9224944Y-15350746D01*
X9224944Y-15350746D02*
X9234468Y-15331698D01*
X9424944Y-15445984D02*
X9310658Y-15445984D01*
X9367801Y-15445984D02*
X9367801Y-15245984D01*
X9367801Y-15245984D02*
X9348753Y-15274555D01*
X9348753Y-15274555D02*
X9329706Y-15293603D01*
X9329706Y-15293603D02*
X9310658Y-15303127D01*
X9501134Y-15245984D02*
X9501134Y-15284079D01*
X9577325Y-15245984D02*
X9577325Y-15284079D01*
X9872563Y-15522174D02*
X9863039Y-15512650D01*
X9863039Y-15512650D02*
X9843991Y-15484079D01*
X9843991Y-15484079D02*
X9834468Y-15465031D01*
X9834468Y-15465031D02*
X9824944Y-15436460D01*
X9824944Y-15436460D02*
X9815420Y-15388841D01*
X9815420Y-15388841D02*
X9815420Y-15350746D01*
X9815420Y-15350746D02*
X9824944Y-15303127D01*
X9824944Y-15303127D02*
X9834468Y-15274555D01*
X9834468Y-15274555D02*
X9843991Y-15255508D01*
X9843991Y-15255508D02*
X9863039Y-15226936D01*
X9863039Y-15226936D02*
X9872563Y-15217412D01*
X10034468Y-15312650D02*
X10034468Y-15445984D01*
X9986849Y-15236460D02*
X9939230Y-15379317D01*
X9939230Y-15379317D02*
X10063039Y-15379317D01*
X10291611Y-15445984D02*
X10291611Y-15245984D01*
X10377325Y-15445984D02*
X10377325Y-15341222D01*
X10377325Y-15341222D02*
X10367801Y-15322174D01*
X10367801Y-15322174D02*
X10348753Y-15312650D01*
X10348753Y-15312650D02*
X10320182Y-15312650D01*
X10320182Y-15312650D02*
X10301134Y-15322174D01*
X10301134Y-15322174D02*
X10291611Y-15331698D01*
X10501134Y-15445984D02*
X10482087Y-15436460D01*
X10482087Y-15436460D02*
X10472563Y-15426936D01*
X10472563Y-15426936D02*
X10463039Y-15407888D01*
X10463039Y-15407888D02*
X10463039Y-15350746D01*
X10463039Y-15350746D02*
X10472563Y-15331698D01*
X10472563Y-15331698D02*
X10482087Y-15322174D01*
X10482087Y-15322174D02*
X10501134Y-15312650D01*
X10501134Y-15312650D02*
X10529706Y-15312650D01*
X10529706Y-15312650D02*
X10548753Y-15322174D01*
X10548753Y-15322174D02*
X10558277Y-15331698D01*
X10558277Y-15331698D02*
X10567801Y-15350746D01*
X10567801Y-15350746D02*
X10567801Y-15407888D01*
X10567801Y-15407888D02*
X10558277Y-15426936D01*
X10558277Y-15426936D02*
X10548753Y-15436460D01*
X10548753Y-15436460D02*
X10529706Y-15445984D01*
X10529706Y-15445984D02*
X10501134Y-15445984D01*
X10682087Y-15445984D02*
X10663039Y-15436460D01*
X10663039Y-15436460D02*
X10653515Y-15417412D01*
X10653515Y-15417412D02*
X10653515Y-15245984D01*
X10834468Y-15436460D02*
X10815420Y-15445984D01*
X10815420Y-15445984D02*
X10777325Y-15445984D01*
X10777325Y-15445984D02*
X10758277Y-15436460D01*
X10758277Y-15436460D02*
X10748753Y-15417412D01*
X10748753Y-15417412D02*
X10748753Y-15341222D01*
X10748753Y-15341222D02*
X10758277Y-15322174D01*
X10758277Y-15322174D02*
X10777325Y-15312650D01*
X10777325Y-15312650D02*
X10815420Y-15312650D01*
X10815420Y-15312650D02*
X10834468Y-15322174D01*
X10834468Y-15322174D02*
X10843992Y-15341222D01*
X10843992Y-15341222D02*
X10843992Y-15360269D01*
X10843992Y-15360269D02*
X10748753Y-15379317D01*
X10920182Y-15436460D02*
X10939230Y-15445984D01*
X10939230Y-15445984D02*
X10977325Y-15445984D01*
X10977325Y-15445984D02*
X10996373Y-15436460D01*
X10996373Y-15436460D02*
X11005896Y-15417412D01*
X11005896Y-15417412D02*
X11005896Y-15407888D01*
X11005896Y-15407888D02*
X10996373Y-15388841D01*
X10996373Y-15388841D02*
X10977325Y-15379317D01*
X10977325Y-15379317D02*
X10948753Y-15379317D01*
X10948753Y-15379317D02*
X10929706Y-15369793D01*
X10929706Y-15369793D02*
X10920182Y-15350746D01*
X10920182Y-15350746D02*
X10920182Y-15341222D01*
X10920182Y-15341222D02*
X10929706Y-15322174D01*
X10929706Y-15322174D02*
X10948753Y-15312650D01*
X10948753Y-15312650D02*
X10977325Y-15312650D01*
X10977325Y-15312650D02*
X10996373Y-15322174D01*
X11072563Y-15522174D02*
X11082087Y-15512650D01*
X11082087Y-15512650D02*
X11101134Y-15484079D01*
X11101134Y-15484079D02*
X11110658Y-15465031D01*
X11110658Y-15465031D02*
X11120182Y-15436460D01*
X11120182Y-15436460D02*
X11129706Y-15388841D01*
X11129706Y-15388841D02*
X11129706Y-15350746D01*
X11129706Y-15350746D02*
X11120182Y-15303127D01*
X11120182Y-15303127D02*
X11110658Y-15274555D01*
X11110658Y-15274555D02*
X11101134Y-15255508D01*
X11101134Y-15255508D02*
X11082087Y-15226936D01*
X11082087Y-15226936D02*
X11072563Y-15217412D01*
M02*
